<svg width="37" height="37" viewBox="0 0 37 37" fill="none" xmlns="http://www.w3.org/2000/svg">
<g id="customer-service (4) 1">
<g id="Group">
<path id="path2" fill-rule="evenodd" clip-rule="evenodd" d="M18.921 4.98737C16.2916 4.8998 13.635 5.61719 11.3414 7.14817C8.76536 8.86949 6.96511 11.4114 6.1359 14.253C5.90691 14.225 5.6327 14.2374 5.3071 14.3295C4.09144 14.6744 3.17713 15.6705 2.76602 16.5478C2.23281 17.6911 2.00793 19.2032 2.24514 20.7642C2.48071 22.3202 3.13808 23.6029 3.9603 24.3992C4.78499 25.1959 5.71615 25.4549 6.64115 25.2605C8.01838 24.9665 8.70123 24.7466 8.50842 23.4635L7.57479 17.2438C7.76308 13.8776 9.50578 10.7088 12.4206 8.76013C16.322 6.1541 21.437 6.32101 25.1584 9.17782C27.7472 11.1627 29.2502 14.1366 29.4237 17.2586L28.7709 21.6094C27.3147 25.5943 23.7047 28.3545 19.5274 28.7463H16.7459C16.0281 28.7463 15.45 29.3243 15.45 30.0413V30.7246C15.45 31.442 16.0281 32.02 16.7459 32.02H20.253C20.9704 32.02 21.546 31.442 21.546 30.7246V30.3673C24.6959 29.5985 27.4454 27.6626 29.2358 24.9628L30.3594 25.2609C31.2737 25.4981 32.216 25.1959 33.0402 24.3996C33.8625 23.6029 34.5194 22.3206 34.7554 20.7646C34.9934 19.2036 34.762 17.694 34.2349 16.5482C33.7058 15.4025 32.9177 14.6748 32.0079 14.4137C31.6268 14.304 31.2133 14.2637 30.8585 14.253C30.1086 11.6835 28.5649 9.34679 26.34 7.64068C24.1524 5.96211 21.5505 5.0737 18.921 4.98737Z" fill="white"/>
<path id="path4" fill-rule="evenodd" clip-rule="evenodd" d="M23.026 16.177C23.953 16.177 24.7045 16.9285 24.7066 17.858C24.7045 18.7851 23.953 19.5386 23.026 19.5386C22.0965 19.5386 21.3429 18.7851 21.3429 17.858C21.3429 16.9289 22.0969 16.177 23.026 16.177ZM18.4996 16.177C19.4288 16.177 20.1803 16.9285 20.1803 17.858C20.1803 18.7851 19.4288 19.5386 18.4996 19.5386C17.5697 19.5386 16.8182 18.7851 16.8182 17.858C16.8182 16.9289 17.5697 16.177 18.4996 16.177ZM13.975 16.177C14.902 16.177 15.6556 16.9285 15.6556 17.858C15.6556 18.7851 14.902 19.5386 13.975 19.5386C13.0458 19.5386 12.2939 18.7851 12.2939 17.858C12.2939 16.9289 13.0458 16.177 13.975 16.177ZM18.4996 8.95703C13.5704 8.95703 9.59827 12.7985 9.59827 17.858C9.59827 20.2881 10.5171 22.4357 12.014 24.0115L11.4828 26.3927C11.3077 27.1762 11.8512 27.7033 12.5554 27.3111L14.8806 26.014C15.9857 26.4938 17.2079 26.759 18.4996 26.759C23.4305 26.759 27.4002 22.92 27.4002 17.858C27.4002 12.7985 23.4305 8.95703 18.4996 8.95703Z" fill="white"/>
</g>
</g>
</svg>
