<svg width="23" height="22" viewBox="0 0 23 22" fill="none" xmlns="http://www.w3.org/2000/svg">
<g clip-path="url(#clip0_1_655)">
<path d="M3.73049 0.892822C2.03627 0.892822 0.928558 2.05032 0.928558 3.57169C0.928558 5.05946 2.00327 6.24997 3.66548 6.24997H3.69763C5.42499 6.24997 6.49999 5.05946 6.49999 3.57169C6.46769 2.05032 5.42499 0.892822 3.73049 0.892822Z" fill="white"/>
<path d="M0.928558 8.03564H5.57142V21.4285H0.928558V8.03564Z" fill="white"/>
<path d="M17.0325 7.14282C14.571 7.14282 12.9203 9.49467 12.9203 9.49467V7.47042H8.35715V21.4285H12.9201V13.6338C12.9201 13.2165 12.9498 12.7999 13.0704 12.5015C13.4002 11.6682 14.1509 10.8049 15.4115 10.8049C17.0627 10.8049 17.7231 12.085 17.7231 13.9614V21.4285H22.2857V13.4252C22.2857 9.13788 20.0345 7.14282 17.0325 7.14282Z" fill="white"/>
</g>
<defs>
<clipPath id="clip0_1_655">
<rect width="23" height="22" fill="white"/>
</clipPath>
</defs>
</svg>
