<svg width="24" height="22" viewBox="0 0 24 22" fill="none" xmlns="http://www.w3.org/2000/svg">
<path d="M22.515 5.51685C21.1453 5.51685 19.8816 5.10091 18.8667 4.39923C17.7028 3.59485 16.8666 2.41493 16.5713 1.05497C16.4981 0.718955 16.4588 0.372197 16.455 0.0168457H12.5424V9.81716L12.5377 15.1852C12.5377 16.6204 11.5181 17.8373 10.1049 18.2652C9.69471 18.3894 9.25174 18.4483 8.79049 18.4251C8.20174 18.3954 7.65002 18.2326 7.17049 17.9696C6.15002 17.4102 5.45815 16.3952 5.4394 15.2342C5.40987 13.4197 7.01018 11.9402 8.9883 11.9402C9.37877 11.9402 9.75377 11.9987 10.1049 12.1048V9.42614V8.46321C9.73455 8.41294 9.35768 8.38673 8.97659 8.38673C6.81143 8.38673 4.78643 9.21173 3.33893 10.698C2.24487 11.8212 1.58862 13.2542 1.48737 14.7568C1.35471 16.7308 2.14268 18.6073 3.6708 19.9917C3.89533 20.195 4.13112 20.3836 4.37768 20.5576C5.68783 21.4819 7.28955 21.9829 8.97659 21.9829C9.35768 21.9829 9.73455 21.9571 10.1049 21.9068C11.6808 21.6929 13.1349 21.0316 14.2824 19.9917C15.6924 18.7143 16.4714 17.0183 16.4799 15.2132L16.4597 7.19692C17.1324 7.67259 17.8678 8.06618 18.6572 8.37169C19.8849 8.84649 21.1866 9.08712 22.5263 9.08669V6.48235V5.51599C22.5272 5.51685 22.516 5.51685 22.515 5.51685Z" fill="white"/>
</svg>
