<svg width="16" height="16" viewBox="0 0 16 16" fill="none" xmlns="http://www.w3.org/2000/svg">
<path d="M2.66667 2.6665C2.22267 2.6665 1.83118 2.88456 1.58984 3.21989C1.42718 3.44522 1.49904 3.76463 1.73437 3.9113L7.58854 7.55973C7.84054 7.71707 8.15946 7.71707 8.41146 7.55973L14.2409 3.88005C14.4856 3.72538 14.5466 3.38923 14.3659 3.1639C14.1226 2.86123 13.7513 2.6665 13.3333 2.6665H2.66667ZM14.3437 5.39046C14.288 5.39108 14.2314 5.40644 14.1784 5.43994L8.41146 9.07666C8.15946 9.23333 7.84054 9.23269 7.58854 9.07536L1.82031 5.48161C1.60831 5.34961 1.33333 5.50244 1.33333 5.75244V11.9998C1.33333 12.7365 1.93 13.3332 2.66667 13.3332H13.3333C14.07 13.3332 14.6667 12.7365 14.6667 11.9998V5.70947C14.6667 5.52147 14.511 5.38862 14.3437 5.39046Z" fill="#656565"/>
</svg>
