<svg width="15" height="14" viewBox="0 0 15 14" fill="none" xmlns="http://www.w3.org/2000/svg">
<path d="M14.9166 3.00139C14.3735 3.22645 13.7898 3.37789 13.1768 3.4473C13.8011 3.09604 14.2834 2.54286 14.5087 1.8824C13.9228 2.20632 13.2737 2.44189 12.5841 2.5681C12.032 2.01912 11.2455 1.67627 10.3733 1.67627C8.70117 1.67627 7.3445 2.9425 7.3445 4.50319C7.3445 4.72405 7.37154 4.94069 7.42338 5.14682C4.9061 5.02903 2.67503 3.90163 1.18089 2.19159C0.91947 2.61016 0.770732 3.09604 0.770732 3.61557C0.770732 4.59574 1.30484 5.46022 2.11839 5.96713C1.62034 5.95241 1.15384 5.82621 0.745942 5.61377C0.745942 5.62639 0.745942 5.63691 0.745942 5.64953C0.745942 7.01882 1.78936 8.16095 3.17533 8.42176C2.92067 8.48697 2.65475 8.52062 2.37755 8.52062C2.18149 8.52062 1.99219 8.50379 1.80739 8.47014C2.19276 9.59123 3.31055 10.4115 4.63567 10.4326C3.60126 11.1919 2.29417 11.642 0.874398 11.642C0.628755 11.642 0.389872 11.6294 0.153244 11.6042C1.49189 12.4055 3.08518 12.8725 4.79567 12.8725C10.3666 12.8725 13.4135 8.56479 13.4135 4.83132C13.4135 4.70722 13.4112 4.58522 13.4044 4.46323C13.9971 4.0678 14.511 3.5693 14.9166 3.00139Z" fill="#656565"/>
</svg>
