<svg width="20" height="20" viewBox="0 0 20 20" fill="none" xmlns="http://www.w3.org/2000/svg">
<g clip-path="url(#clip0_1_224)">
<path d="M12.259 5.11435H14.1633C14.3736 5.11435 14.5442 4.94372 14.5442 4.73348V2.16756C14.5442 1.96799 14.3907 1.80193 14.1919 1.78783C13.5859 1.7448 12.4022 1.68652 11.5509 1.68652C9.21201 1.68652 7.68853 3.08812 7.68853 5.63538V8.16131H5.02244C4.8122 8.16131 4.64157 8.33194 4.64157 8.54218V11.2083C4.64157 11.4185 4.8122 11.5891 5.02244 11.5891H7.68853V18.8257C7.68853 19.0359 7.85916 19.2065 8.0694 19.2065H10.7355C10.9457 19.2065 11.1164 19.0359 11.1164 18.8257V11.5891H13.867C14.0612 11.5891 14.2242 11.4433 14.2456 11.2502L14.5419 8.58407C14.567 8.3586 14.3903 8.16131 14.1633 8.16131H11.1164V6.25696C11.1164 5.62586 11.6279 5.11435 12.259 5.11435Z" fill="white"/>
</g>
<defs>
<clipPath id="clip0_1_224">
<rect width="19.0435" height="19.0435" fill="white" transform="translate(0.0711365 0.924805)"/>
</clipPath>
</defs>
</svg>
