<svg width="17" height="16" viewBox="0 0 17 16" fill="none" xmlns="http://www.w3.org/2000/svg">
<path d="M10.88 3.52014H12.58C12.7677 3.52014 12.92 3.37678 12.92 3.20014V1.0443C12.92 0.876617 12.783 0.737097 12.6055 0.725257C12.0646 0.689097 11.0078 0.640137 10.2479 0.640137C8.16 0.640137 6.8 1.81774 6.8 3.9579V6.08014H4.42C4.23232 6.08014 4.08 6.2235 4.08 6.40014V8.64014C4.08 8.81678 4.23232 8.96014 4.42 8.96014H6.8V15.0401C6.8 15.2168 6.95232 15.3601 7.14 15.3601H9.52C9.70768 15.3601 9.86 15.2168 9.86 15.0401V8.96014H12.3155C12.4889 8.96014 12.6344 8.83758 12.6534 8.67534L12.918 6.43534C12.9404 6.2459 12.7826 6.08014 12.58 6.08014H9.86V4.48014C9.86 3.9499 10.3166 3.52014 10.88 3.52014Z" fill="#656565"/>
</svg>
