<svg width="34" height="34" viewBox="0 0 34 34" fill="none" xmlns="http://www.w3.org/2000/svg">
<path d="M14.4358 3.75928C7.78125 3.75928 2.38641 8.66337 2.38641 14.7133C2.38641 17.8205 3.81933 20.615 6.10691 22.6057C5.77879 23.6802 5.09435 24.749 3.83696 25.7015C3.83625 25.7022 3.83554 25.7029 3.83482 25.7036C3.73111 25.743 3.64183 25.813 3.57879 25.9044C3.51575 25.9957 3.48193 26.104 3.48181 26.2149C3.48181 26.3602 3.53952 26.4995 3.64223 26.6022C3.74494 26.7049 3.88425 26.7626 4.02951 26.7626C4.06693 26.7622 4.10421 26.7579 4.14076 26.7498C6.26591 26.7436 8.07913 25.8358 9.52147 24.6981C10.2059 24.9765 10.9204 25.206 11.6652 25.3656C11.3322 24.4235 11.1496 23.4206 11.1496 22.381C11.1496 16.9446 16.0635 12.5225 22.1036 12.5225C23.6174 12.5225 25.0605 12.8006 26.3739 13.3034C25.6115 7.92057 20.5634 3.75928 14.4358 3.75928ZM22.1036 14.7133C19.7794 14.7133 17.5505 15.5211 15.9071 16.9591C14.2636 18.3971 13.3404 20.3474 13.3404 22.381C13.3404 24.4147 14.2636 26.365 15.9071 27.803C17.5505 29.241 19.7794 30.0488 22.1036 30.0488C23.224 30.0473 24.3338 29.8577 25.3726 29.4904C26.716 30.4288 28.3417 31.1249 30.2035 31.1314C30.2415 31.1397 30.2802 31.144 30.319 31.1442C30.4643 31.1442 30.6036 31.0865 30.7063 30.9838C30.809 30.8811 30.8667 30.7418 30.8667 30.5965C30.8666 30.4844 30.832 30.3751 30.7677 30.2833C30.7035 30.1915 30.6126 30.1216 30.5073 30.083C29.5048 29.3219 28.8623 28.4842 28.477 27.6312C30.0084 26.2112 30.8631 24.3335 30.8667 22.381C30.8667 20.3474 29.9435 18.3971 28.3001 16.9591C26.6567 15.5211 24.4277 14.7133 22.1036 14.7133Z" fill="white"/>
</svg>
