<svg width="30" height="30" viewBox="0 0 30 30" fill="none" xmlns="http://www.w3.org/2000/svg">
<path d="M9.86193 3.3291C9.98463 3.3291 9.98463 3.3291 10.1026 3.4518C10.2253 3.57451 10.5887 3.93318 10.5887 4.17859C10.5887 4.41928 10.5887 5.02336 10.7067 5.50473C10.9474 6.10881 11.1928 7.68036 11.5515 8.52513C11.9149 9.3699 12.0376 9.85599 11.6742 10.3374C11.3108 10.9414 9.01716 13.2398 9.01716 13.2398C9.01716 13.2398 9.62124 14.4479 10.3433 15.17C10.9474 16.0148 11.9149 17.2229 13.123 18.1904C14.3312 19.2806 15.662 20.2433 16.9882 20.8474C18.319 19.5213 19.4045 18.4311 19.7679 18.1904C20.1313 17.9497 20.1313 17.827 20.7354 18.0724C21.3394 18.3131 22.1842 18.6765 23.1517 18.7945C23.9964 18.9172 24.9639 19.0352 25.568 19.1579C26.1721 19.2806 26.1721 19.2806 26.2948 19.5213C26.5355 19.762 26.6535 20.1253 26.6535 20.2433C26.6535 20.366 26.6535 20.7294 26.6535 21.9376C26.6535 23.1457 26.6535 24.8353 26.6535 25.1987C26.6535 25.5621 26.6535 25.5621 26.5355 25.8027C26.4128 26.0434 26.2948 26.6475 26.2948 26.6475C26.2948 26.7702 25.6907 27.0109 25.3273 27.0109C24.9639 27.0109 23.6331 27.0109 22.7883 26.8882C21.9435 26.7702 19.6499 26.2841 18.8004 25.9254C17.9557 25.68 15.1759 24.7173 11.7969 22.1783C8.65377 19.762 6.36016 16.5009 5.02929 13.8439C3.69843 11.1821 2.97637 8.28444 2.85366 6.83559C2.61298 5.38675 2.61298 4.78267 2.61298 4.41928C2.73568 4.05588 3.09435 3.69249 3.33976 3.57451C3.58045 3.4518 3.94384 3.3291 4.30251 3.3291C4.6659 3.3291 5.63337 3.3291 6.96424 3.3291C8.29038 3.3291 9.86193 3.3291 9.86193 3.3291Z" fill="white"/>
</svg>
