<svg width="39" height="50" viewBox="0 0 39 50" fill="none" xmlns="http://www.w3.org/2000/svg">
<path d="M19.5233 0.200073C8.87334 0.200073 0.209 8.86442 0.209 19.5144C0.209 24.6879 3.34334 31.3316 9.52491 39.2601C12.357 42.8832 15.4239 46.3164 18.706 49.5375C18.9261 49.748 19.2188 49.8654 19.5233 49.8654C19.8278 49.8654 20.1206 49.748 20.3406 49.5375C23.6227 46.3164 26.6897 42.8832 29.5217 39.2601C35.7033 31.3316 38.8376 24.6879 38.8376 19.5144C38.8376 8.86442 30.1733 0.200073 19.5233 0.200073ZM19.5233 33.3103C11.9158 33.3103 5.72738 27.1219 5.72738 19.5144C5.72738 11.9069 11.9158 5.71845 19.5233 5.71845C27.1308 5.71845 33.3193 11.9069 33.3193 19.5144C33.3193 27.1219 27.1308 33.3103 19.5233 33.3103Z" fill="#F68E1E"/>
<path d="M28.9906 17.8511L20.3188 9.96767C20.1011 9.7698 19.8175 9.66016 19.5234 9.66016C19.2292 9.66016 18.9456 9.7698 18.7279 9.96767L10.0562 17.8511C9.85418 18.0348 9.72193 18.2827 9.68187 18.5528C9.64182 18.823 9.69644 19.0986 9.83646 19.333C9.94694 19.5115 10.1018 19.6584 10.2859 19.7592C10.47 19.8601 10.677 19.9115 10.8869 19.9085H12.0342V27.3978C12.0342 27.7114 12.1587 28.0122 12.3805 28.2339C12.6023 28.4557 12.903 28.5803 13.2167 28.5803H15.9759C16.2895 28.5803 16.5903 28.4557 16.812 28.2339C17.0338 28.0122 17.1584 27.7114 17.1584 27.3978V23.0619C17.1584 22.7483 17.2829 22.4475 17.5047 22.2257C17.7265 22.004 18.0273 21.8794 18.3409 21.8794H20.7059C21.0195 21.8794 21.3203 22.004 21.5421 22.2257C21.7638 22.4475 21.8884 22.7483 21.8884 23.0619V27.3978C21.8884 27.7114 22.013 28.0122 22.2347 28.2339C22.4565 28.4557 22.7573 28.5803 23.0709 28.5803H25.8301C26.1437 28.5803 26.4445 28.4557 26.6663 28.2339C26.888 28.0122 27.0126 27.7114 27.0126 27.3978V19.9085H28.1598C28.3697 19.9115 28.5768 19.8601 28.7609 19.7592C28.945 19.6584 29.0998 19.5115 29.2103 19.333C29.3503 19.0986 29.4049 18.823 29.3649 18.5528C29.3248 18.2827 29.1926 18.0348 28.9906 17.8511Z" fill="#F68E1E"/>
</svg>
