<svg width="40" height="40" viewBox="0 0 40 40" fill="none" xmlns="http://www.w3.org/2000/svg">
<path fill-rule="evenodd" clip-rule="evenodd" d="M12.675 2.86564C12.6731 2.87252 12.6719 2.87939 12.67 2.88689C12.2975 4.47064 12.8638 6.42127 14.3281 7.88564C15.7925 9.35002 17.7431 9.91564 19.3269 9.54377C19.3344 9.54252 19.3413 9.54064 19.3481 9.53877C19.7731 9.42252 20.1056 9.09064 20.2206 8.66564C20.2225 8.65877 20.2244 8.65127 20.2263 8.64439C20.5981 7.06064 20.0325 5.11002 18.5681 3.64564C17.1038 2.18127 15.1531 1.61502 13.5694 1.98752C13.5619 1.98877 13.555 1.99064 13.5475 1.99252C13.1225 2.10814 12.7906 2.44064 12.675 2.86564Z" fill="#F68E1E"/>
<path fill-rule="evenodd" clip-rule="evenodd" d="M19.015 8.33317C18.7381 8.39567 18.4456 8.41754 18.1475 8.40067C17.9806 8.39192 17.8169 8.45004 17.6931 8.56254C17.5694 8.67567 17.4956 8.83317 17.4887 9.00004C17.435 10.3613 17.5056 11.4213 17.5056 11.4213C17.5056 11.4219 17.5062 11.4225 17.5062 11.4232C17.6012 12.7994 18.7969 13.8394 20.1731 13.7438C21.5494 13.6482 22.5894 12.4532 22.4937 11.0769C22.3981 9.70067 22.3756 9.38629 22.6019 7.76379C22.6631 7.32067 22.7481 6.88192 22.8862 6.50442C22.9369 6.36629 22.9969 6.25379 23.0619 6.15754C23.9206 4.88692 24.1006 3.77629 23.245 2.76254C22.355 1.70817 20.7762 1.57442 19.7219 2.46442C19.115 2.97692 18.6019 3.75129 18.2344 4.69192C18.1594 4.88379 18.1844 5.10067 18.3006 5.27129C18.97 6.25129 19.2312 7.3738 19.015 8.33317ZM19.52 4.85692C19.7869 4.26004 20.1244 3.76067 20.5281 3.42004C21.0556 2.97504 21.8444 3.04129 22.29 3.56879C22.77 4.13754 22.5075 4.74504 22.0262 5.45754C21.9106 5.62942 21.8025 5.82879 21.7125 6.07442C21.5456 6.52942 21.4381 7.05692 21.3637 7.59129C21.12 9.34067 21.2469 11.1638 21.2469 11.1638C21.295 11.8519 20.775 12.4494 20.0862 12.4969C19.3987 12.5444 18.8012 12.025 18.7531 11.3369C18.7512 11.3057 18.7069 10.6075 18.7219 9.64004C18.9281 9.62192 19.13 9.59005 19.3269 9.5438C19.3344 9.54255 19.3412 9.54067 19.3481 9.53879C19.7731 9.42254 20.1056 9.09067 20.2206 8.66567C20.2225 8.65879 20.2244 8.6513 20.2262 8.64442C20.5031 7.46692 20.2637 6.08942 19.52 4.85692Z" fill="#F68E1E"/>
<path fill-rule="evenodd" clip-rule="evenodd" d="M18.4344 10.7707C18.6138 10.6544 18.7213 10.455 18.7194 10.2413C18.7169 9.89628 18.7206 9.48941 18.7381 9.05003C18.7519 8.70878 18.4888 8.41941 18.1475 8.40066C17.4206 8.36128 16.6588 8.09628 15.9669 7.62691C15.8525 7.54941 15.7156 7.51191 15.5775 7.52066C8.37189 7.96441 1.98877 14.6363 1.98877 22.8107C1.98877 27.8694 4.95502 32.3657 8.31814 35.1463C10.6069 37.0388 13.0831 38.125 14.9288 38.125C16.2144 38.125 17.9206 37.6019 19.7094 36.6363C19.9069 36.5294 20.0319 36.3244 20.0369 36.0994C20.0419 35.875 19.9256 35.665 19.7325 35.5494C15.9425 33.285 11.9319 28.4357 11.9319 22.8107C11.9319 17.7107 14.6294 13.2394 18.4344 10.7707ZM17.4694 9.91191C13.4831 12.6313 10.6819 17.3938 10.6819 22.8107C10.6819 28.4363 14.3581 33.3644 18.1538 36.015C16.945 36.5663 15.8238 36.875 14.9288 36.875C13.2975 36.875 11.1375 35.855 9.11439 34.1825C6.01002 31.6157 3.23877 27.4813 3.23877 22.8107C3.23877 15.3982 8.93252 9.30191 15.45 8.78253C16.0981 9.18941 16.79 9.45503 17.4725 9.57753L17.4694 9.91191Z" fill="#F68E1E"/>
<path fill-rule="evenodd" clip-rule="evenodd" d="M5.40502 22.8106C5.48689 21.2875 5.86939 19.8575 6.43439 18.5356C6.82002 17.6331 7.30439 16.7925 7.85502 16.0094C8.13439 15.6131 8.42689 15.2294 8.73689 14.8631C9.05127 14.4919 9.37752 14.1356 9.72377 13.8013C10.7956 12.765 12.0188 11.925 13.3744 11.395C13.5269 11.345 13.6106 11.1806 13.5606 11.0275C13.5106 10.875 13.3463 10.7913 13.1931 10.8413C11.6775 11.2413 10.245 11.965 8.99189 12.97C8.49752 13.3669 8.03502 13.81 7.61189 14.2931C7.33252 14.6119 7.07127 14.95 6.83252 15.305C6.24752 16.175 5.77314 17.135 5.43252 18.1556C4.94627 19.6113 4.73502 21.1844 4.82252 22.8106C4.82252 22.9719 4.95252 23.1025 5.11377 23.1025C5.27439 23.1025 5.40502 22.9719 5.40502 22.8106Z" fill="#F68E1E"/>
<path fill-rule="evenodd" clip-rule="evenodd" d="M21.7288 7.93808C21.4725 8.00683 21.2881 8.22995 21.2675 8.49433C21.1594 9.91495 21.2469 11.1637 21.2469 11.1637C21.295 11.8518 20.775 12.4493 20.0863 12.4968C19.3988 12.5443 18.8013 12.025 18.7531 11.3375C18.7513 11.3137 18.7244 10.8856 18.7194 10.2412C18.7175 10.0131 18.5919 9.80433 18.3906 9.6962C18.19 9.58745 17.9456 9.59745 17.7544 9.72183C13.6169 12.4068 10.6819 17.2662 10.6819 22.8106C10.6819 27.8693 13.6481 32.3656 17.0113 35.1462C19.3 37.0387 21.7763 38.125 23.6219 38.125C25.4531 38.125 28.1506 37.0456 30.7144 35.1687C34.515 32.385 38.0113 27.8743 38.0113 22.8106C38.0113 14.3318 32.565 7.49683 25.0375 7.49683C23.9125 7.49683 22.8025 7.64933 21.7288 7.93808ZM34.595 22.8106C34.5288 23.7625 34.2863 24.6625 33.9431 25.5293C33.7156 26.1043 33.4338 26.6543 33.1206 27.1925C32.8869 27.5931 32.63 27.9806 32.3663 28.3656C32.1019 28.7512 31.83 29.1325 31.5438 29.5031C31.1069 30.0693 30.6494 30.6143 30.1663 31.1262C29.6613 31.6618 29.1494 32.1675 28.6175 32.625C28.4875 32.72 28.4594 32.9025 28.5544 33.0325C28.6494 33.1625 28.8319 33.1906 28.9619 33.0956C29.9831 32.4543 31.0025 31.6987 31.9206 30.805C32.2825 30.4531 32.6244 30.0793 32.9413 29.6837C33.1531 29.4193 33.3519 29.1443 33.5344 28.8593C33.9963 28.1387 34.3781 27.3712 34.6575 26.5718C35.0769 25.3706 35.2644 24.1075 35.1775 22.8106C35.1775 22.65 35.0475 22.5193 34.8863 22.5193C34.7256 22.5193 34.595 22.65 34.595 22.8106ZM16.7056 12.5768C16.8431 13.4018 17.2838 14.115 17.8975 14.6368C18.2169 14.9087 18.5913 15.1106 18.9963 15.2481C19.3906 15.3818 19.8194 15.4281 20.2594 15.4118C20.4938 15.3893 20.7225 15.3537 20.9388 15.2862C21.4594 15.1231 21.9281 14.8525 22.3013 14.4825C22.8206 13.9687 23.1788 13.3118 23.2944 12.5775C23.3375 12.4225 23.2463 12.2618 23.0913 12.2187C22.9363 12.1762 22.7756 12.2675 22.7325 12.4225C22.5181 12.9581 22.1275 13.3812 21.6563 13.6956C21.4788 13.8137 21.285 13.9006 21.0844 13.98C20.8013 14.0918 20.4956 14.1568 20.1731 14.165C19.8775 14.195 19.5894 14.1743 19.315 14.1125C19.0225 14.0468 18.7431 13.9518 18.4894 13.8031C17.9506 13.4881 17.5019 13.0268 17.2675 12.4231C17.225 12.2675 17.0644 12.1762 16.9094 12.2187C16.7544 12.2612 16.6631 12.4218 16.7056 12.5768Z" fill="#F68E1E"/>
</svg>
