<svg width="57" height="38" viewBox="0 0 57 38" fill="none" xmlns="http://www.w3.org/2000/svg">
<path d="M37.1568 1.57799C36.9457 1.23968 36.2887 0.945435 35.8898 0.945435H24.6466C24.2476 0.945435 24.2339 1.24561 24.4315 1.59169L44.3075 36.1072C44.505 36.4533 44.9742 36.4757 45.3545 36.3585L56.1959 32.9317C56.5771 32.8144 56.7149 32.3627 56.5038 32.0244L37.1568 1.57799Z" fill="#F68E1E"/>
<path d="M10.2052 36.1141L19.796 15.6417V35.4482C19.796 37.2207 21.6751 37.1191 22.074 37.1191H40.7651C41.1639 37.1191 41.3262 36.4768 41.1287 36.1306L21.8179 1.90165C21.6204 1.55557 21.3007 1.55557 21.1033 1.90165L16.2678 10.3926C16.0702 10.7387 15.6283 11.1767 15.2794 11.3703C10.3882 14.0842 3.79187 17.7085 0.868636 18.9912C0.430642 19.1838 0.455077 19.7361 0.79625 20.0705C1.44639 20.7061 2.82785 22.1599 4.1037 23.9109C4.84576 24.9296 5.49487 26.0657 6.02683 27.193C6.19695 27.5537 6.16465 28.1305 5.96722 28.4775L1.81405 36.1306C1.61856 36.4768 1.78184 37.1191 2.18068 37.1191H9.15638C9.55501 37.1192 10.0243 36.47 10.2052 36.1141ZM4.62758 20.3415C4.44866 20.183 4.46921 19.9719 4.68135 19.8604C6.73933 18.783 16.4759 13.6728 19.1831 12.0176C19.3875 11.8925 19.4617 11.959 19.3532 12.1721L10.1241 30.3078C10.0155 30.521 9.89138 30.5034 9.83862 30.2697C9.49152 28.7366 8.08266 23.3976 4.62758 20.3415Z" fill="#F68E1E"/>
</svg>
