<svg width="52" height="30" viewBox="0 0 52 30" fill="none" xmlns="http://www.w3.org/2000/svg">
<path d="M0.112366 3.97825V20.7371C0.112366 25.4973 3.9677 29.3526 8.72786 29.3526H33.7482C35.5185 29.3526 36.9741 27.8971 36.9741 26.1267V9.3285C36.9741 4.56835 33.1187 0.713013 28.3586 0.713013H3.33826C1.56795 0.713013 0.112366 2.12926 0.112366 3.86022V3.97825Z" fill="#F68E1E"/>
<path d="M39.8429 22.6256L46.7668 28.684C47.8683 29.6675 49.5993 29.5495 50.5828 28.448C51.0155 27.9365 51.2516 27.3071 51.2516 26.6777V3.3883C51.2516 1.89337 50.032 0.713168 48.5764 0.673828C47.9077 0.673828 47.2782 0.909869 46.8061 1.34261L39.8429 7.44033C39.2528 7.95175 38.9381 8.69922 38.9381 9.48602V20.6193C38.9381 21.3667 39.2922 22.1142 39.8429 22.6256Z" fill="#F68E1E"/>
</svg>
