<svg width="33" height="33" viewBox="0 0 33 33" fill="none" xmlns="http://www.w3.org/2000/svg">
<g clip-path="url(#clip0_0_117)">
<path d="M20.7766 29.2794C20.7766 30.2152 20.0158 30.9763 19.0802 30.9763C18.1448 30.9763 17.384 30.2152 17.384 29.2794V17.3054C18.0462 17.1504 18.4873 16.8533 18.8631 16.599C19.2886 16.3115 19.5699 16.1214 20.2252 16.1214C20.8803 16.1214 21.1616 16.3115 21.5871 16.599C21.6009 16.6085 21.6155 16.6184 21.6296 16.6277C21.7306 14.1719 21.6074 11.869 21.0938 9.78254C20.124 5.8446 18.4933 3.0857 17.3905 1.60529H17.4024V-0.0644531H15.4688V1.60101C14.2502 3.15997 12.5933 5.94002 11.7257 10.0018C11.2791 12.0915 11.1431 14.1465 11.24 16.5869C11.6555 16.3062 11.9382 16.1214 12.584 16.1214C13.2394 16.1214 13.5206 16.3115 13.9461 16.599C14.322 16.8533 14.7633 17.1504 15.4255 17.3054V29.2794C15.4255 31.2953 17.065 32.9356 19.0804 32.9356C21.0958 32.9356 22.7354 31.2953 22.7354 29.2794V26.727H20.7766V29.2794Z" fill="url(#paint0_linear_0_117)"/>
<path d="M28.0676 5.76439C25.6002 3.52917 22.4919 2.09181 19.1224 1.5918C19.6051 2.15878 20.1245 2.85392 20.6323 3.69081C21.6321 5.33789 22.3907 7.20477 22.8872 9.23983C23.4927 11.7205 23.7072 14.4603 23.5269 17.3839C23.6883 17.402 23.8598 17.4128 24.0456 17.4128C25.3006 17.4128 25.9678 16.9616 26.5041 16.5991C26.9298 16.3116 27.2108 16.1215 27.8662 16.1215C28.5341 16.1215 28.8179 16.3038 29.2474 16.5797C29.763 16.9108 30.4005 17.3202 31.5652 17.3468L32.9356 17.4171V16.4332C32.9356 12.3973 31.2069 8.60839 28.0676 5.76439Z" fill="url(#paint1_linear_0_117)"/>
<path d="M12.2388 3.69081C12.7469 2.85392 13.266 2.15878 13.7489 1.5918C10.3792 2.09181 7.27088 3.52917 4.80353 5.76439C1.6642 8.60839 -0.0644531 12.3973 -0.0644531 16.4332V17.4128H1.18483C2.44847 17.4128 3.12825 16.9375 3.62449 16.5905C4.04293 16.298 4.29546 16.1215 4.94251 16.1215C5.59787 16.1215 5.87909 16.3116 6.30459 16.5993C6.84086 16.9616 7.5083 17.4128 8.76338 17.4128C8.97285 17.4128 9.16495 17.3992 9.34396 17.3765C9.16445 14.4555 9.37895 11.7185 9.98396 9.23983C10.4807 7.20477 11.2393 5.33789 12.2388 3.69081Z" fill="url(#paint2_linear_0_117)"/>
</g>
<defs>
<linearGradient id="paint0_linear_0_117" x1="16.9729" y1="-0.0644531" x2="16.9729" y2="32.9356" gradientUnits="userSpaceOnUse">
<stop stop-color="#2973BC"/>
<stop offset="1" stop-color="#33B3FD"/>
</linearGradient>
<linearGradient id="paint1_linear_0_117" x1="26.029" y1="1.5918" x2="26.029" y2="17.4171" gradientUnits="userSpaceOnUse">
<stop stop-color="#2973BC"/>
<stop offset="1" stop-color="#33B3FD"/>
</linearGradient>
<linearGradient id="paint2_linear_0_117" x1="6.84224" y1="1.5918" x2="6.84224" y2="17.4128" gradientUnits="userSpaceOnUse">
<stop stop-color="#2973BC"/>
<stop offset="1" stop-color="#33B3FD"/>
</linearGradient>
<clipPath id="clip0_0_117">
<rect width="33" height="33" fill="white"/>
</clipPath>
</defs>
</svg>
