<svg width="38" height="38" viewBox="0 0 38 38" fill="none" xmlns="http://www.w3.org/2000/svg">
<path d="M12.5994 13.8402C12.6729 13.8895 18.0916 16.4527 18.0916 16.4527L14.3569 10.6874C14.2441 10.5093 14.2263 10.2837 14.3272 10.0937C15.0193 8.95469 16.1242 7.26579 18.0618 6.39451C20.1978 5.46717 22.5061 8.26231 23.2928 9.47024C23.4875 9.82789 23.9305 10.2617 23.6491 10.6874C22.5373 12.3982 21.0246 14.7418 19.9144 16.4527C20.75 16.0551 24.444 14.2934 25.2047 13.9352C26.6071 13.4143 27.2928 11.6634 26.5465 10.3549C24.5753 6.70927 21.6659 2.35707 18.9881 2.32739C16.3341 2.35707 13.4247 6.70927 11.4475 10.3608C10.7558 11.5831 11.3156 13.2612 12.5994 13.8402Z" fill="url(#paint0_linear_0_112)"/>
<path d="M22.4497 10.3549C22.0222 9.68396 20.8822 8.06299 19.4988 7.49896C17.8904 6.97483 16.2559 9.3381 15.5503 10.3548C16.3901 11.6376 18.1807 14.4163 19 15.6748C19.8139 14.4264 21.6177 11.6286 22.4497 10.3549Z" fill="url(#paint1_linear_0_112)"/>
<path d="M33.8556 22.1707L26.1131 14.8022C26.0111 14.9014 19.7541 17.8482 19.6947 17.8719C19.4028 17.764 19.5937 36.2188 19.5937 36.2188H26.8553C27.2 36.2257 27.4971 35.9004 27.4431 35.5538L26.0478 23.845L30.9759 27.3304C31.2575 27.5375 31.6986 27.4292 31.8487 27.1107C31.8487 27.1107 33.9803 22.8654 33.9803 22.8654C34.099 22.6338 34.0456 22.3488 33.8556 22.1707ZM22.1884 27.7757C22.4913 27.651 22.8415 27.7876 22.9722 28.0904L24.0113 30.5069C24.1419 30.8098 23.9994 31.1541 23.7025 31.2848C23.4081 31.4115 23.0463 31.2813 22.9187 30.976L21.8797 28.5594C21.7491 28.2566 21.8916 27.9063 22.1884 27.7757Z" fill="url(#paint2_linear_0_112)"/>
<path d="M11.8869 14.8023L4.14437 22.1707C3.95436 22.3488 3.90095 22.6338 4.0197 22.8654L6.15125 27.1107C6.30221 27.4289 6.74172 27.5378 7.02409 27.3304C7.02409 27.3304 11.9522 23.8451 11.9522 23.8451L10.5569 35.5538C10.503 35.8997 10.7999 36.2264 11.1447 36.2188H18.4063V17.9075C18.3057 17.8796 11.9522 14.8498 11.8869 14.8023ZM14.8259 28.0904C15.1488 27.3791 16.2147 27.8298 15.9184 28.5595C15.9184 28.5594 14.8794 30.976 14.8794 30.976C14.7844 31.2016 14.5647 31.3322 14.3331 31.3322C13.9209 31.345 13.6119 30.8884 13.7869 30.507C13.7869 30.507 14.8259 28.0904 14.8259 28.0904Z" fill="url(#paint3_linear_0_112)"/>
<defs>
<linearGradient id="paint0_linear_0_112" x1="19.0004" y1="2.32739" x2="19.0004" y2="16.4527" gradientUnits="userSpaceOnUse">
<stop stop-color="#2973BC"/>
<stop offset="1" stop-color="#33B3FD"/>
</linearGradient>
<linearGradient id="paint1_linear_0_112" x1="19" y1="7.42407" x2="19" y2="15.6748" gradientUnits="userSpaceOnUse">
<stop stop-color="#2973BC"/>
<stop offset="1" stop-color="#33B3FD"/>
</linearGradient>
<linearGradient id="paint2_linear_0_112" x1="26.7878" y1="14.8022" x2="26.7878" y2="36.2189" gradientUnits="userSpaceOnUse">
<stop stop-color="#2973BC"/>
<stop offset="1" stop-color="#33B3FD"/>
</linearGradient>
<linearGradient id="paint3_linear_0_112" x1="11.1815" y1="14.8022" x2="11.1815" y2="36.2189" gradientUnits="userSpaceOnUse">
<stop stop-color="#2973BC"/>
<stop offset="1" stop-color="#33B3FD"/>
</linearGradient>
</defs>
</svg>
