<svg width="18" height="19" viewBox="0 0 18 19" fill="none" xmlns="http://www.w3.org/2000/svg">
<g clip-path="url(#clip0_1_230)">
<path d="M9.1049 0.790527C4.36004 0.790527 1.83667 3.83113 1.83667 7.14657C1.83667 8.68419 2.69583 10.6016 4.07113 11.2097C4.27997 11.3039 4.39359 11.2638 4.44012 11.0701C4.48124 10.923 4.66194 10.2142 4.74959 9.87987C4.77664 9.77274 4.76257 9.67969 4.67601 9.57905C4.21938 9.05101 3.85688 8.08905 3.85688 7.18661C3.85688 4.87424 5.69531 2.62895 8.82356 2.62895C11.5287 2.62895 13.4213 4.38623 13.4213 6.89986C13.4213 9.74028 11.9183 11.7053 9.96514 11.7053C8.88416 11.7053 8.0791 10.857 8.33447 9.80737C8.64286 8.55759 9.24773 7.21366 9.24773 6.3123C9.24773 5.504 8.7911 4.83528 7.85836 4.83528C6.7579 4.83528 5.8652 5.92492 5.8652 7.38787C5.8652 8.31737 6.19414 8.94496 6.19414 8.94496C6.19414 8.94496 5.10559 13.3425 4.90324 14.1638C4.56131 15.5542 4.94977 17.806 4.98331 17.9997C5.00387 18.1068 5.12398 18.1403 5.19107 18.0527C5.29819 17.912 6.61398 16.0346 6.98297 14.6777C7.11714 14.1832 7.66791 12.1782 7.66791 12.1782C8.03041 12.8328 9.07676 13.3814 10.1913 13.3814C13.5067 13.3814 15.9024 10.4674 15.9024 6.85117C15.8905 3.38424 12.9235 0.790527 9.1049 0.790527Z" fill="white"/>
</g>
<defs>
<clipPath id="clip0_1_230">
<rect width="17.3123" height="17.3123" fill="white" transform="translate(0.21344 0.790527)"/>
</clipPath>
</defs>
</svg>
