<svg width="28" height="28" viewBox="0 0 28 28" fill="none" xmlns="http://www.w3.org/2000/svg">
<g id="rating 1">
<path id="Vector" d="M11.8859 6.58207L11.2734 8.83243C11.2508 8.9191 11.2543 9.0105 11.2833 9.09523C11.3124 9.17995 11.3657 9.25424 11.4368 9.30881C11.5077 9.3644 11.5937 9.3972 11.6836 9.40287C11.7736 9.40854 11.8631 9.38682 11.9404 9.34058L13.8731 8.20633L15.7106 9.4812C15.7852 9.53123 15.8727 9.5583 15.9625 9.55905C16.0522 9.55979 16.1402 9.53419 16.2156 9.48541C16.2909 9.43662 16.3503 9.36681 16.3864 9.28461C16.4224 9.2024 16.4336 9.11143 16.4184 9.02296L15.9738 6.73632L17.7341 5.28901C17.8023 5.23256 17.8525 5.15731 17.8783 5.07262C17.9041 4.98793 17.9044 4.89752 17.8793 4.81263C17.8557 4.72674 17.8067 4.65 17.7387 4.5925C17.6707 4.535 17.5868 4.49944 17.4982 4.49049L15.2932 4.22733L14.5265 2.05414C14.4955 1.96826 14.4397 1.89351 14.3662 1.83939C14.2927 1.78527 14.2048 1.75421 14.1136 1.75017C14.0226 1.74625 13.9325 1.77022 13.8555 1.81887C13.7785 1.86751 13.7182 1.93851 13.6826 2.02238L12.7525 4.1321L10.5339 4.22736C10.4453 4.23215 10.3599 4.26256 10.2882 4.31492C10.2166 4.36727 10.1616 4.4393 10.1301 4.52227C10.0984 4.60493 10.0919 4.69509 10.1112 4.78145C10.1306 4.86781 10.1751 4.94653 10.239 5.00774L11.8859 6.58207Z" fill="white"/>
<path id="Vector_2" d="M25.5786 8.40599C25.5535 8.32093 25.504 8.2451 25.4363 8.18785C25.3686 8.1306 25.2856 8.09445 25.1975 8.08385L22.9971 7.82072L22.2258 5.64748C22.1948 5.5616 22.139 5.48686 22.0655 5.43274C21.992 5.37862 21.9041 5.34756 21.8129 5.3435C21.7218 5.33924 21.6316 5.36307 21.5545 5.41176C21.4774 5.46045 21.4172 5.53165 21.3819 5.61572L20.4518 7.72544L18.2377 7.82072C18.1491 7.82578 18.0638 7.85648 17.9922 7.9091C17.9207 7.96172 17.866 8.034 17.8347 8.11714C17.8035 8.20028 17.7971 8.2907 17.8162 8.37742C17.8354 8.46413 17.8794 8.54341 17.9428 8.6056L19.5852 10.1754L18.9772 12.4258C18.9531 12.5126 18.9553 12.6047 18.9836 12.6903C19.0118 12.776 19.0649 12.8513 19.136 12.9067C19.2087 12.9606 19.2956 12.992 19.386 12.9968C19.4764 13.0017 19.5662 12.9798 19.6442 12.9339L21.5724 11.7996L23.4144 13.0745C23.488 13.1258 23.5752 13.154 23.6648 13.1557C23.7545 13.1573 23.8426 13.1322 23.918 13.0836C23.9934 13.0338 24.0524 12.963 24.0879 12.8799C24.1234 12.7968 24.1337 12.7052 24.1177 12.6163L23.6776 10.3297L25.4334 8.88235C25.5025 8.82658 25.5532 8.75137 25.5791 8.66645C25.605 8.58154 25.6048 8.49081 25.5786 8.40599Z" fill="white"/>
<path id="Vector_3" d="M8.71452 12.6163L8.27444 10.3297L10.0303 8.88235C10.099 8.82626 10.1499 8.75125 10.1765 8.66659C10.2031 8.58193 10.2043 8.49132 10.18 8.40597C10.1536 8.32163 10.1037 8.24655 10.0363 8.18951C9.96876 8.13246 9.88643 8.09581 9.79887 8.08383L7.59387 7.82071L6.82256 5.64746C6.79124 5.56261 6.73543 5.48896 6.6622 5.43586C6.58898 5.38276 6.50164 5.3526 6.41125 5.3492C6.32086 5.3458 6.2315 5.36931 6.15449 5.41675C6.07748 5.4642 6.01629 5.53344 5.97868 5.6157L5.04863 7.72542L2.83457 7.8207C2.74614 7.82622 2.66118 7.85719 2.58994 7.90988C2.5187 7.96257 2.46422 8.03473 2.43305 8.11768C2.40188 8.20062 2.39536 8.29081 2.41428 8.37738C2.43319 8.46394 2.47673 8.54319 2.53966 8.60558L4.18207 10.1754L3.57411 12.4258C3.55007 12.5127 3.55262 12.6048 3.58142 12.6903C3.61023 12.7758 3.66397 12.8507 3.73572 12.9054C3.80747 12.96 3.89395 12.992 3.98401 12.9971C4.07407 13.0021 4.16359 12.9801 4.24104 12.9339L6.16926 11.7996L8.01129 13.0745C8.08555 13.1245 8.17288 13.1516 8.2624 13.1522C8.35192 13.1529 8.43965 13.1272 8.51465 13.0783C8.58965 13.0295 8.6486 12.9596 8.68415 12.8774C8.71969 12.7953 8.73026 12.7045 8.71452 12.6163Z" fill="white"/>
<path id="Vector_4" d="M16.8585 19.6758C16.0657 20.3669 15.0496 20.7476 13.9979 20.7476C12.9462 20.7476 11.93 20.3669 11.1373 19.6758C9.8134 20.2182 8.66908 21.1226 7.83538 22.2853C7.00168 23.448 6.51231 24.822 6.42334 26.2499H21.577C21.4862 24.8219 20.9956 23.4481 20.1612 22.2857C19.3269 21.1232 18.1824 20.2188 16.8585 19.6758Z" fill="white"/>
<path id="Vector_5" d="M13.9956 13.0156C13.0892 13.0172 12.2205 13.3783 11.58 14.0196C10.9395 14.661 10.5796 15.5302 10.5792 16.4365C10.738 20.9599 17.2577 20.9645 17.4165 16.4365C17.4159 15.5295 17.0552 14.6597 16.4138 14.0183C15.7724 13.3769 14.9027 13.0163 13.9956 13.0156Z" fill="white"/>
</g>
</svg>
