<svg width="29" height="26" viewBox="0 0 29 26" fill="none" xmlns="http://www.w3.org/2000/svg">
<path d="M14.6301 0.593262C8.59659 0.593262 3.67612 5.51374 3.67612 11.5472V12.9165C2.16994 12.9165 0.937622 14.1488 0.937622 15.655V18.3935C0.937622 19.8996 2.16994 21.132 3.67612 21.132H6.41461V14.2857V12.9165V11.5472C6.41461 6.99372 10.0766 3.33176 14.6301 3.33176C19.1836 3.33176 22.8456 6.99372 22.8456 11.5472V12.9165V14.2857V21.132V22.5012H17.2482C17.1068 22.1012 16.845 21.7549 16.4988 21.5097C16.1526 21.2645 15.739 21.1326 15.3147 21.132C14.77 21.132 14.2476 21.3484 13.8624 21.7335C13.4772 22.1187 13.2608 22.6411 13.2608 23.1858C13.2615 23.7046 13.4585 24.2039 13.8122 24.5834C14.166 24.9629 14.6502 25.1945 15.1676 25.2317C15.2165 25.237 15.2656 25.2397 15.3147 25.2397H22.8456C24.3422 25.2397 25.5841 23.9979 25.5841 22.5012V21.132C27.0902 21.132 28.3226 19.8996 28.3226 18.3935V15.655C28.3226 14.1488 27.0902 12.9165 25.5841 12.9165V11.5472C25.5841 5.51374 20.6636 0.593262 14.6301 0.593262Z" fill="white"/>
</svg>
