<svg width="18" height="19" viewBox="0 0 18 19" fill="none" xmlns="http://www.w3.org/2000/svg">
<g clip-path="url(#clip0_1_227)">
<path d="M16.9209 5.13177C15.9329 5.13177 15.0213 4.80446 14.2892 4.2523C13.4497 3.61932 12.8464 2.69081 12.6334 1.62063C12.5807 1.35622 12.5523 1.08334 12.5496 0.803711H9.72719V8.51578L9.72381 12.74C9.72381 13.8694 8.98837 14.827 7.96891 15.1637C7.67305 15.2615 7.35351 15.3078 7.02079 15.2895C6.5961 15.2662 6.19812 15.1381 5.85222 14.9311C5.11611 14.4909 4.61703 13.6922 4.6035 12.7786C4.5822 11.3507 5.73658 10.1865 7.16349 10.1865C7.44515 10.1865 7.71565 10.2325 7.96891 10.316V8.20808V7.45033C7.70179 7.41077 7.42993 7.39014 7.15503 7.39014C5.59321 7.39014 4.13249 8.03935 3.08834 9.20894C2.29915 10.0928 1.82577 11.2205 1.75273 12.4029C1.65704 13.9563 2.22544 15.4329 3.32774 16.5224C3.4897 16.6823 3.65978 16.8307 3.83764 16.9677C4.78271 17.695 5.9381 18.0893 7.15503 18.0893C7.42993 18.0893 7.70179 18.069 7.96891 18.0294C9.1057 17.861 10.1546 17.3406 10.9823 16.5224C11.9994 15.5171 12.5614 14.1825 12.5675 12.762L12.5529 6.45386C13.0382 6.82817 13.5687 7.1379 14.1381 7.37831C15.0237 7.75194 15.9626 7.9413 16.929 7.94096V5.89155V5.1311C16.9297 5.13177 16.9216 5.13177 16.9209 5.13177Z" fill="white"/>
</g>
<defs>
<clipPath id="clip0_1_227">
<rect width="17.3123" height="17.3123" fill="white" transform="translate(0.67984 0.790527)"/>
</clipPath>
</defs>
</svg>
