<svg width="20" height="21" viewBox="0 0 20 21" fill="none" xmlns="http://www.w3.org/2000/svg">
<g clip-path="url(#clip0_1_234)">
<path d="M20 4.70651C19.2597 5.03128 18.4708 5.24654 17.6483 5.35107C18.4944 4.84587 19.1402 4.052 19.4438 3.09512C18.6549 3.56547 17.7839 3.8977 16.8556 4.08311C16.1066 3.2855 15.0389 2.7915 13.8743 2.7915C11.6146 2.7915 9.79538 4.62563 9.79538 6.87411C9.79538 7.19763 9.82275 7.50871 9.88995 7.80486C6.49669 7.63937 3.49415 6.01304 1.47711 3.53561C1.12497 4.14657 0.918414 4.84587 0.918414 5.59869C0.918414 7.01223 1.64634 8.26526 2.73139 8.9907C2.07563 8.97825 1.43232 8.78787 0.887306 8.48799C0.887306 8.50044 0.887306 8.51661 0.887306 8.53279C0.887306 10.5162 2.3021 12.1637 4.15737 12.5432C3.82514 12.6341 3.46304 12.6776 3.08726 12.6776C2.82595 12.6776 2.56216 12.6627 2.31454 12.6079C2.84337 14.2243 4.34402 15.4126 6.12837 15.4512C4.73972 16.5375 2.97652 17.192 1.06773 17.192C0.733011 17.192 0.411976 17.1771 0.0909424 17.136C1.89894 18.3019 4.04165 18.9676 6.35235 18.9676C13.8631 18.9676 17.9693 12.746 17.9693 7.35317C17.9693 7.17275 17.9631 6.99854 17.9544 6.82558C18.7644 6.25071 19.4451 5.53274 20 4.70651Z" fill="white"/>
</g>
<defs>
<clipPath id="clip0_1_234">
<rect width="19.9091" height="19.9091" fill="white" transform="translate(0.0909424 0.924805)"/>
</clipPath>
</defs>
</svg>
