<svg width="46" height="46" viewBox="0 0 46 46" fill="none" xmlns="http://www.w3.org/2000/svg">
<g clip-path="url(#clip0_0_200)">
<path d="M18.3087 14.2003L22.8584 12.7435L27.3959 14.1993L27.4135 9.43449L30.1999 5.56927L25.6738 4.07996L22.8587 0.235596L20.0437 4.07996L15.5149 5.57016L18.3087 9.43334V14.2003ZM21.6773 6.32834L22.8587 4.71478L24.0402 6.32834L25.9399 6.95335L24.7704 8.57557L24.763 10.5754L22.8592 9.96459L20.955 10.5742V8.57672L19.7803 6.95247L21.6773 6.32834Z" fill="#414141"/>
<path d="M12.16 17.5823L14.9464 13.7172L10.4203 12.228L7.60527 8.38342L4.79028 12.2279L0.261353 13.7181L3.05513 17.5813V22.3482L7.60483 20.8914L12.1423 22.3472L12.16 17.5823ZM9.51689 16.7236L9.50947 18.7234L7.60562 18.1126L5.70142 18.7222V16.7246L4.52686 15.1005L6.42373 14.4763L7.60518 12.8628L8.78663 14.4763L10.6862 15.1014L9.51689 16.7236Z" fill="#414141"/>
<path d="M40.9269 12.2279L38.1119 8.38342L35.2969 12.2279L30.7681 13.718L33.5618 17.5812V22.3482L38.1115 20.8914L42.649 22.3471L42.6666 17.5823L45.4531 13.7171L40.9269 12.2279ZM40.0236 16.7236L40.0162 18.7234L38.1123 18.1126L36.2081 18.7222V16.7246L35.0336 15.1004L36.9304 14.4763L38.1119 12.8627L39.2933 14.4763L41.1929 15.1013L40.0236 16.7236Z" fill="#414141"/>
<path d="M22.8588 20.304C15.918 20.304 10.2711 25.9507 10.2711 32.8915C10.2711 39.8323 15.918 45.4791 22.8588 45.4791C29.7995 45.4791 35.4464 39.8324 35.4464 32.8915C35.4464 25.9506 29.7996 20.304 22.8588 20.304ZM17.0139 40.9278V39.0257C17.0139 38.1395 17.5465 37.3565 18.3707 37.0309L22.8588 35.2582L27.3469 37.0309C28.1711 37.3565 28.7037 38.1395 28.7037 39.0257V40.9278C27.0621 42.125 25.0417 42.8328 22.8588 42.8328C20.6759 42.8328 18.6555 42.1251 17.0139 40.9278ZM24.6153 30.7461C24.6153 31.7146 23.8273 32.5026 22.8588 32.5026C21.8902 32.5026 21.1022 31.7146 21.1022 30.7461V30.0409C21.1022 29.0723 21.8902 28.2844 22.8588 28.2844C23.8273 28.2844 24.6153 29.0723 24.6153 30.0409V30.7461ZM31.275 38.1768C30.9883 36.5577 29.8917 35.1909 28.319 34.5697L26.1198 33.701C26.8289 32.9192 27.2616 31.8822 27.2616 30.7461V30.0409C27.2616 27.6132 25.2864 25.6381 22.8588 25.6381C20.4311 25.6381 18.4559 27.6132 18.4559 30.0409V30.7461C18.4559 31.8822 18.8886 32.9192 19.5977 33.701L17.3984 34.5697C15.8258 35.1909 14.7292 36.5577 14.4425 38.1768C13.4769 36.6448 12.9174 34.8324 12.9174 32.8915C12.9174 27.4098 17.3771 22.9502 22.8588 22.9502C28.3404 22.9502 32.8001 27.4099 32.8001 32.8915C32.8001 34.8324 32.2406 36.6447 31.275 38.1768Z" fill="#414141"/>
</g>
<defs>
<clipPath id="clip0_0_200">
<rect width="45.2434" height="45.2434" fill="white" transform="translate(0.235596 0.235596)"/>
</clipPath>
</defs>
</svg>
