<svg width="40" height="40" viewBox="0 0 40 40" fill="none" xmlns="http://www.w3.org/2000/svg">
<path fill-rule="evenodd" clip-rule="evenodd" d="M7.14981 18.8939C7.2757 20.5116 7.69508 22.1106 8.40759 23.6049L5.94203 25.0284C4.98571 23.0921 4.43976 21.0041 4.30441 18.8939H7.14981V18.8939ZM21.2394 7.63508C23.3257 7.63508 25.017 9.32641 25.017 11.4127C25.017 13.499 23.3257 15.1904 21.2394 15.1904C19.1531 15.1904 17.4617 13.499 17.4617 11.4127C17.4617 9.32641 19.1531 7.63508 21.2394 7.63508ZM14.6128 22.6153H27.8659C28.3045 22.6153 28.6269 22.2133 28.5313 21.7852C27.786 18.4448 24.8043 15.9478 21.2394 15.9478C17.6743 15.9478 14.6928 18.4448 13.9475 21.7852C13.8519 22.2133 14.1741 22.6153 14.6128 22.6153ZM20.1373 29.4238C20.7836 29.5027 21.3145 29.3082 21.4944 28.6369C21.6561 28.0332 21.2746 27.467 20.706 27.2679C18.8708 26.9314 17.0929 26.2887 15.6946 25.7831C13.6882 25.0577 13.1644 24.8871 11.1852 26.033L7.62532 28.0941L10.5815 33.3176L10.8152 33.1827C10.9591 33.1 11.1229 33.0833 11.2716 33.1229L19.2983 35.2718C20.4633 35.584 21.1701 35.4588 22.1534 34.8532L33.1764 28.0657C33.5198 27.8543 33.6885 27.3634 33.6388 26.8835C33.598 26.4907 33.4073 26.1355 33.0459 25.9524C32.4726 25.662 31.4767 25.7488 29.9364 26.6459L23.8388 30.1974C23.349 30.4827 22.8449 30.664 22.3216 30.7518C20.8098 31.0057 18.5327 30.2931 17.1788 29.9064C16.7436 29.7822 16.302 29.656 15.8705 29.5404C15.5477 29.4541 15.3559 29.1225 15.4421 28.7996C15.5284 28.4767 15.8602 28.2849 16.183 28.3712C17.4989 28.7237 18.8037 29.1476 20.1373 29.4238ZM5.78911 27.31L10.6081 35.8248C10.841 36.2366 10.6949 36.764 10.2831 36.997L8.64398 37.9247C8.23225 38.1577 7.70478 38.0115 7.47179 37.5998L2.65285 29.085C2.41986 28.6732 2.56605 28.1458 2.97778 27.9128L4.61692 26.9851C5.02858 26.7521 5.55612 26.8983 5.78911 27.31ZM4.6841 28.5864C4.36432 28.6331 4.14292 28.9302 4.18973 29.2501C4.23646 29.57 4.53368 29.7913 4.85346 29.7445C5.17324 29.6978 5.39464 29.4006 5.34783 29.0808C5.30102 28.761 5.00389 28.5396 4.6841 28.5864ZM4.30441 16.8022C4.44506 14.6126 5.02078 12.5398 5.94642 10.6704L8.42675 12.1024C7.74469 13.5434 7.30607 15.1283 7.16095 16.8022H4.30441ZM6.99348 8.85976C8.17908 7.08497 9.70574 5.55657 11.4808 4.36961L12.8981 6.82449C11.5512 7.75521 10.3883 8.93005 9.46533 10.2868L6.99348 8.85976ZM13.2912 3.32209C15.159 2.3966 17.2313 1.81982 19.4244 1.6797V4.5242C17.7368 4.65251 16.1481 5.08886 14.7081 5.77607L13.2912 3.32209ZM21.5159 1.67932V4.52465C28.4093 5.05644 33.8373 10.8183 33.8373 17.8481C33.8373 18.4109 33.8023 18.9654 33.7347 19.5099H32.8006C32.5273 19.5099 32.3749 19.824 32.5439 20.0387L35.067 23.2434C35.1978 23.4095 35.4497 23.4095 35.5804 23.2434L38.1035 20.0387C38.2726 19.824 38.1201 19.5099 37.8469 19.5099H36.5925C36.6482 18.9635 36.6768 18.4092 36.6768 17.8481C36.6767 9.24968 29.9788 2.21679 21.5159 1.67932Z" fill="#414141"/>
</svg>
