<svg width="38" height="37" viewBox="0 0 38 37" fill="none" xmlns="http://www.w3.org/2000/svg">
<g clip-path="url(#clip0_0_206)">
<path d="M24.1039 14.5225L23.512 14.2266C23.4153 14.1783 21.1172 13.0428 18.7502 13.0428C16.3832 13.0428 14.0851 14.1783 13.9884 14.2266L13.3965 14.5225V17.3258H5.90137V36.599H31.599V17.3258H24.1039V14.5225ZM15.538 15.8861C16.2557 15.6021 17.5209 15.1842 18.7502 15.1842C19.9798 15.1842 21.2452 15.6023 21.9624 15.886V17.3257H15.538V15.8861ZM29.4575 34.4575H8.04284V26.1038L17.6795 27.8559V30.1745H19.8209V27.8559L29.4575 26.1038V34.4575ZM29.4575 23.9272L18.7502 25.874L8.04284 23.9272V19.4672H29.4575V23.9272Z" fill="#414141"/>
<path d="M9.89774 15.3904L9.93799 11.647L12.1057 8.59487L8.55796 7.39979L6.32505 4.39502L4.09214 7.39979L0.544434 8.59487L2.71217 11.647L2.75243 15.3904L6.32505 14.2719L9.89774 15.3904ZM4.84636 10.9536L3.95908 9.7043L5.41114 9.21518L6.32505 7.98534L7.23896 9.21518L8.69102 9.7043L7.80373 10.9536L7.78724 12.4857L6.32498 12.0279L4.86271 12.4857L4.84636 10.9536Z" fill="#414141"/>
<path d="M15.1776 11.1074L18.7502 9.9889L22.3229 11.1074L22.363 7.36396L24.5308 4.31179L20.983 3.11671L18.7502 0.111938L16.5173 3.11671L12.9695 4.31179L15.1372 7.36396L15.1776 11.1074ZM17.8363 4.93218L18.7502 3.70233L19.6641 4.93218L21.1161 5.42136L20.2289 6.67055L20.2124 8.2027L18.7502 7.74493L17.2879 8.2027L17.2714 6.67055L16.3841 5.42129L17.8363 4.93218Z" fill="#414141"/>
<path d="M33.6222 7.39979L31.3894 4.39502L29.1565 7.39979L25.6088 8.59487L27.7765 11.647L27.8167 15.3905L31.3894 14.272L34.962 15.3905L35.0022 11.6471L37.17 8.59494L33.6222 7.39979ZM32.8681 10.9536L32.8516 12.4857L31.3894 12.0279L29.9271 12.4857L29.9106 10.9536L29.0234 9.7043L30.4755 9.21511L31.3895 7.98527L32.3034 9.21511L33.7555 9.70423L32.8681 10.9536Z" fill="#414141"/>
</g>
<defs>
<clipPath id="clip0_0_206">
<rect width="36.6256" height="36.6256" fill="white" transform="translate(0.544434 0.0429688)"/>
</clipPath>
</defs>
</svg>
