<svg width="37" height="37" viewBox="0 0 37 37" fill="none" xmlns="http://www.w3.org/2000/svg">
<g clip-path="url(#clip0_0_214)">
<path d="M13.9631 4.43799C13.6518 4.43799 13.3746 4.63498 13.272 4.92871C13.1695 5.22245 13.2635 5.54939 13.5067 5.74277C14.0773 6.19766 14.467 6.7662 14.6956 7.4782V19.5933L7.54787 29.99C7.24022 30.4376 7.20576 31.0139 7.45774 31.4937C7.71046 31.975 8.20613 32.2734 8.74965 32.2734H27.9666C28.5102 32.2734 29.0051 31.9742 29.2571 31.4937C29.5098 31.0139 29.4761 30.4376 29.1684 29.99L22.0207 19.5933V7.41239C22.1167 6.64911 22.4477 6.15625 23.0923 5.82003C23.3911 5.66401 23.5455 5.32339 23.4657 4.99596C23.3844 4.66779 23.0909 4.43799 22.7532 4.43799H13.9631ZM15.5769 5.90301H20.9749C20.7573 6.30663 20.62 6.7679 20.5614 7.28505C20.5577 7.31289 20.5557 7.3402 20.5557 7.36803V19.8207C20.5557 19.9687 20.6009 20.114 20.6844 20.2356L22.4141 22.7508H14.3021L16.0318 20.2356C16.1146 20.114 16.1606 19.9687 16.1606 19.8207V7.36803C16.1606 7.29771 16.1503 7.22798 16.1306 7.16058C15.9965 6.70643 15.8113 6.28685 15.5769 5.90301ZM4.44042 10.2981C4.03534 10.2981 3.70791 10.6262 3.70791 11.0306V14.9364C1.48401 15.9626 0.0629343 18.1134 0.045354 20.5475C0.0321688 22.3239 0.712878 23.9905 1.95961 25.2402C3.18877 26.4701 4.83547 27.1458 6.5979 27.1458H6.63796H7.37047C7.41076 27.1473 7.46561 27.1487 7.52641 27.1487L13.1504 19.1054C12.7996 17.1217 11.2051 15.5657 9.56943 14.9035V11.0306C9.56943 10.6262 9.242 10.2981 8.83692 10.2981H4.44042ZM24.9507 10.2981C24.5457 10.2981 24.2182 10.6262 24.2182 11.0306V16.7676C24.2052 16.8468 24.2052 16.9275 24.2182 17.0066V20.2943L29.011 27.1458H29.3458H34.4734C34.8785 27.1458 35.2059 26.8177 35.2059 26.4133V17.0137C35.219 16.9346 35.219 16.8539 35.2059 16.7748V13.2496C35.2242 12.6335 35.667 11.9773 36.2589 11.6887C36.5651 11.5393 36.7285 11.1986 36.6523 10.8661C36.5754 10.5335 36.2798 10.2981 35.9384 10.2981H24.9507ZM5.17293 11.7631H8.10298V15.4257C8.10298 15.7531 8.32022 16.0409 8.63519 16.131C9.44155 16.3604 10.2614 16.9009 10.8599 17.6232H2.55764C3.09414 16.962 3.81891 16.4367 4.69508 16.1124C4.9815 16.0054 5.17293 15.7319 5.17293 15.4257V11.7631ZM25.6833 11.7631H34.1572C33.906 12.2121 33.7563 12.7161 33.7409 13.2281V16.1582H25.6833V11.7631Z" fill="#414141"/>
</g>
<defs>
<clipPath id="clip0_0_214">
<rect width="36.6256" height="36.6256" fill="white" transform="translate(0.0454102 0.0429688)"/>
</clipPath>
</defs>
</svg>
