<svg width="58" height="58" viewBox="0 0 58 58" fill="none" xmlns="http://www.w3.org/2000/svg">
<path fill-rule="evenodd" clip-rule="evenodd" d="M29.1213 16.7067C27.7157 16.7067 26.3417 17.1235 25.173 17.9044C24.0044 18.6853 23.0935 19.7952 22.5556 21.0937C22.0177 22.3923 21.877 23.8212 22.1512 25.1997C22.4254 26.5783 23.1022 27.8446 24.0961 28.8384C25.09 29.8323 26.3563 30.5092 27.7348 30.7834C29.1134 31.0576 30.5423 30.9169 31.8408 30.379C33.1394 29.8411 34.2493 28.9302 35.0302 27.7615C35.8111 26.5929 36.2279 25.2189 36.2279 23.8133C36.2278 21.9285 35.4791 20.1209 34.1464 18.7882C32.8136 17.4555 31.006 16.7067 29.1213 16.7067ZM33.5576 22.0032L28.1562 26.9051C28.0737 26.9888 27.9756 27.0554 27.8673 27.101C27.759 27.1466 27.6428 27.1703 27.5253 27.1707C27.4078 27.1712 27.2914 27.1484 27.1828 27.1037C27.0742 27.059 26.9755 26.9932 26.8924 26.9101L24.6535 24.6713C24.492 24.5033 24.4028 24.2786 24.4052 24.0455C24.4075 23.8125 24.5011 23.5896 24.666 23.4248C24.8308 23.26 25.0537 23.1665 25.2868 23.1642C25.5198 23.1619 25.7445 23.2511 25.9125 23.4127L27.5527 25.0528L32.3613 20.6889C32.4474 20.6092 32.5484 20.5473 32.6586 20.5068C32.7688 20.4663 32.8858 20.4481 33.0031 20.4531C33.1203 20.4581 33.2354 20.4863 33.3417 20.536C33.448 20.5857 33.5434 20.656 33.6224 20.7428C33.7014 20.8296 33.7624 20.9312 33.8019 21.0417C33.8415 21.1522 33.8587 21.2694 33.8527 21.3866C33.8467 21.5038 33.8175 21.6187 33.7669 21.7245C33.7162 21.8304 33.6451 21.9252 33.5576 22.0034V22.0032ZM29.1213 6.87675L11.2858 14.5208V29.7717C11.2858 40.5486 18.7448 48.8473 29.1213 51.0592C39.4976 48.8473 46.9567 40.5486 46.9567 29.7717V14.5208L29.1213 6.87675ZM24.0465 42.6286L21.9294 38.9852L17.7784 39.7104L20.637 33.5704L20.8255 33.6512C20.9662 33.7046 21.0847 33.804 21.1618 33.9333L22.2079 35.5325C22.6577 36.2266 23.2984 36.776 24.053 37.1147C24.8076 37.4534 25.6439 37.5669 26.4615 37.4415L24.0465 42.6286ZM36.336 37.7521L34.1141 41.3327L32.4599 37.4906C33.1715 37.4859 33.8708 37.3045 34.4949 36.9626C35.1191 36.6207 35.6484 36.1291 36.0355 35.5319L37.0816 33.9326C37.1587 33.8034 37.2772 33.704 37.4178 33.6505L38.1919 33.3191L40.465 38.597L36.336 37.7521ZM40.8844 23.5769L40.0226 25.2823C39.7907 25.7268 39.7015 26.232 39.7674 26.7291L39.9941 28.6265C40.0644 29.1719 39.9535 29.7252 39.6786 30.2014C39.4037 30.6776 38.9799 31.0502 38.4724 31.262L36.7159 32.0143C36.2525 32.2058 35.8594 32.5355 35.5904 32.9586L34.5443 34.5579C34.2476 35.021 33.8069 35.3736 33.2902 35.5617C32.7734 35.7498 32.2091 35.7628 31.6842 35.5988L29.8558 35.0459C29.3777 34.8948 28.8648 34.8948 28.3868 35.0459L26.5574 35.5987C26.0325 35.7627 25.4682 35.7496 24.9515 35.5616C24.4347 35.3735 23.994 35.0208 23.6973 34.5578L22.6512 32.9585C22.3822 32.5354 21.9891 32.2057 21.5257 32.0142L19.7692 31.2619C19.2619 31.05 18.8384 30.6773 18.5636 30.2011C18.2888 29.725 18.1781 29.1717 18.2484 28.6265L18.4752 26.7292C18.5411 26.2321 18.452 25.7269 18.2201 25.2824L17.3581 23.5769C17.1055 23.0885 17.0204 22.5307 17.1159 21.9891C17.2113 21.4476 17.4821 20.9525 17.8865 20.58L19.2798 19.2722C19.6497 18.9337 19.9062 18.4894 20.0143 17.9999L20.4502 16.1393C20.5706 15.6028 20.864 15.1208 21.2852 14.7673C21.7064 14.4139 22.2321 14.2087 22.7814 14.1832L24.6893 14.0771C25.1902 14.0557 25.6723 13.8803 26.0699 13.5748L27.5996 12.4297C28.0367 12.0961 28.5714 11.9154 29.1212 11.9154C29.671 11.9154 30.2057 12.0961 30.6428 12.4297L32.1727 13.5748C32.5702 13.8804 33.0523 14.0559 33.5532 14.0773L35.4611 14.1835C36.0104 14.2089 36.5361 14.4141 36.9573 14.7676C37.3785 15.121 37.6719 15.6031 37.7924 16.1396L38.2283 18.0001C38.3364 18.4897 38.5929 18.934 38.9628 19.2724L40.3562 20.5802C40.7605 20.9528 41.0312 21.4479 41.1266 21.9893C41.222 22.5308 41.1369 23.0886 40.8844 23.5769ZM29.1213 2.11218L6.90442 11.6336V29.7717C6.90442 42.7055 15.9255 52.8146 28.4175 55.3856L29.1213 55.5303L29.8249 55.3857C42.3169 52.8149 51.3381 42.7055 51.3381 29.7717V11.6336L29.1213 2.11218ZM48.7373 29.7717C48.7373 41.4578 40.5956 50.5005 29.3217 52.8305C29.1976 52.8593 29.0687 52.8609 28.9439 52.8353C17.6593 50.513 9.50522 41.4668 9.50522 29.7714V13.9352H9.50711C9.50716 13.7609 9.55844 13.5906 9.65457 13.4453C9.75069 13.2999 9.88742 13.1861 10.0477 13.1179L28.7735 5.09314C28.8834 5.0462 29.0017 5.022 29.1213 5.022C29.2408 5.022 29.3591 5.0462 29.469 5.09314L48.138 13.0941C48.313 13.1546 48.4648 13.2682 48.5722 13.419C48.6796 13.5699 48.7373 13.7504 48.7373 13.9356V29.7717Z" fill="white"/>
</svg>
