<svg width="66" height="67" viewBox="0 0 66 67" fill="none" xmlns="http://www.w3.org/2000/svg">
<path d="M33.0859 30.2769C34.7752 30.2769 36.1446 28.8882 36.1446 27.1752C36.1446 25.4622 34.7752 24.0735 33.0859 24.0735C31.3967 24.0735 30.0273 25.4622 30.0273 27.1752C30.0273 28.8882 31.3967 30.2769 33.0859 30.2769Z" fill="white"/>
<path d="M27.9895 34.4127V40.6161H38.1849V34.4127C38.1849 33.3159 37.7552 32.264 36.9904 31.4884C36.2256 30.7128 35.1883 30.2771 34.1067 30.2771H32.0677C30.9861 30.2771 29.9488 30.7128 29.184 31.4884C28.4192 32.264 27.9895 33.3159 27.9895 34.4127Z" fill="white"/>
<path d="M44.3017 31.3109C45.7094 31.3109 46.8505 30.1536 46.8505 28.7261C46.8505 27.2986 45.7094 26.1414 44.3017 26.1414C42.894 26.1414 41.7528 27.2986 41.7528 28.7261C41.7528 30.1536 42.894 31.3109 44.3017 31.3109Z" fill="white"/>
<path d="M40.224 34.4125V39.582H48.3803V34.4125C48.3803 33.5899 48.0581 32.8009 47.4845 32.2193C46.9109 31.6376 46.1329 31.3108 45.3217 31.3108H43.2826C42.4714 31.3108 41.6935 31.6376 41.1198 32.2193C40.5462 32.8009 40.224 33.5899 40.224 34.4125Z" fill="white"/>
<path d="M21.8724 31.3109C23.2801 31.3109 24.4212 30.1536 24.4212 28.7261C24.4212 27.2986 23.2801 26.1414 21.8724 26.1414C20.4647 26.1414 19.3235 27.2986 19.3235 28.7261C19.3235 30.1536 20.4647 31.3109 21.8724 31.3109Z" fill="white"/>
<path d="M17.7928 34.4125V39.582H25.9491V34.4125C25.9491 33.5899 25.6269 32.8009 25.0533 32.2193C24.4797 31.6376 23.7017 31.3108 22.8905 31.3108H20.8514C20.0402 31.3108 19.2623 31.6376 18.6887 32.2193C18.1151 32.8009 17.7928 33.5899 17.7928 34.4125Z" fill="white"/>
<path d="M20.6377 18.3252C23.873 15.607 27.8872 14.021 32.083 13.803C36.2788 13.5851 40.4319 14.7469 43.924 17.1155L41.7728 19.7106L49.6742 20.424L47.6352 12.6594L45.2596 15.5336C41.3605 12.8037 36.6785 11.4625 31.9472 11.7202C27.2158 11.9779 22.7024 13.8198 19.114 16.9575C15.5256 20.0952 13.0649 24.3514 12.1174 29.0592C11.1699 33.767 11.7892 38.6606 13.8782 42.9733L15.7541 42.0635C13.8313 38.1232 13.2675 33.6427 14.1529 29.339C15.0383 25.0352 17.3217 21.1571 20.6377 18.3252Z" fill="white"/>
<path d="M45.5366 48.4324C42.3069 51.1479 38.2995 52.7344 34.1098 52.9561C29.9201 53.1777 25.7716 52.0227 22.2809 49.6627L24.4321 47.0676L16.5307 46.3646L18.5698 54.1291L20.9657 51.2549C24.8679 53.969 29.5468 55.2957 34.2713 55.0278C38.9958 54.7598 43.4997 52.9122 47.0791 49.7738C50.6585 46.6353 53.1119 42.3828 54.0557 37.6807C54.9996 32.9786 54.3809 28.0919 52.2961 23.7842L50.4712 24.694C52.3882 28.6398 52.9439 33.1239 52.0492 37.428C51.1545 41.7321 48.8612 45.6071 45.5366 48.4324Z" fill="white"/>
<path d="M60.9714 28.6849L63.4489 27.8681C63.5826 27.8285 63.7069 27.7615 63.8141 27.6713C63.9212 27.5811 64.0091 27.4696 64.0721 27.3437C64.1352 27.2178 64.1721 27.0801 64.1807 26.9391C64.1892 26.7981 64.1692 26.6568 64.1218 26.524L62.1643 20.424C62.1252 20.2884 62.0592 20.1624 61.9703 20.0537C61.8813 19.945 61.7714 19.8559 61.6472 19.792C61.523 19.7281 61.3872 19.6906 61.2482 19.6819C61.1091 19.6733 60.9699 19.6936 60.8389 19.7416L58.3614 20.5584C58.1275 20.6399 57.8724 20.6324 57.6436 20.5373C57.4147 20.4422 57.2278 20.266 57.1175 20.0415C55.998 17.971 54.628 16.0504 53.0394 14.324C52.8628 14.1469 52.756 13.9105 52.7391 13.6592C52.7222 13.4079 52.7964 13.159 52.9476 12.9593L54.4973 10.8294C54.5843 10.7174 54.6475 10.5884 54.6829 10.4505C54.7183 10.3125 54.7253 10.1686 54.7032 10.0279C54.6812 9.88708 54.6307 9.75244 54.5549 9.63239C54.4791 9.51234 54.3797 9.40948 54.2628 9.33027L49.1651 5.56687C49.055 5.4804 48.9285 5.41774 48.7935 5.38277C48.6585 5.3478 48.5179 5.34125 48.3803 5.36353C48.2427 5.38582 48.1111 5.43646 47.9936 5.51233C47.8761 5.5882 47.7751 5.68769 47.697 5.80467L46.1065 7.94484C45.9638 8.15205 45.7512 8.29907 45.5089 8.35813C45.2665 8.41718 45.0113 8.38418 44.7913 8.26535C42.6888 7.25812 40.4689 6.52511 38.1847 6.08382C37.9397 6.04871 37.7157 5.92446 37.5544 5.73424C37.3931 5.54402 37.3054 5.3008 37.3079 5.04992V2.36178C37.3079 2.08757 37.2005 1.8246 37.0093 1.6307C36.8181 1.43681 36.5587 1.32788 36.2883 1.32788H29.9264C29.656 1.32788 29.3967 1.43681 29.2055 1.6307C29.0143 1.8246 28.9069 2.08757 28.9069 2.36178V5.03958C28.9093 5.29046 28.8217 5.53368 28.6604 5.7239C28.4991 5.91412 28.275 6.03837 28.0301 6.07348C25.7424 6.51393 23.519 7.24696 21.4132 8.25501C21.1933 8.37384 20.938 8.40684 20.6957 8.34779C20.4534 8.28873 20.2407 8.14171 20.098 7.9345L18.5687 5.79433C18.4906 5.67736 18.3897 5.57786 18.2721 5.50199C18.1546 5.42612 18.023 5.37548 17.8854 5.35319C17.7478 5.33091 17.6072 5.33746 17.4722 5.37243C17.3373 5.4074 17.2108 5.47006 17.1006 5.55653L12.0029 9.31993C11.8773 9.39132 11.7681 9.48887 11.6824 9.60615C11.5967 9.72344 11.5364 9.8578 11.5056 10.0004C11.4748 10.143 11.4741 10.2906 11.5036 10.4335C11.533 10.5764 11.592 10.7113 11.6766 10.8294L13.2059 12.9593C13.3572 13.159 13.4313 13.4079 13.4145 13.6592C13.3976 13.9105 13.2908 14.1469 13.1142 14.324C11.5256 16.0504 10.1556 17.971 9.03603 20.0415C8.92579 20.266 8.73885 20.4422 8.51002 20.5373C8.28119 20.6324 8.02608 20.6399 7.79219 20.5584L5.31471 19.7416C5.18373 19.6936 5.04444 19.6733 4.90542 19.6819C4.7664 19.6906 4.6306 19.7281 4.50641 19.792C4.38222 19.8559 4.27226 19.945 4.18333 20.0537C4.09439 20.1624 4.02836 20.2884 3.98931 20.424L2.03179 26.524C1.98442 26.6568 1.96439 26.7981 1.97293 26.9391C1.98147 27.0801 2.01841 27.2178 2.08146 27.3437C2.14451 27.4696 2.23234 27.5811 2.33953 27.6713C2.44672 27.7615 2.57099 27.8285 2.70469 27.8681L5.18217 28.6849C5.42162 28.7571 5.62657 28.916 5.75813 29.1314C5.88969 29.3467 5.9387 29.6036 5.89585 29.8532C5.59681 32.1938 5.59681 34.5638 5.89585 36.9044C5.9387 37.154 5.88969 37.4108 5.75813 37.6262C5.62657 37.8415 5.42162 38.0004 5.18217 38.0727L2.70469 38.8895C2.57099 38.9291 2.44672 38.996 2.33953 39.0862C2.23234 39.1764 2.14451 39.2879 2.08146 39.4139C2.01841 39.5398 1.98147 39.6775 1.97293 39.8185C1.96439 39.9595 1.98442 40.1007 2.03179 40.2335L3.98931 46.3335C4.02836 46.4691 4.09439 46.5951 4.18333 46.7038C4.27226 46.8125 4.38222 46.9016 4.50641 46.9655C4.6306 47.0295 4.7664 47.0669 4.90542 47.0756C5.04444 47.0843 5.18373 47.064 5.31471 47.0159L7.79219 46.1991C8.02608 46.1177 8.28119 46.1252 8.51002 46.2203C8.73885 46.3154 8.92579 46.4916 9.03603 46.7161C10.1556 48.7865 11.5256 50.7072 13.1142 52.4336C13.2908 52.6107 13.3976 52.847 13.4145 53.0983C13.4313 53.3496 13.3572 53.5985 13.2059 53.7983L11.6766 55.9281C11.5897 56.0401 11.5265 56.1691 11.4911 56.3071C11.4556 56.445 11.4487 56.5889 11.4707 56.7297C11.4928 56.8705 11.5432 57.0051 11.619 57.1252C11.6948 57.2452 11.7943 57.3481 11.9111 57.4273L17.0088 61.1907C17.119 61.2772 17.2455 61.3398 17.3805 61.3748C17.5155 61.4098 17.6561 61.4163 17.7937 61.394C17.9312 61.3717 18.0628 61.3211 18.1804 61.2452C18.2979 61.1694 18.3988 61.0699 18.477 60.9529L20.0063 58.8127C20.149 58.6055 20.3616 58.4585 20.6039 58.3994C20.8463 58.3404 21.1015 58.3734 21.3215 58.4922C23.4434 59.5044 25.6841 60.2375 27.9893 60.6737C28.2343 60.7089 28.4583 60.8331 28.6196 61.0233C28.7809 61.2135 28.8685 61.4568 28.8661 61.7076V64.3958C28.8661 64.67 28.9735 64.933 29.1647 65.1269C29.3559 65.3207 29.6152 65.4297 29.8856 65.4297H36.2068C36.4772 65.4297 36.7365 65.3207 36.9277 65.1269C37.1189 64.933 37.2263 64.67 37.2263 64.3958V61.718C37.2239 61.4671 37.3115 61.2239 37.4728 61.0337C37.6341 60.8434 37.8582 60.7192 38.1031 60.6841C40.3908 60.2436 42.6142 59.5106 44.7199 58.5025C44.9399 58.3837 45.1952 58.3507 45.4375 58.4098C45.6798 58.4688 45.8924 58.6158 46.0351 58.8231L47.5645 60.9632C47.6426 61.0802 47.7435 61.1797 47.8611 61.2556C47.9786 61.3314 48.1102 61.3821 48.2478 61.4044C48.3853 61.4266 48.526 61.4201 48.661 61.3851C48.7959 61.3502 48.9224 61.2875 49.0326 61.201L54.1303 57.4376C54.2592 57.3699 54.3723 57.2751 54.4621 57.1595C54.5519 57.0438 54.6163 56.9101 54.6511 56.7672C54.6858 56.6243 54.6901 56.4755 54.6636 56.3308C54.637 56.1861 54.5804 56.0488 54.4973 55.9281L52.968 53.7983C52.8168 53.5985 52.7426 53.3496 52.7595 53.0983C52.7764 52.847 52.8832 52.6107 53.0598 52.4336C54.6484 50.7072 56.0184 48.7865 57.1379 46.7161C57.2482 46.4916 57.4351 46.3154 57.664 46.2203C57.8928 46.1252 58.1479 46.1177 58.3818 46.1991L60.8593 47.0159C60.9902 47.064 61.1295 47.0843 61.2686 47.0756C61.4076 47.0669 61.5434 47.0295 61.6676 46.9655C61.7918 46.9016 61.9017 46.8125 61.9906 46.7038C62.0796 46.5951 62.1456 46.4691 62.1847 46.3335L64.1422 40.2335C64.1896 40.1007 64.2096 39.9595 64.201 39.8185C64.1925 39.6775 64.1556 39.5398 64.0925 39.4139C64.0295 39.2879 63.9416 39.1764 63.8344 39.0862C63.7273 38.996 63.603 38.9291 63.4693 38.8895L60.9918 38.0727C60.7524 38.0004 60.5474 37.8415 60.4158 37.6262C60.2843 37.4108 60.2353 37.154 60.2781 36.9044C60.5772 34.5638 60.5772 32.1938 60.2781 29.8532C60.2342 29.6063 60.2804 29.3517 60.4079 29.1367C60.5355 28.9218 60.7358 28.7612 60.9714 28.6849ZM33.087 57.1585C28.9738 57.161 24.9329 56.0625 21.3725 53.9741L20.1388 55.4629C19.9461 55.6944 19.7056 55.8802 19.4343 56.007C19.163 56.1339 18.8675 56.1987 18.5687 56.1969C18.4233 56.2172 18.2758 56.2172 18.1303 56.1969C17.7666 56.1157 17.4317 55.9349 17.1621 55.6743C16.8925 55.4136 16.6985 55.0831 16.601 54.7185L14.9799 48.5151C11.4702 44.213 9.56526 38.7957 9.59874 33.2123C9.63222 27.629 11.602 22.2356 15.1631 17.9771C18.7241 13.7186 23.6493 10.8667 29.0756 9.92088C34.502 8.97509 40.0835 9.9958 44.8423 12.8042L46.0657 11.3257C46.3059 11.037 46.6193 10.8206 46.9722 10.6998C47.325 10.5791 47.7037 10.5586 48.0672 10.6406C48.4307 10.7226 48.7651 10.9041 49.0342 11.1652C49.3032 11.4263 49.4966 11.7571 49.5933 12.1218L51.2246 18.3252C54.0336 21.8085 55.8103 26.0285 56.3484 30.495C56.8865 34.9615 56.1639 39.4912 54.2645 43.5578C52.3651 47.6244 49.367 51.0611 45.6183 53.4686C41.8696 55.8761 37.5242 57.1556 33.087 57.1585Z" fill="white"/>
</svg>
