<svg width="68" height="68" viewBox="0 0 68 68" fill="none" xmlns="http://www.w3.org/2000/svg">
<path d="M34.9525 6.46526H36.0007V9.94862C37.3666 9.72849 38.766 9.61003 40.1938 9.61003C41.6215 9.61003 43.0209 9.72849 44.3868 9.94862V6.46526H45.4351C46.5934 6.46526 47.5316 5.52706 47.5316 4.36874C47.5316 3.21041 46.5934 2.27222 45.4351 2.27222H34.9525C33.7941 2.27222 32.856 3.21041 32.856 4.36874C32.856 5.52706 33.7941 6.46526 34.9525 6.46526Z" fill="white"/>
<path d="M61.6015 20.7101L63.2924 19.0235C63.2714 15.5548 60.4547 12.7549 56.986 12.7549H56.9661L55.3078 14.4132C57.7471 16.1397 59.8771 18.2698 61.6015 20.7101Z" fill="white"/>
<path d="M25.1036 14.3986L23.4599 12.7549H23.44C19.9713 12.7549 17.1546 15.5558 17.1337 19.0235L18.8025 20.6881C20.53 18.2509 22.6622 16.1219 25.1036 14.3986Z" fill="white"/>
<path d="M25.7926 50.9964C24.8775 50.6956 24.1563 50.0194 23.8145 49.1399C23.7705 49.0257 23.7244 48.9146 23.6762 48.8035C23.303 47.9449 23.3365 46.9627 23.7674 46.1084C23.9875 45.6733 23.9036 45.1482 23.5588 44.8033L22.8208 44.0653C22.4749 43.7204 21.9507 43.6355 21.5157 43.8567C20.6614 44.2875 19.6781 44.3211 18.8196 43.9479C18.7095 43.9007 18.5973 43.8546 18.4852 43.8106C17.6057 43.4689 16.9296 42.7477 16.6287 41.8336C16.4767 41.3692 16.0459 41.0579 15.5584 41.0579H14.5144C14.0269 41.0579 13.5971 41.3692 13.4441 41.8325C13.1433 42.7477 12.4661 43.4689 11.5866 43.8106C11.4744 43.8546 11.3623 43.8997 11.2511 43.9479C10.3947 44.3211 9.4104 44.2886 8.55607 43.8567C8.11894 43.6355 7.59586 43.7204 7.25099 44.0653L6.51406 44.8043C6.16918 45.1492 6.08532 45.6744 6.30546 46.1094C6.73734 46.9638 6.76983 47.946 6.39665 48.8055C6.34948 48.9146 6.30336 49.0267 6.25933 49.1389C5.91655 50.0194 5.19535 50.6966 4.28127 50.9964C3.81689 51.1484 3.50555 51.5792 3.50555 52.0667V53.1108C3.50555 53.5982 3.81689 54.028 4.28022 54.181C5.19535 54.4819 5.91655 55.158 6.25828 56.0375C6.30231 56.1518 6.34843 56.2629 6.39665 56.374C6.76983 57.2325 6.73629 58.2147 6.30546 59.0691C6.08532 59.5041 6.16918 60.0282 6.51406 60.3731L7.25308 61.1121C7.59796 61.458 8.12104 61.5409 8.55712 61.3207C9.0173 61.088 9.51523 60.9717 10.01 60.9717C10.4346 60.9717 10.857 61.0576 11.2532 61.2306C11.3623 61.2777 11.4744 61.3239 11.5866 61.3679C12.4671 61.7107 13.1443 62.4308 13.4441 63.3449C13.5971 63.8093 14.0269 64.1206 14.5144 64.1206H15.5584C16.0459 64.1206 16.4757 63.8093 16.6287 63.346C16.9296 62.4308 17.6057 61.7096 18.4852 61.3679C18.5994 61.3239 18.7106 61.2777 18.8217 61.2295C19.6802 60.8584 20.6624 60.8899 21.5168 61.3207C21.9518 61.5409 22.4759 61.457 22.8208 61.1121L23.5598 60.3731C23.9047 60.0282 23.9885 59.5041 23.7684 59.0691C23.3365 58.2147 23.304 57.2325 23.6772 56.3729C23.7244 56.2639 23.7705 56.1518 23.8145 56.0396C24.1573 55.1591 24.8775 54.4819 25.7916 54.1821C26.2559 54.029 26.5673 53.5992 26.5673 53.1118V52.0677C26.5673 51.5792 26.2559 51.1484 25.7926 50.9964ZM15.0364 58.8783C11.5625 58.8783 8.74685 56.0627 8.74685 52.5887C8.74685 49.1148 11.5625 46.2992 15.0364 46.2992C18.5103 46.2992 21.326 49.1148 21.326 52.5887C21.326 56.0627 18.5103 58.8783 15.0364 58.8783Z" fill="white"/>
<path d="M20.3247 36.8649C20.4138 38.5106 20.7136 40.1449 21.2199 41.7497C22.3091 41.4667 23.4821 41.7623 24.3029 42.5842L24.4706 42.7519V41.0579H29.7119V29.527H33.9049V41.0579H38.0979V25.334H42.291V41.0579H46.484V31.6236H50.6771V41.0579H55.9184V43.1544H24.8742L25.0419 43.3221C26.0293 44.3085 26.2694 45.8097 25.6394 47.055C25.4895 47.3506 25.4759 47.6839 25.5995 47.9701C25.6593 48.1064 25.7149 48.2437 25.7683 48.3821C25.8019 48.468 25.8679 48.5341 25.9224 48.6064L28.3345 46.1944L29.8167 47.6766L27.7118 49.7815C28.2936 50.3591 28.6437 51.1505 28.6584 52.0091C31.7707 54.2345 35.3651 55.4945 39.1452 55.6916V51.5405H41.2417V55.6801C45.9421 55.4337 50.2074 53.5584 53.4937 50.5992L50.5701 47.6756L52.0524 46.1933L54.976 49.1169C57.9363 45.8306 59.8106 41.5653 60.0569 36.8649H55.9184V34.7683H60.0579C59.8116 30.0679 57.9363 25.8026 54.977 22.5163L52.0534 25.4399L50.5712 23.9576L53.4948 21.034C50.2085 18.0738 45.9431 16.1995 41.2427 15.9531V20.0927H39.1462V15.9531C34.4458 16.1995 30.1804 18.0748 26.8942 21.034L29.8177 23.9576L28.3355 25.4399L25.4119 22.5163C22.4516 25.8026 20.5773 30.0679 20.331 34.7683H24.4706V36.8649H20.3247Z" fill="white"/>
<path d="M40.1937 11.7065C26.8997 11.7065 16.0837 22.5225 16.0837 35.8165C16.0837 36.8868 16.1781 37.9759 16.3269 39.064C17.3888 39.325 18.2662 40.1039 18.6195 41.1773C18.6897 41.3933 18.8323 41.5568 18.999 41.6889C18.458 39.7601 18.1803 37.7925 18.1803 35.8165C18.1803 23.6777 28.0549 13.8031 40.1937 13.8031C52.3326 13.8031 62.2072 23.6777 62.2072 35.8165C62.2072 47.9554 52.3326 57.83 40.1937 57.83C35.9766 57.83 31.9324 56.6391 28.3956 54.3749C28.1104 55.0437 27.6104 55.6045 26.9552 55.9525C30.8883 58.5491 35.4304 59.9265 40.1937 59.9265C53.4877 59.9265 64.3037 49.1105 64.3037 35.8165C64.3037 22.5225 53.4877 11.7065 40.1937 11.7065Z" fill="white"/>
<path d="M15.0362 54.6852C16.1941 54.6852 17.1327 53.7466 17.1327 52.5887C17.1327 51.4308 16.1941 50.4922 15.0362 50.4922C13.8783 50.4922 12.9397 51.4308 12.9397 52.5887C12.9397 53.7466 13.8783 54.6852 15.0362 54.6852Z" fill="white"/>
</svg>
