<svg width="62" height="63" viewBox="0 0 62 63" fill="none" xmlns="http://www.w3.org/2000/svg">
<path fill-rule="evenodd" clip-rule="evenodd" d="M4.04043 42.2033H8.87115C9.20235 42.2033 9.47246 42.4734 9.47246 42.8046V53.1766C9.47246 53.5078 9.20235 53.7779 8.87115 53.7779H4.04043C3.70923 53.7779 3.43912 53.5078 3.43912 53.1766V42.8046C3.43912 42.4734 3.70923 42.2033 4.04043 42.2033ZM49.7096 37.4114C50.8254 37.6769 51.891 38.1194 52.8677 38.7207L54.92 37.8092L57.3387 40.2279L56.4275 42.2795C57.029 43.2563 57.4715 44.3224 57.737 45.4386L59.8308 46.2444V49.665L57.7365 50.4711C57.471 51.5869 57.0286 52.6526 56.4272 53.6293L57.3387 55.6815L54.92 58.1002L52.8684 57.1889C51.8916 57.7906 50.8255 58.233 49.7093 58.4985L48.9036 60.5923H45.483L44.6768 58.498C43.5609 58.2325 42.4954 57.7901 41.5187 57.1887L39.4664 58.1002L37.0477 55.6815L37.959 53.6299C37.3574 52.6531 36.9151 51.587 36.6494 50.4708L34.5556 49.665V46.2444L36.6497 45.4384C36.9152 44.3225 37.3576 43.2568 37.9591 42.28L37.0477 40.2279L39.4664 37.8092L41.5187 38.7207C42.4954 38.1194 43.561 37.6769 44.677 37.4114L45.4831 35.3171H48.9036L49.7096 37.4114ZM47.1932 41.9893C43.8984 41.9893 41.2278 44.6599 41.2278 47.9548C41.2278 51.2497 43.8984 53.9202 47.1932 53.9202C50.488 53.9202 53.1586 51.2497 53.1586 47.9548C53.1586 44.6599 50.488 41.9893 47.1932 41.9893ZM51.5175 3.03804L52.8038 6.42596C52.8425 6.52782 52.9325 6.59324 53.0413 6.59853L56.6609 6.77496C56.9071 6.78698 57.0078 7.09702 56.8158 7.25144L53.9912 9.52176C53.9063 9.58995 53.8719 9.69578 53.9005 9.80089L54.8512 13.2979C54.9158 13.5356 54.652 13.7273 54.4459 13.5924L51.4138 11.6076C51.3227 11.5479 51.2114 11.5479 51.1203 11.6076L48.0883 13.5924C47.8821 13.7275 47.6183 13.5358 47.683 13.2979L48.6337 9.80089C48.6622 9.69578 48.6279 9.58995 48.543 9.52176L45.7184 7.25144C45.5264 7.09702 45.6271 6.78698 45.8732 6.77496L49.4927 6.59853C49.6016 6.59324 49.6915 6.52782 49.7303 6.42596L51.0166 3.03804C51.1034 2.80894 51.4305 2.80894 51.5175 3.03804ZM3.11982 37.395C9.78899 35.0725 16.6601 32.0878 23.4604 28.2118C29.6858 24.6636 35.8505 20.3703 41.7456 15.158L41.4339 17.2977C41.3593 17.8228 41.7244 18.3091 42.2495 18.3838C42.7745 18.4585 43.2609 18.0934 43.3355 17.5683L44.0311 12.7864C44.115 12.193 43.6366 11.6621 43.0321 11.6929L38.2071 11.9548C37.6778 11.9817 37.2706 12.4327 37.2975 12.962C37.3245 13.4913 37.7754 13.8985 38.3047 13.8714L40.432 13.756C34.6508 18.8627 28.6103 23.068 22.5133 26.5431C15.8191 30.3586 9.05467 33.2968 2.48832 35.5836C1.98815 35.758 1.72394 36.3049 1.89832 36.805C2.0727 37.3053 2.61953 37.5694 3.11982 37.395ZM53.6823 18.4134H48.8516C48.5204 18.4134 48.2503 18.6835 48.2503 19.0147V33.3929H50.2247L51.16 35.8228C51.7801 36.0257 52.384 36.2761 52.9658 36.5716L54.2837 35.9863V19.0147C54.2837 18.6835 54.0135 18.4134 53.6823 18.4134ZM37.6489 24.11C37.3177 24.11 37.0476 24.3801 37.0476 24.7113V37.5069L39.0399 35.5145L41.4205 36.5717C41.9567 36.2994 42.5117 36.0653 43.0809 35.8716V24.7113C43.0809 24.3801 42.8108 24.11 42.4796 24.11H37.6489ZM31.277 29.8065C31.6082 29.8065 31.8784 30.0766 31.8784 30.4078V53.1766C31.8784 53.5078 31.6082 53.7779 31.277 53.7779H26.4463C26.1151 53.7779 25.845 53.5078 25.845 53.1766V30.4078C25.845 30.0766 26.1151 29.8065 26.4463 29.8065H31.277ZM20.0742 36.1389C20.4054 36.1389 20.6755 36.409 20.6755 36.7402V53.1766C20.6755 53.5078 20.4054 53.7779 20.0742 53.7779C18.4639 53.7779 16.8537 53.7779 15.2434 53.7779C14.9122 53.7779 14.6421 53.5078 14.6421 53.1766C14.6421 47.3339 14.6421 42.5829 14.6421 36.7402C14.6421 36.409 14.9122 36.1389 15.2434 36.1389H20.0742Z" fill="white"/>
</svg>
