<svg width="58" height="58" viewBox="0 0 58 58" fill="none" xmlns="http://www.w3.org/2000/svg">
<path fill-rule="evenodd" clip-rule="evenodd" d="M28.9309 41.545C27.7283 40.8386 26.3741 39.9945 24.9408 39.0349C24.3016 37.1575 23.133 36.3584 21.7029 35.153C20.0382 33.7501 17.9196 31.9646 16.1887 29.9238C15.491 29.0348 13.8914 28.6919 12.8238 28.9372C11.9897 28.034 11.2013 27.1073 10.4759 26.1622L10.5047 18.6185C10.5144 16.0355 9.78907 12.1002 6.52856 11.9963C6.41204 11.9927 6.29586 11.9948 6.18023 12.0026C8.15614 2.25042 20.1575 -1.37901 29.398 8.01702C38.6374 -1.37801 50.6375 2.25019 52.6141 12.0026C52.499 11.9949 52.3833 11.9927 52.2672 11.9963C49.0067 12.1002 48.2813 16.0356 48.2911 18.6185L48.3198 26.1615C47.5946 27.1069 46.8063 28.0338 45.9723 28.9374C44.9047 28.6917 43.3049 29.0348 42.6072 29.9238C40.8761 31.9645 38.7576 33.7501 37.093 35.153C35.6627 36.3584 34.4942 37.1576 33.855 39.0352C32.4216 39.9949 31.0676 40.8386 29.865 41.545C29.5688 41.7188 29.2271 41.7188 28.9309 41.545ZM35.1587 42.5926L35.1661 48.68H44.241V48.4545C44.241 48.2096 44.3403 47.9878 44.5008 47.8274L44.4983 47.8249L53.3393 38.9838C54.4375 37.8858 54.9943 36.5651 54.9503 35.0072L54.3966 15.4611C54.3698 14.5126 53.2288 13.7412 52.323 13.77C50.2897 13.8349 50.0595 17.2024 50.0648 18.6186L50.1053 29.2365C50.1132 31.3509 49.1397 33.1347 47.7021 34.642C46.3068 36.2125 44.7468 37.6258 43.2622 39.1105C42.9146 39.4582 42.3509 39.4582 42.0033 39.1105C41.6557 38.7628 41.6557 38.1992 42.0033 37.8516C43.4568 36.3981 44.9894 35.0216 46.3575 33.4847C46.9521 32.692 47.0904 31.8472 46.3447 31.1016C45.6716 30.4286 44.6343 30.5034 43.9398 31.0996C42.134 33.2222 39.9507 35.0623 38.2337 36.5094C35.7323 38.6174 35.1547 39.2583 35.1587 42.5926ZM32.7366 50.4398C32.0273 50.4337 31.4419 51.0092 31.4358 51.7185L31.4115 54.5428C31.4054 55.2521 31.9809 55.8375 32.6902 55.8436L47.3614 55.9696C48.0709 55.9757 48.6562 55.4003 48.6622 54.6909L48.6865 51.8667C48.6926 51.1573 48.1172 50.5718 47.4078 50.5658C42.5473 50.5241 37.6561 50.482 32.7366 50.4398ZM5.45663 38.9838L14.2953 47.8272C14.4558 47.9877 14.5551 48.2094 14.5551 48.4543V48.7579L23.6298 48.6799L23.6373 42.5925C23.6416 39.1547 23.0232 38.5832 20.5623 36.5092C18.8452 35.0621 16.662 33.2219 14.8562 31.0993C14.1617 30.5033 13.1243 30.4284 12.4512 31.1013C11.7054 31.8471 11.8439 32.6919 12.4385 33.4845C13.8067 35.0214 15.3392 36.3979 16.7926 37.8514C17.1403 38.1991 17.1403 38.7627 16.7926 39.1103C16.445 39.458 15.8813 39.458 15.5336 39.1103C14.1224 37.6989 12.1434 36.0616 11.0154 34.5499C9.61591 32.8363 8.68187 31.5945 8.69055 29.2364L8.73106 18.6185C8.7364 17.2023 8.50614 13.8348 6.47291 13.7699C5.5697 13.7412 4.42611 14.5098 4.39929 15.461L3.84541 35.0071C3.80167 36.565 4.35856 37.8859 5.45663 38.9838ZM26.0594 50.4398L11.3881 50.5658C10.6786 50.5719 10.1032 51.1573 10.1094 51.8667L10.1336 54.6909C10.1397 55.4004 10.7251 55.9757 11.4345 55.9696L26.1058 55.8436C26.8151 55.8375 27.3906 55.2521 27.3845 54.5428L27.3602 51.7185C27.3542 51.0091 26.7687 50.4337 26.0594 50.4398ZM25.2304 52.8319C25.4094 53.2822 25.1895 53.7925 24.7391 53.9716C24.2888 54.1506 23.7785 53.9307 23.5994 53.4803C23.4204 53.0299 23.6403 52.5197 24.0907 52.3406C24.5409 52.1616 25.0513 52.3815 25.2304 52.8319ZM33.5656 52.8319C33.7447 52.3815 34.2549 52.1616 34.7053 52.3406C35.1557 52.5197 35.3757 53.0299 35.1965 53.4803C35.0175 53.9307 34.5072 54.1506 34.0568 53.9716C33.6066 53.7925 33.3865 53.2822 33.5656 52.8319ZM21.0288 26.5629C21.0374 26.3524 21.071 26.1406 21.1305 25.9311C21.5497 24.4565 22.341 23.1644 23.3846 22.1441C22.1895 21.1087 20.6305 20.4821 18.9251 20.4821C15.8093 20.4821 13.1821 22.5736 12.3703 25.4292C12.2079 26.0006 12.6328 26.563 13.2268 26.563L21.0288 26.5629ZM35.4114 22.1441C36.455 23.1644 37.2462 24.4565 37.6655 25.931C37.725 26.1405 37.7586 26.3522 37.7672 26.5629H45.5692C46.1632 26.5629 46.5881 26.0005 46.4257 25.4291C45.6139 22.5736 42.9868 20.482 39.871 20.482C38.1655 20.482 36.6064 21.1087 35.4114 22.1441ZM18.9251 12.4788C17.0223 12.4788 15.4799 14.0212 15.4799 15.9239C15.4799 17.8266 17.0223 19.3692 18.9251 19.3692C20.8278 19.3692 22.3703 17.8267 22.3703 15.9239C22.3703 14.0212 20.8278 12.4788 18.9251 12.4788ZM39.871 12.4788C37.9682 12.4788 36.4257 14.0212 36.4257 15.9239C36.4257 17.8266 37.9682 19.3692 39.871 19.3692C41.7736 19.3692 43.3161 17.8267 43.3161 15.9239C43.3161 14.0212 41.7736 12.4788 39.871 12.4788ZM23.6996 27.5517H35.0963C35.6902 27.5517 36.1151 26.9893 35.9527 26.4179C35.1409 23.5624 32.5138 21.4708 29.398 21.4708C26.2822 21.4708 23.655 23.5623 22.8431 26.4179C22.6808 26.9893 23.1057 27.5517 23.6996 27.5517ZM29.398 13.4676C27.4953 13.4676 25.9527 15.01 25.9527 16.9127C25.9527 18.8155 27.4952 20.358 29.398 20.358C31.3007 20.358 32.8431 18.8155 32.8431 16.9127C32.8432 15.0101 31.3008 13.4676 29.398 13.4676Z" fill="white"/>
</svg>
