<svg width="41" height="41" viewBox="0 0 41 41" fill="none" xmlns="http://www.w3.org/2000/svg">
<path d="M38.1298 18.527L37.0681 14.2801C37.3584 14.2184 37.5762 13.9609 37.5762 13.6524V12.9676C37.5762 11.4809 36.3666 10.2714 34.88 10.2714H30.0439V8.85896C30.0439 8.12737 29.4487 7.53223 28.7171 7.53223H4.06573C3.33413 7.53223 2.73899 8.12737 2.73899 8.85896V20.4999C2.73899 20.8544 3.02639 21.1419 3.38098 21.1419C3.73548 21.1419 4.02296 20.8545 4.02296 20.4999V8.85896C4.02296 8.83534 4.0421 8.8162 4.06573 8.8162H28.7171C28.7407 8.8162 28.7598 8.83534 28.7598 8.85896V20.5001C28.7598 20.8546 29.0472 21.1421 29.4018 21.1421C29.7563 21.1421 30.0438 20.8547 30.0438 20.5001V19.7723H37.6167C37.6173 19.7723 37.6178 19.7725 37.6184 19.7725C37.619 19.7725 37.6196 19.7724 37.6201 19.7724C38.552 19.773 39.3433 20.3847 39.615 21.2275H37.6189C37.2644 21.2275 36.9769 21.5149 36.9769 21.8695V23.239C36.9769 24.3482 37.8792 25.2505 38.9884 25.2505H39.7159V28.0751H38.0373C37.4859 26.4829 35.9724 25.336 34.195 25.336C32.4177 25.336 30.9041 26.4829 30.3527 28.0751H30.0436V23.2389C30.0436 22.8844 29.7562 22.5969 29.4016 22.5969C29.0471 22.5969 28.7597 22.8843 28.7597 23.2389V28.0749H15.4404C14.889 26.4827 13.3755 25.3358 11.5981 25.3358C9.82078 25.3358 8.30714 26.4827 7.75581 28.0749H4.06573C4.0421 28.0749 4.02296 28.0558 4.02296 28.0321V26.6198H6.8048C7.1593 26.6198 7.44679 26.3324 7.44679 25.9778C7.44679 25.6232 7.15938 25.3358 6.8048 25.3358H0.641986C0.28748 25.3358 0 25.6232 0 25.9778C0 26.3324 0.2874 26.6198 0.641986 26.6198H2.73907V28.0321C2.73907 28.7637 3.33421 29.3589 4.06581 29.3589H7.53351C7.53335 29.3731 7.53239 29.3873 7.53239 29.4016C7.53239 31.6435 9.35633 33.4674 11.5981 33.4674C13.8399 33.4674 15.6638 31.6435 15.6638 29.4016C15.6638 29.3872 15.6629 29.3731 15.6627 29.3589H30.1304C30.1303 29.3731 30.1293 29.3873 30.1293 29.4016C30.1293 31.6435 31.9533 33.4674 34.195 33.4674C36.4368 33.4674 38.2608 31.6435 38.2608 29.4016C38.2608 29.3872 38.2598 29.3731 38.2596 29.3589H40.3579C40.7124 29.3589 40.9999 29.0715 40.9999 28.7169V21.8693C41 20.1787 39.7526 18.7741 38.1298 18.527ZM30.0439 11.5553H34.88C35.6587 11.5553 36.2923 12.1889 36.2923 12.9676V13.0104H30.0439V11.5553ZM30.0439 18.4884V14.2943H35.7482L36.7968 18.4884H30.0439ZM11.5981 32.1836C10.0642 32.1836 8.81628 30.9358 8.81628 29.4018C8.81628 27.8678 10.0642 26.62 11.5981 26.62C13.132 26.62 14.3799 27.8678 14.3799 29.4018C14.3799 30.9358 13.132 32.1836 11.5981 32.1836ZM34.1952 32.1836C32.6613 32.1836 31.4134 30.9358 31.4134 29.4018C31.4134 27.8678 32.6613 26.62 34.1952 26.62C35.7291 26.62 36.977 27.8678 36.977 29.4018C36.977 30.9358 35.7291 32.1836 34.1952 32.1836ZM39.7161 23.9665H38.9885C38.5873 23.9665 38.2609 23.6401 38.2609 23.2389V22.5113H39.716V23.9665H39.7161Z" fill="white"/>
<path d="M11.5981 28.0752C10.8665 28.0752 10.2714 28.6703 10.2714 29.4019C10.2714 30.1335 10.8665 30.7287 11.5981 30.7287C12.3297 30.7287 12.9248 30.1335 12.9248 29.4019C12.9248 28.6703 12.3297 28.0752 11.5981 28.0752Z" fill="white"/>
<path d="M34.1952 28.0752C33.4636 28.0752 32.8685 28.6703 32.8685 29.4019C32.8685 30.1335 33.4636 30.7287 34.1952 30.7287C34.9268 30.7287 35.5219 30.1335 35.5219 29.4019C35.5219 28.6703 34.9268 28.0752 34.1952 28.0752Z" fill="white"/>
<path d="M26.6628 25.3359H17.0762C16.7217 25.3359 16.4342 25.6233 16.4342 25.9779C16.4342 26.3325 16.7216 26.6199 17.0762 26.6199H26.6628C27.0173 26.6199 27.3048 26.3325 27.3048 25.9779C27.3048 25.6233 27.0174 25.3359 26.6628 25.3359Z" fill="white"/>
<path d="M10.2286 22.5972H2.01148C1.65697 22.5972 1.36949 22.8846 1.36949 23.2392C1.36949 23.5937 1.65689 23.8811 2.01148 23.8811H10.2286C10.5831 23.8811 10.8706 23.5937 10.8706 23.2392C10.8706 22.8846 10.5831 22.5972 10.2286 22.5972Z" fill="white"/>
<path d="M22.3235 13.883C22.0728 13.6324 21.6663 13.6324 21.4156 13.8831L15.7067 19.592L12.7368 16.6221C12.4861 16.3714 12.0796 16.3714 11.829 16.6221C11.5783 16.8728 11.5783 17.2792 11.829 17.53L15.2528 20.9538C15.3781 21.0792 15.5424 21.1418 15.7067 21.1418C15.8709 21.1418 16.0353 21.0792 16.1606 20.9538L22.3234 14.791C22.5741 14.5402 22.5741 14.1338 22.3235 13.883Z" fill="white"/>
</svg>
