<svg width="38" height="38" viewBox="0 0 38 38" fill="none" xmlns="http://www.w3.org/2000/svg">
<g clip-path="url(#clip0_156_92)">
<path d="M36.4007 28.5334L27.978 20.0982C27.8383 19.9655 27.6529 19.8914 27.4602 19.8914C27.2675 19.8914 27.0821 19.9655 26.9424 20.0982L25.2721 21.7686L23.3053 19.8059L28.0532 15.033C30.0367 14.9286 32.68 14.9369 32.7969 14.9202C33.2897 14.8451 34.2334 14.0851 37.4279 9.78813C37.5166 9.66663 37.5662 9.52095 37.5699 9.37055V7.43714C37.5696 7.30843 37.5355 7.18206 37.471 7.07067C37.4065 6.95928 37.3139 6.86677 37.2024 6.80242C37.0911 6.73666 36.9642 6.70197 36.8349 6.70197C36.7057 6.70197 36.5788 6.73666 36.4675 6.80242L33.0892 8.80681C32.8011 8.89868 31.5358 9.19516 30.4543 7.65429C29.2851 5.98396 29.807 5.1822 30.5462 4.55165C31.6498 3.76316 32.7957 3.03549 33.9787 2.37187C34.0855 2.30948 34.175 2.22143 34.2392 2.1157C34.3033 2.00997 34.3401 1.8899 34.3461 1.76637C34.3508 1.64302 34.3242 1.5205 34.2687 1.41024C34.2132 1.29997 34.1306 1.20557 34.0288 1.13582C33.9244 1.06483 31.3813 -0.634726 27.0134 1.05648C23.6393 2.35934 23.1675 4.0756 23.1257 4.26769L22.4075 9.34132L17.6303 14.1226L13.3626 9.84242C13.5476 9.37722 13.6439 8.88151 13.6466 8.38088C13.6476 7.86095 13.5455 7.34598 13.3463 6.86576C13.147 6.38553 12.8545 5.94956 12.4857 5.58308C12.4508 5.54642 12.4115 5.51417 12.3688 5.48703L5.14043 0.785054C5.00077 0.692622 4.83345 0.651278 4.66681 0.668019C4.50016 0.684759 4.34442 0.758556 4.22593 0.876922L1.22351 3.87934C1.10514 3.99783 1.03135 4.15358 1.01461 4.32022C0.997866 4.48687 1.03921 4.65418 1.13164 4.79385L5.84615 12.0097C5.87456 12.0515 5.90671 12.0906 5.94219 12.1266C6.30783 12.4951 6.74314 12.7871 7.22276 12.9857C7.70238 13.1843 8.21672 13.2854 8.73582 13.2833C9.23774 13.2841 9.7352 13.1891 10.2015 13.0035L14.4692 17.2837L9.24109 22.5119L4.2301 23.2218H4.17582C3.98373 23.2677 2.27164 23.7354 0.96461 27.1136C-0.70572 31.4815 0.96461 34.0204 1.04813 34.129C1.11716 34.2299 1.21014 34.312 1.31872 34.3682C1.42731 34.4243 1.54811 34.4526 1.67032 34.4506C1.79318 34.4462 1.91289 34.4105 2.01812 34.3469C2.12335 34.2834 2.21061 34.194 2.27164 34.0873C2.9358 32.9046 3.66346 31.7588 4.45142 30.6547C5.08197 29.9156 5.89626 29.402 7.55824 30.5587C9.10329 31.6486 8.81098 32.9222 8.71076 33.1936L6.70637 36.5719C6.63956 36.6824 6.60342 36.8088 6.60168 36.9379C6.59994 37.0671 6.63266 37.1944 6.69647 37.3067C6.76027 37.419 6.85286 37.5122 6.9647 37.5768C7.07654 37.6415 7.20358 37.6751 7.33274 37.6743H9.26615C9.41741 37.6716 9.5638 37.6204 9.68373 37.5281C14.0683 34.2877 14.7657 33.3523 14.8242 32.8804C14.8242 32.7802 14.8242 30.1369 14.9286 28.1576L20.1442 22.967L22.1319 24.9255L20.4615 26.5958C20.3249 26.7335 20.2481 26.9196 20.2481 27.1136C20.2481 27.3076 20.3249 27.4938 20.4615 27.6314L28.8967 36.0624C29.8441 37.0085 31.1282 37.5398 32.467 37.5398C33.8059 37.5398 35.09 37.0085 36.0374 36.0624L36.4174 35.6824C36.8873 35.2142 37.2602 34.6577 37.5146 34.0451C37.769 33.4324 37.9 32.7755 37.9 32.1121C37.9 31.4487 37.769 30.7918 37.5146 30.1791C37.2602 29.5664 36.8873 29.01 36.4174 28.5418L36.4007 28.5334ZM23.6143 10.2057C23.7251 10.0918 23.7968 9.94554 23.8189 9.78813L24.558 4.59341C24.604 4.47648 25.0925 3.38659 27.5396 2.43868C28.9221 1.83717 30.4485 1.64583 31.9367 1.88747C31.1243 2.35756 30.3419 2.87776 29.5941 3.44505C27.5855 5.16549 28.3037 7.14066 29.2558 8.4978C30.7466 10.6149 32.8011 10.5105 33.6738 10.1681C33.7072 10.1681 36.1083 8.73582 36.1083 8.73582V9.15341C34.7387 10.9908 33.0892 13.0327 32.5297 13.4837C31.5692 13.4336 28.8967 13.5631 27.6982 13.6299C27.5172 13.6385 27.3459 13.7145 27.218 13.8429L22.2738 18.762L21.0211 17.5092L25.7899 12.7196C25.8676 12.6543 25.9309 12.5737 25.9757 12.4826C26.0206 12.3916 26.046 12.2923 26.0503 12.1909C26.0546 12.0895 26.0378 11.9884 26.0009 11.8939C25.9639 11.7993 25.9077 11.7136 25.8359 11.642C25.764 11.5704 25.678 11.5145 25.5833 11.478C25.4886 11.4415 25.3874 11.425 25.2861 11.4298C25.1847 11.4345 25.0855 11.4603 24.9946 11.5055C24.9038 11.5507 24.8234 11.6143 24.7585 11.6923L19.9771 16.4694L18.6659 15.1541L23.6143 10.2057ZM8.72329 11.8218C8.08807 11.8249 7.47618 11.5825 7.01538 11.1453L2.6767 4.49319L4.83977 2.33011L11.4919 6.68132C11.9343 7.15456 12.1762 7.78078 12.1669 8.42856C12.1576 9.07634 11.8977 9.69532 11.4418 10.1556L10.4855 11.1119C10.2543 11.3434 9.97957 11.5268 9.6771 11.6515C9.37464 11.7762 9.05046 11.8398 8.72329 11.8385V11.8218ZM13.7092 27.3266C13.5804 27.4525 13.5043 27.6227 13.4963 27.8026C13.4294 29.0053 13.3 31.6736 13.3543 32.6341C12.9033 33.1936 10.8488 34.8473 9.01977 36.2169H8.60219C8.60219 36.2169 10.022 33.8242 10.047 33.7824C10.402 32.9055 10.5105 30.8593 8.3767 29.3644C7.01955 28.4123 5.03604 27.6941 3.31977 29.7026C2.75294 30.4508 2.23276 31.2331 1.76219 32.0453C1.5202 30.5567 1.71304 29.0298 2.31758 27.6481C3.26966 25.1802 4.36373 24.7251 4.4723 24.6624L9.68791 23.9233C9.84585 23.903 9.99265 23.831 10.1055 23.7187L15.5007 18.3152L16.816 19.6264L11.542 24.9046C11.4734 24.9719 11.419 25.0521 11.3818 25.1407C11.3446 25.2292 11.3254 25.3243 11.3254 25.4203C11.3254 25.5164 11.3446 25.6114 11.3818 25.7C11.419 25.7885 11.4734 25.8688 11.542 25.936C11.6092 26.0046 11.6895 26.0591 11.778 26.0962C11.8666 26.1334 11.9616 26.1526 12.0577 26.1526C12.1537 26.1526 12.2488 26.1334 12.3373 26.0962C12.4259 26.0591 12.5061 26.0046 12.5734 25.936L17.8475 20.662L19.1002 21.9147L13.7092 27.3266ZM11.4459 12.1934L11.5211 12.1266L12.4732 11.1745L12.54 11.0993L24.2323 22.7917L23.1382 23.8857L11.4459 12.1934ZM35.3692 34.6593L34.9892 35.0435C34.3147 35.7147 33.4019 36.0914 32.4503 36.0914C31.4988 36.0914 30.5859 35.7147 29.9114 35.0435L21.9982 27.1095L23.6686 25.4391L25.7982 23.3136L27.4686 21.6433L35.4026 29.5774C35.7354 29.9125 35.9986 30.3102 36.1772 30.7475C36.3557 31.1847 36.446 31.653 36.4429 32.1253C36.4398 32.5976 36.3433 33.0646 36.1591 33.4995C35.9748 33.9344 35.7064 34.3286 35.3692 34.6593Z" fill="white"/>
<path d="M27.0092 25.6311C26.942 25.5625 26.8617 25.5081 26.7732 25.4709C26.6846 25.4337 26.5895 25.4146 26.4935 25.4146C26.3975 25.4146 26.3024 25.4337 26.2138 25.4709C26.1253 25.5081 26.045 25.5625 25.9778 25.6311C25.8414 25.768 25.7648 25.9535 25.7648 26.1468C25.7648 26.3401 25.8414 26.5255 25.9778 26.6625L32.2415 32.9262C32.3095 32.9942 32.3903 33.0482 32.4791 33.085C32.5679 33.1218 32.6632 33.1407 32.7593 33.1407C32.8555 33.1407 32.9507 33.1218 33.0396 33.085C33.1284 33.0482 33.2091 32.9942 33.2771 32.9262C33.3451 32.8582 33.3991 32.7775 33.4359 32.6887C33.4727 32.5998 33.4916 32.5046 33.4916 32.4084C33.4916 32.3123 33.4727 32.2171 33.4359 32.1282C33.3991 32.0394 33.3451 31.9586 33.2771 31.8906L27.0092 25.6311Z" fill="white"/>
</g>
<defs>
<clipPath id="clip0_156_92">
<rect width="38" height="38" fill="white"/>
</clipPath>
</defs>
</svg>
