<svg width="41" height="41" viewBox="0 0 41 41" fill="none" xmlns="http://www.w3.org/2000/svg">
<g clip-path="url(#clip0_156_71)">
<mask id="mask0_156_71" style="mask-type:luminance" maskUnits="userSpaceOnUse" x="0" y="0" width="41" height="41">
<path d="M41 0H0V41H41V0Z" fill="white"/>
</mask>
<g mask="url(#mask0_156_71)">
<path d="M18.9188 27.8085C19.2319 27.4954 19.2319 26.9887 18.9188 26.6755C18.6054 26.3634 18.0976 26.3634 17.7839 26.6755C17.4711 26.9887 17.4711 27.4954 17.7839 27.8085C18.0976 28.1207 18.6054 28.1207 18.9188 27.8085Z" fill="white"/>
<path d="M15.1202 8.80609C15.1202 13.6618 19.0783 17.6125 23.9435 17.6125C28.8087 17.6125 32.7668 13.6618 32.7668 8.80609C32.7668 3.95042 28.8087 0 23.9435 0C19.0783 0 15.1202 3.95042 15.1202 8.80609ZM31.1628 8.80609C31.1628 12.7791 27.9242 16.0113 23.9435 16.0113C19.9628 16.0113 16.7243 12.7791 16.7243 8.80609C16.7243 4.83347 19.9628 1.60125 23.9435 1.60125C27.9242 1.60125 31.1628 4.83347 31.1628 8.80609Z" fill="white"/>
<path d="M9.27935 40.7632C9.59032 41.0761 10.0964 41.0795 10.4114 40.7699L14.3004 36.9461C14.961 36.2868 15.1619 35.3105 14.8714 34.4618L15.7078 33.6567C16.1583 33.2225 16.7512 32.9832 17.3781 32.9832H28.0415C29.9333 32.9832 31.7213 32.2581 33.0769 30.9415C33.1326 30.8874 32.6534 31.4507 40.3516 22.2681C41.4934 20.9199 41.3225 18.8953 39.9705 17.7546C38.6268 16.6244 36.614 16.7868 35.4691 18.1118L30.7359 22.9671C30.1383 22.233 29.2268 21.7754 28.2421 21.7754H19.2975C18.0247 21.2439 16.6742 20.9749 15.2807 20.9749C11.4181 20.9749 8.04549 22.7554 6.23546 26.0936C5.47292 25.9495 4.66869 26.1797 4.09012 26.7571L0.274267 30.5768C-0.0372697 30.8886 -0.0378966 31.3932 0.273013 31.706L9.27935 40.7632ZM15.2804 22.5758C16.509 22.5758 17.6968 22.8227 18.8116 23.3094C18.9132 23.3538 19.0226 23.3766 19.1332 23.3766H28.2421C29.1118 23.3766 29.8464 24.0845 29.8464 24.9775C29.8464 25.8606 29.1268 26.5788 28.2421 26.5788H21.6976C21.2547 26.5788 20.8955 26.9373 20.8955 27.3793C20.8955 27.8216 21.2547 28.1797 21.6976 28.1797H28.2421C30.0113 28.1797 31.4505 26.7434 31.4505 24.9775C31.4505 24.8368 31.4405 24.6973 31.4223 24.559C36.001 19.8616 36.6467 19.2016 36.6742 19.1688C37.2459 18.4953 38.2608 18.4099 38.9358 18.978C39.6116 19.5482 39.6972 20.5604 39.1239 21.2376L31.9294 29.8217C30.8789 30.8282 29.4995 31.3822 28.0415 31.3822H17.3781C16.3332 31.3822 15.344 31.7811 14.5937 32.5046L13.912 33.1611L7.62797 26.8897C9.09666 24.1399 11.8525 22.5758 15.2804 22.5758ZM5.22532 27.8885C5.48985 27.6245 5.89603 27.5769 6.21854 27.7759C6.35738 27.8604 5.95871 27.4982 13.1661 34.6814C13.4867 35.0014 13.4695 35.5113 13.1705 35.8097L9.85509 39.0694L1.97362 31.1432L5.22532 27.8885Z" fill="white"/>
<path d="M22.981 4.00293V4.94103C22.0474 5.27136 21.3766 6.16128 21.3766 7.20512C21.3766 8.52925 22.456 9.60684 23.7831 9.60684C24.2253 9.60684 24.5851 9.9659 24.5851 10.4073C24.5851 10.8487 24.2253 11.2078 23.7831 11.2078C23.4405 11.2078 23.0703 10.9929 22.7416 10.6022C22.4563 10.2637 21.9505 10.2203 21.6114 10.5046C21.2723 10.7892 21.2284 11.2941 21.5136 11.6326C21.9423 12.1415 22.4466 12.4962 22.981 12.6751V13.6095C22.981 14.0518 23.3402 14.41 23.7831 14.41C24.2259 14.41 24.5851 14.0518 24.5851 13.6095V12.6714C25.5187 12.3407 26.1895 11.4508 26.1895 10.4073C26.1895 9.0829 25.1101 8.00555 23.7831 8.00555C23.3408 8.00555 22.981 7.64649 22.981 7.20512C22.981 6.76375 23.3408 6.40434 23.7831 6.40434C24.0673 6.40434 24.3673 6.54917 24.6506 6.82287C24.969 7.13036 25.4768 7.12191 25.7848 6.80442C26.093 6.4866 26.0844 5.97986 25.7664 5.67238C25.3592 5.27918 24.9518 5.05677 24.5851 4.9354V4.00293C24.5851 3.56062 24.2259 3.20215 23.7831 3.20215C23.3402 3.20215 22.981 3.56062 22.981 4.00293Z" fill="white"/>
</g>
</g>
<defs>
<clipPath id="clip0_156_71">
<rect width="41" height="41" fill="white"/>
</clipPath>
</defs>
</svg>
