<svg width="41" height="41" viewBox="0 0 41 41" fill="none" xmlns="http://www.w3.org/2000/svg">
<g clip-path="url(#clip0_156_80)">
<path d="M20.5003 0.638428C12.0165 0.638428 5.12622 7.53343 5.12622 16.0172C5.12622 24.501 12.0165 31.3913 20.5003 31.3913C28.9841 31.3913 35.8743 24.501 35.8743 16.0172C35.8743 7.53343 28.9841 0.638428 20.5003 0.638428ZM20.5003 1.91999C28.2916 1.91999 34.5928 8.22587 34.5928 16.0172C34.5928 23.8086 28.2916 30.1097 20.5003 30.1097C12.7089 30.1097 6.40779 23.8086 6.40779 16.0172C6.40779 8.22587 12.7089 1.91999 20.5003 1.91999Z" fill="white"/>
<path d="M20.5003 4.48315C14.1394 4.48315 8.97095 9.6563 8.97095 16.0172C8.97095 22.3782 14.1394 27.5466 20.5003 27.5466C26.8612 27.5466 32.0297 22.3782 32.0297 16.0172C32.0297 9.6563 26.8612 4.48315 20.5003 4.48315ZM20.5003 5.76472C26.1688 5.76472 30.7481 10.3487 30.7481 16.0172C30.7481 21.6857 26.1688 26.265 20.5003 26.265C14.8318 26.265 10.2478 21.6857 10.2478 16.0172C10.2478 10.3487 14.8318 5.76472 20.5003 5.76472Z" fill="white"/>
<path d="M8.38927 24.8228L2.37395 35.2408C2.31313 35.3475 2.28426 35.4694 2.29075 35.592C2.29725 35.7146 2.33885 35.8328 2.4106 35.9325C2.48235 36.0321 2.58123 36.109 2.69546 36.1541C2.80969 36.1992 2.93447 36.2104 3.05493 36.1866L9.18374 34.976L11.1983 40.892C11.2377 41.009 11.3101 41.1122 11.4068 41.189C11.5035 41.2658 11.6203 41.3131 11.7433 41.3251C11.8662 41.3371 11.9899 41.3133 12.0996 41.2566C12.2094 41.1999 12.3003 41.1127 12.3616 41.0055L18.254 30.8002L17.1427 30.1571L11.9549 39.1375L10.2147 34.0302C10.1645 33.884 10.0631 33.7608 9.92928 33.6835C9.79543 33.6061 9.63814 33.5798 9.4864 33.6093L4.18989 34.6544L9.49586 25.4659L8.38927 24.8228Z" fill="white"/>
<path d="M32.6113 24.8228L31.5047 25.4659L36.8107 34.6544L31.5142 33.6093C31.3624 33.5798 31.2052 33.6061 31.0713 33.6835C30.9375 33.7608 30.8361 33.884 30.7859 34.0302L29.0456 39.1375L23.8579 30.1571L22.7466 30.8002L28.6389 41.0055C28.7002 41.1127 28.7912 41.1999 28.9009 41.2566C29.0107 41.3133 29.1344 41.3371 29.2573 41.3251C29.3802 41.3131 29.4971 41.2658 29.5938 41.189C29.6904 41.1122 29.7629 41.009 29.8023 40.892L31.8168 34.976L37.9457 36.1866C38.0661 36.2104 38.1909 36.1992 38.3051 36.1541C38.4194 36.1091 38.5182 36.0321 38.59 35.9325C38.6617 35.8328 38.7033 35.7146 38.7098 35.592C38.7163 35.4694 38.6875 35.3475 38.6266 35.2408L32.6113 24.8228Z" fill="white"/>
<path d="M20.5003 8.8811C20.0458 8.8811 19.9682 9.08003 19.8477 9.20268C19.1476 10.0119 18.2059 11.678 17.8568 12.2293C16.6789 12.5239 15.4279 12.7673 14.3667 13.1845C14.2129 13.2612 14.0012 13.2771 13.8607 13.7094C13.7203 14.1417 13.8806 14.2757 13.9601 14.4282C14.4761 15.2927 15.9428 16.9169 16.2253 17.2562C16.1537 18.5461 15.9759 19.7085 16.055 20.8692C16.0804 21.0392 16.0278 21.2451 16.3955 21.5123C16.7632 21.7795 16.9447 21.6684 17.1143 21.64C18.123 21.3958 19.9341 20.5885 20.5003 20.3632C21.6366 20.7952 22.7665 21.3515 23.8863 21.64C24.0559 21.6684 24.2374 21.7795 24.6051 21.5123C24.9728 21.2451 24.9202 21.0392 24.9456 20.8692C25.0314 19.8696 24.8047 17.6951 24.7753 17.2562C25.43 16.4905 26.1309 15.6699 26.7473 14.8822C27.0995 14.5 27.2428 14.0937 27.1398 13.7094C27.0368 13.3249 26.7877 13.2612 26.6338 13.1845C25.5026 12.7362 24.3037 12.522 23.1438 12.2293C22.4768 11.2111 21.8911 10.0944 21.1529 9.20268C21.0324 9.08003 20.9548 8.8811 20.5003 8.8811ZM20.5003 10.437C21.063 11.2583 21.5348 12.0934 22.0703 12.9102C22.1567 13.032 22.1869 13.116 22.3919 13.2649C22.5969 13.4138 22.6797 13.4142 22.8222 13.4588C23.7802 13.7145 24.7149 13.9225 25.6597 14.1871C25.0594 14.9813 24.4053 15.6841 23.7964 16.4475C23.7073 16.5674 23.6383 16.618 23.56 16.859C23.4817 17.0999 23.5063 17.1825 23.508 17.3319C23.5555 18.3242 23.6476 19.2774 23.6924 20.2591C22.6286 19.891 21.4925 19.2942 20.5003 19.0816C20.2469 19.0816 20.1783 19.1332 20.0368 19.1809C19.1079 19.5318 18.2277 19.9139 17.3082 20.2591C17.3396 19.2622 17.4474 18.3095 17.4926 17.3319C17.4943 17.1826 17.5189 17.0999 17.4406 16.859C17.3623 16.618 17.2933 16.5674 17.2042 16.4475C16.5964 15.682 15.8765 14.869 15.3409 14.1871C16.2954 13.9048 17.2356 13.7126 18.1783 13.4588C18.3209 13.4142 18.4037 13.4138 18.6087 13.2649C18.8137 13.116 18.8438 13.032 18.9303 12.9102C19.2681 12.4123 19.5977 11.8545 19.8855 11.3828C20.106 11.0241 20.3207 10.69 20.5003 10.437Z" fill="white"/>
</g>
<defs>
<clipPath id="clip0_156_80">
<rect width="41" height="41" fill="white"/>
</clipPath>
</defs>
</svg>
