<svg width="36" height="37" viewBox="0 0 36 37" fill="none" xmlns="http://www.w3.org/2000/svg">
<g id="blueprint (1) 1" clip-path="url(#clip0_0_145)">
<g id="Group">
<g id="Page-1_5_">
<g id="_x30_06---Draw-Blueprint">
<path id="Shape_33_" d="M21.7703 12.7082L21.5292 14.85C21.5151 14.9813 21.5614 15.1119 21.6551 15.205C21.748 15.3022 21.8818 15.349 22.0151 15.3309L24.1613 15.0866C24.2041 15.0816 24.2413 15.0615 24.2822 15.0526L21.803 12.5734C21.7895 12.6177 21.7785 12.6627 21.7703 12.7082Z" fill="#777777"/>
<path id="Rectangle-path_3_" d="M22.5614 11.5595L29.4186 4.70232L32.1717 7.45543L25.3145 14.3126L22.5614 11.5595Z" fill="#777777"/>
<path id="Rectangle-path_1_" d="M30.3051 3.80458L31.2377 2.87192L33.9895 5.62368L33.0568 6.55634L30.3051 3.80458Z" fill="#777777"/>
<path id="Shape_32_" d="M35.8062 3.80912C35.9318 3.68793 36.0029 3.52102 36.0032 3.34653C36.0035 3.16933 35.9325 2.99946 35.8062 2.8751L33.9891 1.05737C33.8653 0.931043 33.6959 0.859872 33.519 0.859756C33.3457 0.860392 33.1798 0.930697 33.0589 1.05488L32.1324 1.97948L34.8841 4.73116L35.8062 3.80912Z" fill="#777777"/>
<path id="Shape_31_" d="M4.53399 27.2943H5.79275C6.14034 27.2943 6.42214 27.0125 6.42214 26.6649V1.48911C6.4222 1.14152 6.1404 0.859726 5.79275 0.859726H4.53399C2.44921 0.861807 0.759711 2.5513 0.757629 4.63608V29.0025C1.71205 27.9163 3.08807 27.2939 4.53399 27.2943Z" fill="#777777"/>
<path id="Shape_30_" d="M4.71645 36.1059H35.3743C35.7219 36.1059 36.0037 35.8241 36.0037 35.4765V10.3007C36.0037 9.95312 35.7219 9.67133 35.3743 9.67133H31.7238L25.7483 15.6506C25.3561 16.0352 24.8465 16.2778 24.3007 16.3397C22.1765 16.5783 22.157 16.5947 21.9732 16.5947H12.7161V23.518H27.8216V20.371C27.8216 20.0234 28.1034 19.7416 28.451 19.7416C28.7985 19.7416 29.0803 20.0234 29.0803 20.371V29.8119C29.0803 30.5072 28.5168 31.0707 27.8216 31.0707H15.2336C14.886 31.0707 14.6042 30.7889 14.6042 30.4413C14.6042 30.0937 14.886 29.8119 15.2336 29.8119H19.6394V24.7768H12.7161V33.5883C12.7161 33.9359 12.4343 34.2177 12.0867 34.2177C11.7391 34.2177 11.4573 33.9359 11.4573 33.5883V16.5947H9.56911C9.22152 16.5947 8.93973 16.3129 8.93973 15.9653C8.93973 15.6177 9.22152 15.3359 9.56911 15.3359H20.3374C20.2791 15.1341 20.2593 14.9231 20.2789 14.714L20.5175 12.5697C20.5789 12.0123 20.831 11.4934 21.2312 11.1007L22.6606 9.67133H7.6809V26.665C7.6809 27.7078 6.83552 28.5532 5.79269 28.5532H4.53393C2.44914 28.5553 0.75965 30.2448 0.757568 32.3295V32.468C0.898061 34.5413 2.63866 36.1408 4.71645 36.1059Z" fill="#777777"/>
<path id="Rectangle-path_2_" d="M20.9009 24.7768H27.8242V29.812H20.9009V24.7768Z" fill="#777777"/>
</g>
</g>
</g>
</g>
<defs>
<clipPath id="clip0_0_145">
<rect width="35.2467" height="35.2467" fill="white" transform="translate(0.762115 0.859436)"/>
</clipPath>
</defs>
</svg>
