<svg width="44" height="44" viewBox="0 0 44 44" fill="none" xmlns="http://www.w3.org/2000/svg">
<g id="house (2) 1" clip-path="url(#clip0_0_221)">
<g id="Group">
<g id="Group_2">
<path id="Vector" d="M2.21838 21.501L20.1869 20.7883L31.1198 8.15979L41.5699 23.8174L43.6239 23.5226L31.3321 6.06517L18.7793 8.38967V6.15848L17.7448 5.94482L14.6292 6.60336V9.15774L10.4441 9.93393L0.352295 19.1008V21.5145C0.352295 21.5145 1.38405 21.4888 2.21838 21.501Z" fill="#777777"/>
<path id="Vector_2" d="M31.0508 9.24158L20.4979 21.4334L3.26636 22.1189V36.7502L19.0984 38.6514V38.6568L28.9954 37.502V26.1026L33.5497 26.0959V36.9692L40.8464 36.0754V23.9188L31.0508 9.24158ZM9.98834 32.185L5.40019 31.8889V26.0337L9.98834 26.0364V32.185ZM17.7448 32.6529L12.4102 32.3108V26.0093L17.7448 26.0107V32.6529ZM26.7493 32.3797L21.1173 32.7489V26.0688L26.7493 26.0648V32.3797ZM39.528 31.5792L35.2752 31.8591V26.0783L39.528 26.0729V31.5792Z" fill="#777777"/>
</g>
</g>
</g>
<defs>
<clipPath id="clip0_0_221">
<rect width="43.2716" height="43.2716" fill="white" transform="translate(0.352295 0.665771)"/>
</clipPath>
</defs>
</svg>
