<svg width="18" height="18" viewBox="0 0 18 18" fill="none" xmlns="http://www.w3.org/2000/svg">
<g clip-path="url(#clip0_0_78)">
<path d="M16.9453 6.32812H8.50781C7.9264 6.32812 7.45312 6.8014 7.45312 7.38281V8.4375H16.9453C17.5267 8.4375 18 7.96423 18 7.38281C18 6.8014 17.5267 6.32812 16.9453 6.32812Z" fill="white"/>
<path d="M16.9453 9.49219H6.39844V0H0L1.1868 9.49219H3.23438C3.23438 13.0382 6.34563 14.2966 6.39844 14.3336V16.9453H4.28906V18C4.48594 18 16.1127 18 15.8906 18V16.9453H13.7812V14.3336C13.8868 14.2386 16.9453 13.0792 16.9453 9.49219ZM3.23438 2.10938H4.28906V4.21875H3.23438V2.10938Z" fill="white"/>
</g>
<defs>
<clipPath id="clip0_0_78">
<rect width="18" height="18" fill="white"/>
</clipPath>
</defs>
</svg>
