<svg width="18" height="18" viewBox="0 0 18 18" fill="none" xmlns="http://www.w3.org/2000/svg">
<g clip-path="url(#clip0_0_82)">
<path d="M13.125 0C11.8884 0.00160297 10.6986 0.472536 9.79585 1.31764C8.89313 2.16274 8.34485 3.319 8.26181 4.55278C7.26833 4.69577 6.33643 5.11977 5.57594 5.77482C4.81545 6.42987 4.25806 7.28867 3.96947 8.25H14.0305C13.7433 7.29316 13.1897 6.4378 12.4345 5.78384C11.6793 5.12987 10.7535 4.70429 9.76547 4.55681C9.84835 3.69404 10.26 2.89622 10.9151 2.32869C11.5702 1.76115 12.4185 1.4674 13.2843 1.5083C14.1501 1.54921 14.9669 1.92163 15.5656 2.54841C16.1642 3.17518 16.4988 4.00826 16.5 4.875V18H18V4.875C17.9985 3.58252 17.4844 2.34339 16.5705 1.42947C15.6566 0.515549 14.4175 0.00146398 13.125 0Z" fill="white"/>
<path d="M3 9H15V10.5H3V9Z" fill="white"/>
<path d="M9 17.25C9.41421 17.25 9.75 16.9142 9.75 16.5C9.75 16.0858 9.41421 15.75 9 15.75C8.58579 15.75 8.25 16.0858 8.25 16.5C8.25 16.9142 8.58579 17.25 9 17.25Z" fill="white"/>
<path d="M9 15C9.41421 15 9.75 14.6642 9.75 14.25C9.75 13.8358 9.41421 13.5 9 13.5C8.58579 13.5 8.25 13.8358 8.25 14.25C8.25 14.6642 8.58579 15 9 15Z" fill="white"/>
<path d="M12 17.25C12.4142 17.25 12.75 16.9142 12.75 16.5C12.75 16.0858 12.4142 15.75 12 15.75C11.5858 15.75 11.25 16.0858 11.25 16.5C11.25 16.9142 11.5858 17.25 12 17.25Z" fill="white"/>
<path d="M12 15C12.4142 15 12.75 14.6642 12.75 14.25C12.75 13.8358 12.4142 13.5 12 13.5C11.5858 13.5 11.25 13.8358 11.25 14.25C11.25 14.6642 11.5858 15 12 15Z" fill="white"/>
<path d="M6 17.25C6.41421 17.25 6.75 16.9142 6.75 16.5C6.75 16.0858 6.41421 15.75 6 15.75C5.58579 15.75 5.25 16.0858 5.25 16.5C5.25 16.9142 5.58579 17.25 6 17.25Z" fill="white"/>
<path d="M6 15C6.41421 15 6.75 14.6642 6.75 14.25C6.75 13.8358 6.41421 13.5 6 13.5C5.58579 13.5 5.25 13.8358 5.25 14.25C5.25 14.6642 5.58579 15 6 15Z" fill="white"/>
<path d="M9 12.75C9.41421 12.75 9.75 12.4142 9.75 12C9.75 11.5858 9.41421 11.25 9 11.25C8.58579 11.25 8.25 11.5858 8.25 12C8.25 12.4142 8.58579 12.75 9 12.75Z" fill="white"/>
<path d="M12 12.75C12.4142 12.75 12.75 12.4142 12.75 12C12.75 11.5858 12.4142 11.25 12 11.25C11.5858 11.25 11.25 11.5858 11.25 12C11.25 12.4142 11.5858 12.75 12 12.75Z" fill="white"/>
<path d="M6 12.75C6.41421 12.75 6.75 12.4142 6.75 12C6.75 11.5858 6.41421 11.25 6 11.25C5.58579 11.25 5.25 11.5858 5.25 12C5.25 12.4142 5.58579 12.75 6 12.75Z" fill="white"/>
</g>
<defs>
<clipPath id="clip0_0_82">
<rect width="18" height="18" fill="white"/>
</clipPath>
</defs>
</svg>
