<svg width="18" height="18" viewBox="0 0 18 18" fill="none" xmlns="http://www.w3.org/2000/svg">
<g clip-path="url(#clip0_0_94)">
<path d="M17.4727 7.45312H9.52734V2.10938C9.52734 1.52782 10.0005 1.05469 10.582 1.05469C11.1636 1.05469 11.6367 1.52782 11.6367 2.10938V3.69141C11.6367 3.98264 11.8728 4.21875 12.1641 4.21875C12.4553 4.21875 12.6914 3.98264 12.6914 3.69141V2.10938C12.6914 0.946266 11.7451 0 10.582 0C9.41892 0 8.47266 0.946266 8.47266 2.10938V4.21875H7.41797V3.69141C7.41797 3.40017 7.18186 3.16406 6.89062 3.16406C6.59939 3.16406 6.36328 3.40017 6.36328 3.69141V5.80078C6.36328 6.09202 6.59939 6.32812 6.89062 6.32812C7.18186 6.32812 7.41797 6.09202 7.41797 5.80078V5.27344H8.47266V7.45312H0.527344C0.236109 7.45312 0 7.68923 0 7.98047C0 8.2717 0.236109 8.50781 0.527344 8.50781H1.11336C1.37609 11.5485 3.84943 14.8359 6.89062 14.8359H11.1094C14.1499 14.8359 16.6238 11.5485 16.8866 8.50781H17.4727C17.7639 8.50781 18 8.2717 18 7.98047C18 7.68923 17.7639 7.45312 17.4727 7.45312Z" fill="white"/>
<path d="M7.41797 16.418C7.41797 17.2902 8.12777 18 9 18C9.87223 18 10.582 17.2902 10.582 16.418V15.8906H7.41797V16.418Z" fill="white"/>
</g>
<defs>
<clipPath id="clip0_0_94">
<rect width="18" height="18" fill="white"/>
</clipPath>
</defs>
</svg>
