<svg width="18" height="18" viewBox="0 0 18 18" fill="none" xmlns="http://www.w3.org/2000/svg">
<g clip-path="url(#clip0_0_139)">
<path d="M1.26461 17.3547C1.08645 17.3547 0.942001 17.4992 0.942001 17.6773V18H6.74897V17.6773C6.74897 17.4992 6.60452 17.3547 6.42636 17.3547H1.26461Z" fill="white"/>
<path d="M1.58722 7.67651H6.10375V16.7096H1.58722V7.67651Z" fill="white"/>
<path d="M11.8578 2.27859C12.7133 2.03789 13.2141 1.1515 12.9786 0.29457L12.897 0L2.8638 2.14186C2.12123 2.30363 1.59053 2.95941 1.58722 3.7193V7.03125H6.10375V4.62034C6.1047 4.18652 6.3936 3.8061 6.81119 3.68874L11.8578 2.27859Z" fill="white"/>
<path d="M14.0313 7.21713L6.74898 9.16949V12.5085L17.0482 9.74855L16.797 8.81301C16.4722 7.61 15.2354 6.89641 14.0313 7.21713Z" fill="white"/>
<path d="M16.5922 10.5403L13.4757 11.3752L13.5589 11.6869C13.5811 11.7696 13.6353 11.8402 13.7095 11.8829C13.7837 11.9257 13.8718 11.9372 13.9545 11.915L16.4473 11.2468C16.6194 11.2008 16.7217 11.024 16.6757 10.852L16.5922 10.5403Z" fill="white"/>
<path d="M14.4916 16.7095C14.4916 17.4222 15.0694 18 15.782 18C16.4947 18 17.0725 17.4222 17.0725 16.7095C17.0725 16.2136 16.3627 14.9585 15.782 14.0642C15.2014 14.9585 14.4916 16.2136 14.4916 16.7095Z" fill="white"/>
</g>
<defs>
<clipPath id="clip0_0_139">
<rect width="18" height="18" fill="white"/>
</clipPath>
</defs>
</svg>
