<svg width="18" height="18" viewBox="0 0 18 18" fill="none" xmlns="http://www.w3.org/2000/svg">
<g clip-path="url(#clip0_0_109)">
<path d="M4.78125 7.03115H5.34375V7.3124C5.34375 7.38699 5.37338 7.45852 5.42613 7.51127C5.47887 7.56401 5.55041 7.59365 5.625 7.59365C5.69959 7.59365 5.77113 7.56401 5.82387 7.51127C5.87662 7.45852 5.90625 7.38699 5.90625 7.3124V6.1874C5.90625 6.1128 5.87662 6.04127 5.82387 5.98852C5.77113 5.93578 5.69959 5.90615 5.625 5.90615C5.55041 5.90615 5.47887 5.93578 5.42613 5.98852C5.37338 6.04127 5.34375 6.1128 5.34375 6.1874V6.46865H4.78125V2.5199C4.78089 2.47068 4.79376 2.42228 4.81849 2.37973C4.84323 2.33719 4.87893 2.30206 4.92188 2.27802C4.95613 2.25713 4.99467 2.24425 5.03461 2.24036C5.07455 2.23646 5.11485 2.24164 5.1525 2.25552C5.19927 2.14141 5.2587 2.03292 5.32969 1.93208L5.97375 1.0124C6.01383 0.954913 6.05801 0.900396 6.10594 0.84927L6.04688 0.81552C5.74763 0.642752 5.40819 0.551785 5.06265 0.551758C4.71712 0.551731 4.37766 0.642646 4.07839 0.815367C3.77912 0.988089 3.53058 1.23653 3.35774 1.53574C3.1849 1.83494 3.09386 2.17436 3.09375 2.5199V8.46552C3.65625 8.44865 4.21875 8.42052 4.78125 8.38677V7.03115Z" fill="white"/>
<path d="M3.96001 15.9976C4.07594 16.1138 4.20984 16.2107 4.35657 16.2844C4.57594 16.4363 4.59844 16.5797 4.59282 16.6726C4.58594 16.812 4.6073 16.9514 4.65562 17.0823C4.70394 17.2133 4.77823 17.3332 4.87403 17.4347C4.97229 17.5302 5.08914 17.6045 5.21732 17.653C5.3455 17.7015 5.48227 17.7231 5.61915 17.7165C5.75603 17.7099 5.8901 17.6753 6.01302 17.6147C6.13595 17.5541 6.24512 17.4689 6.33376 17.3644L6.94126 16.6022C7.06934 16.442 7.14233 16.2448 7.14938 16.0397H4.50563C4.32293 16.04 4.14049 16.0259 3.96001 15.9976Z" fill="white"/>
<path d="M10.8506 16.0397C10.8577 16.2447 10.9307 16.4419 11.0587 16.6022L11.6662 17.3643C11.7538 17.4705 11.8625 17.5573 11.9855 17.619C12.1085 17.6806 12.2431 17.7159 12.3805 17.7226C12.518 17.7292 12.6553 17.707 12.7837 17.6574C12.912 17.6078 13.0286 17.532 13.1259 17.4347C13.2217 17.3331 13.296 17.2133 13.3444 17.0823C13.3927 16.9513 13.4141 16.8119 13.4072 16.6725C13.4016 16.5797 13.4241 16.4362 13.6434 16.2843C13.8545 16.1786 14.0384 16.0256 14.1806 15.8372C13.7917 15.9719 13.3829 16.0404 12.9712 16.0397H10.8506Z" fill="white"/>
<path d="M1.20094 11.2584H1.13063C1.11558 11.2588 1.10051 11.2579 1.08563 11.2555L1.48501 13.0555C1.63516 13.744 2.01704 14.3601 2.56682 14.8008C3.11661 15.2416 3.801 15.4803 4.50563 15.4771H12.9713C13.6662 15.4785 14.3413 15.245 14.887 14.8147C15.4327 14.3844 15.8171 13.7823 15.9778 13.1062L16.9031 9.25586L16.3406 9.39648C11.3886 10.6308 6.30446 11.256 1.20094 11.2584Z" fill="white"/>
<path d="M17.6883 7.63477C17.6216 7.42616 17.4775 7.25101 17.2857 7.14535C17.0939 7.03968 16.8689 7.01151 16.6569 7.06664L15.7659 7.28555C10.9521 8.46655 6.01349 9.06346 1.05688 9.0634C0.848932 9.0818 0.654999 9.176 0.511983 9.32808C0.368966 9.48016 0.286847 9.67951 0.28125 9.8882C0.286863 10.1078 0.379319 10.3163 0.538354 10.4678C0.697389 10.6194 0.91003 10.7017 1.12967 10.6968L1.19942 10.6967C6.25746 10.6936 11.2963 10.0738 16.2043 8.85095L17.0851 8.63123C17.2969 8.57857 17.4793 8.44418 17.5923 8.25746C17.7053 8.07074 17.7398 7.84686 17.6883 7.63477Z" fill="white"/>
<path d="M5.60357 3.09645C5.62883 3.24209 5.68274 3.38127 5.76218 3.50593C5.84163 3.63058 5.94502 3.73823 6.06637 3.82263L6.29681 3.98399C6.41908 4.06931 6.57019 4.10268 6.71702 4.07678C6.86385 4.05089 6.99443 3.96784 7.08014 3.84584L8.37076 2.00276V2.00248C8.45605 1.88017 8.48938 1.72904 8.46343 1.5822C8.43748 1.43537 8.35438 1.30481 8.23233 1.21915L8.00217 1.05806C7.88116 0.9733 7.74463 0.913202 7.6004 0.881201C7.45616 0.849199 7.30704 0.845921 7.16153 0.871552C7.01603 0.897184 6.877 0.951224 6.75238 1.03059C6.62777 1.10995 6.52 1.21308 6.43524 1.33409L5.78979 2.25585C5.70474 2.37671 5.64449 2.51322 5.61252 2.65751C5.58056 2.80179 5.57752 2.95098 5.60357 3.09645Z" fill="white"/>
<path d="M8.23781 3.45667C8.18552 3.50998 8.15623 3.58167 8.15623 3.65635C8.15623 3.73102 8.18552 3.80271 8.23781 3.85602C8.26473 3.88142 8.29623 3.90146 8.33064 3.91508C8.36445 3.9295 8.40075 3.93716 8.4375 3.93761C8.48388 3.9376 8.52954 3.92616 8.57043 3.90428C8.61133 3.88241 8.6462 3.85078 8.67195 3.81221C8.6977 3.77363 8.71353 3.7293 8.71804 3.68314C8.72256 3.63698 8.71562 3.59042 8.69783 3.54759C8.68005 3.50476 8.65197 3.46697 8.61609 3.43759C8.58021 3.4082 8.53763 3.38812 8.49213 3.37913C8.44663 3.37014 8.39962 3.37251 8.35525 3.38603C8.31089 3.39956 8.27055 3.42382 8.23781 3.45667Z" fill="white"/>
<path d="M10.0659 5.2791C10.1353 5.27974 10.2024 5.25469 10.2544 5.20879C10.3051 5.16471 10.3387 5.10423 10.3494 5.03789C10.36 4.97155 10.3471 4.90357 10.3128 4.84581C10.2784 4.78805 10.2249 4.74418 10.1615 4.72185C10.0981 4.69953 10.0289 4.70017 9.96599 4.72366C9.90303 4.74716 9.85033 4.79201 9.81707 4.8504C9.78381 4.90878 9.77211 4.97699 9.78401 5.04312C9.79591 5.10925 9.83066 5.16911 9.88218 5.21223C9.93371 5.25536 9.99874 5.27903 10.0659 5.2791Z" fill="white"/>
<path d="M10.7155 6.11436C10.7717 6.11508 10.8268 6.09839 10.8732 6.06656C10.9039 6.04593 10.9302 6.01944 10.9507 5.98859C10.9711 5.95775 10.9853 5.92317 10.9923 5.88683C10.9994 5.8505 10.9992 5.81314 10.9917 5.77688C10.9843 5.74063 10.9698 5.70621 10.949 5.67559C10.9064 5.61465 10.8419 5.57265 10.7689 5.55848C10.696 5.5443 10.6204 5.55907 10.5581 5.59965C10.5274 5.62029 10.5011 5.64678 10.4806 5.67762C10.4602 5.70845 10.446 5.74302 10.4389 5.77934C10.4319 5.81567 10.432 5.85303 10.4394 5.88928C10.4468 5.92554 10.4613 5.95998 10.4821 5.99063C10.5076 6.029 10.5424 6.06041 10.5831 6.08201C10.6239 6.10361 10.6694 6.11472 10.7155 6.11436Z" fill="white"/>
<path d="M9.08981 4.08093C9.06585 4.10896 9.04776 4.14152 9.03661 4.17667C9.02547 4.21183 9.02149 4.24886 9.02492 4.28558C9.02836 4.3223 9.03913 4.35795 9.05659 4.39043C9.07406 4.42291 9.09787 4.45155 9.12662 4.47465H9.12359C9.17465 4.51812 9.23947 4.54206 9.30652 4.54222C9.34745 4.54247 9.38791 4.5335 9.4249 4.51598C9.46189 4.49846 9.49446 4.47284 9.5202 4.44101C9.54412 4.41279 9.56223 4.38011 9.57347 4.34486C9.58472 4.30961 9.58888 4.27249 9.58572 4.23563C9.58256 4.19876 9.57214 4.16289 9.55507 4.13007C9.53799 4.09725 9.51458 4.06813 9.48621 4.04439C9.45783 4.02064 9.42504 4.00275 9.38972 3.99173C9.3544 3.98072 9.31725 3.97679 9.28041 3.98019C9.24356 3.98359 9.20776 3.99424 9.17505 4.01153C9.14234 4.02881 9.11337 4.0524 9.08981 4.08093Z" fill="white"/>
<path d="M11.1937 6.4743C11.1761 6.47732 11.1591 6.48297 11.1432 6.49106C11.1252 6.49723 11.1081 6.50578 11.0923 6.51646L11.0503 6.55024C11.0255 6.57755 11.0055 6.6089 10.9913 6.64294C10.9768 6.67679 10.9692 6.71314 10.9688 6.74993C10.9698 6.8244 10.9989 6.89574 11.0503 6.94962C11.0636 6.9617 11.0776 6.97294 11.0923 6.98326C11.1081 6.99395 11.1252 7.00249 11.1431 7.00867C11.1591 7.01674 11.1761 7.02243 11.1937 7.02556C11.2123 7.02866 11.2311 7.03053 11.25 7.03118C11.287 7.03154 11.3238 7.02451 11.3581 7.0105C11.3923 6.9965 11.4235 6.97579 11.4497 6.9496C11.4759 6.92342 11.4966 6.89227 11.5106 6.85798C11.5246 6.8237 11.5316 6.78696 11.5312 6.74993C11.5322 6.713 11.5244 6.67637 11.5087 6.64295C11.4945 6.60891 11.4745 6.57756 11.4497 6.55025C11.4161 6.51815 11.3754 6.49451 11.3309 6.4813C11.2864 6.46809 11.2393 6.46569 11.1937 6.4743Z" fill="white"/>
<path d="M9 3.09368C9.05562 3.09346 9.10994 3.07682 9.15614 3.04585C9.20233 3.01487 9.23836 2.97095 9.25969 2.91958C9.28102 2.86821 9.2867 2.81169 9.27602 2.7571C9.26535 2.70251 9.23879 2.65229 9.19969 2.61274C9.14673 2.55978 9.0749 2.53003 9 2.53003C8.9251 2.53003 8.85327 2.55978 8.80031 2.61274C8.74735 2.6657 8.7176 2.73753 8.7176 2.81243C8.7176 2.88733 8.74735 2.95916 8.80031 3.01212C8.85424 3.06346 8.92555 3.09258 9 3.09368Z" fill="white"/>
<path d="M10.9773 4.07819C11.0234 4.11031 11.0785 4.12703 11.1346 4.12598C11.1947 4.12624 11.2532 4.10717 11.3016 4.07159C11.35 4.03601 11.3857 3.9858 11.4033 3.9284C11.421 3.87099 11.4197 3.80943 11.3996 3.75281C11.3796 3.6962 11.3419 3.64753 11.292 3.61401V3.61127C11.2296 3.57044 11.1536 3.55581 11.0805 3.57053C11.0074 3.58525 10.943 3.62815 10.9012 3.68996C10.8804 3.72036 10.8659 3.75458 10.8585 3.79064C10.8511 3.82669 10.8509 3.86387 10.858 3.89999C10.8651 3.93612 10.8793 3.97048 10.8997 4.00107C10.9202 4.03166 10.9466 4.05787 10.9773 4.07819Z" fill="white"/>
<path d="M12.0685 4.86287C12.134 4.86236 12.1973 4.83897 12.2474 4.79676C12.2975 4.75455 12.3313 4.69616 12.343 4.63168C12.3546 4.56719 12.3434 4.50067 12.3112 4.4436C12.279 4.38652 12.2279 4.34248 12.1667 4.31908C12.1055 4.29568 12.038 4.29439 11.976 4.31543C11.9139 4.33647 11.8612 4.37853 11.8268 4.43433C11.7925 4.49013 11.7787 4.55618 11.7879 4.62106C11.797 4.68594 11.8286 4.74558 11.877 4.78968C11.9296 4.83688 11.9978 4.86295 12.0685 4.86287Z" fill="white"/>
<path d="M12.8699 5.7401C12.9307 5.73957 12.9897 5.71991 13.0386 5.68394C13.0927 5.64364 13.1307 5.58537 13.1458 5.51959C13.1608 5.4538 13.152 5.3848 13.1208 5.32497C13.0896 5.26513 13.038 5.21837 12.9755 5.19307C12.9129 5.16777 12.8434 5.16558 12.7794 5.18691C12.7153 5.20823 12.661 5.25167 12.6261 5.30944C12.5912 5.3672 12.578 5.4355 12.5889 5.5021C12.5998 5.5687 12.6341 5.62924 12.6856 5.67285C12.7371 5.71647 12.8024 5.74031 12.8699 5.7401Z" fill="white"/>
<path d="M9.98163 3.50449C10.0192 3.52307 10.0606 3.5327 10.1025 3.53264C10.1659 3.53292 10.2275 3.51165 10.2773 3.47232C10.3271 3.43299 10.362 3.37792 10.3763 3.31614C10.3907 3.25436 10.3837 3.18954 10.3564 3.13229C10.3291 3.07504 10.2831 3.02876 10.2261 3.00104C10.193 2.98446 10.1569 2.97462 10.1199 2.97209C10.083 2.96956 10.0459 2.97439 10.0108 2.98629C9.97577 2.9982 9.94341 3.01695 9.91565 3.04145C9.88788 3.06596 9.86525 3.09573 9.84908 3.12905C9.8329 3.16236 9.8235 3.19855 9.82141 3.23553C9.81933 3.27251 9.8246 3.30953 9.83693 3.34445C9.84926 3.37937 9.8684 3.4115 9.89324 3.43897C9.91808 3.46644 9.94812 3.48871 9.98163 3.50449Z" fill="white"/>
<path d="M13.5 6.74997C13.5643 6.74934 13.6264 6.72646 13.6758 6.68523C13.7252 6.64399 13.7588 6.58694 13.7709 6.52376C13.7829 6.46057 13.7728 6.39515 13.7421 6.33861C13.7114 6.28206 13.6621 6.23788 13.6026 6.21355C13.543 6.18923 13.4769 6.18627 13.4154 6.20517C13.3539 6.22407 13.3009 6.26367 13.2653 6.31725C13.2297 6.37082 13.2137 6.43507 13.2201 6.49908C13.2265 6.56309 13.2548 6.62292 13.3003 6.66841C13.3539 6.72023 13.4254 6.74944 13.5 6.74997Z" fill="white"/>
<path d="M7.74838 4.26656C7.73404 4.2554 7.71787 4.2468 7.70059 4.24116C7.68378 4.23266 7.66568 4.22699 7.64703 4.22441C7.611 4.21589 7.57347 4.21589 7.53744 4.22441C7.51985 4.22742 7.50281 4.23307 7.4869 4.24116C7.46891 4.24734 7.45183 4.25588 7.43609 4.26656C7.42139 4.27693 7.40735 4.28821 7.39406 4.30034C7.34177 4.35365 7.31248 4.42534 7.31248 4.50001C7.31248 4.57469 7.34177 4.64638 7.39406 4.69969C7.40807 4.71094 7.42207 4.72221 7.43608 4.73334C7.45182 4.74402 7.4689 4.75256 7.48689 4.75874C7.50282 4.76681 7.51985 4.77251 7.53743 4.77563C7.55606 4.77874 7.57487 4.78062 7.59375 4.78127C7.61162 4.78076 7.62944 4.77888 7.64703 4.77565C7.66568 4.77295 7.68376 4.76725 7.70059 4.75876C7.71787 4.75312 7.73404 4.74452 7.74838 4.73335C7.76513 4.72223 7.77942 4.71097 7.79342 4.69971C7.81825 4.67235 7.83823 4.64095 7.85248 4.60687C7.86734 4.57319 7.87501 4.53678 7.87501 4.49996C7.87501 4.46315 7.86734 4.42674 7.85248 4.39305C7.83891 4.35866 7.81886 4.32719 7.79342 4.30035C7.77964 4.28754 7.76454 4.27621 7.74838 4.26656Z" fill="white"/>
<path d="M8.13373 5.01468C8.0883 5.051 8.05525 5.10051 8.03914 5.1564C8.02303 5.21229 8.02466 5.2718 8.04379 5.32673C8.06292 5.38165 8.09862 5.42929 8.14596 5.46308C8.1933 5.49687 8.24996 5.51514 8.30812 5.51538C8.37174 5.51589 8.43349 5.49396 8.48253 5.45344C8.51168 5.43085 8.53606 5.4027 8.55426 5.37062C8.57247 5.33854 8.58413 5.30317 8.58857 5.26655C8.59301 5.22994 8.59015 5.19281 8.58016 5.15731C8.57016 5.1218 8.55322 5.08864 8.53032 5.05972H8.5273C8.50476 5.03045 8.47657 5.00601 8.4444 4.98784C8.41224 4.96967 8.37675 4.95814 8.34004 4.95394C8.30334 4.94974 8.26616 4.95295 8.23072 4.96338C8.19528 4.97382 8.1623 4.99126 8.13373 5.01468Z" fill="white"/>
<path d="M9.12085 5.95686C9.09743 5.91291 9.06276 5.87596 9.02038 5.84979C8.97799 5.82363 8.92943 5.80919 8.87963 5.80795C8.82984 5.80671 8.78061 5.81871 8.73698 5.84274C8.69335 5.86676 8.65688 5.90194 8.6313 5.94468C8.60573 5.98742 8.59196 6.03618 8.5914 6.08599C8.59085 6.13579 8.60353 6.18485 8.62815 6.22815C8.65278 6.27144 8.68845 6.30742 8.73154 6.33241C8.77463 6.3574 8.82358 6.37049 8.87338 6.37036C8.92182 6.37007 8.96936 6.3573 9.01142 6.33329C9.05348 6.30928 9.08864 6.27483 9.11352 6.23327C9.13839 6.19171 9.15213 6.14445 9.15342 6.09603C9.1547 6.04761 9.14349 5.99968 9.12085 5.95686Z" fill="white"/>
<path d="M9.28125 7.31247C9.34557 7.31184 9.4077 7.28896 9.45707 7.24773C9.50645 7.20649 9.54003 7.14944 9.55211 7.08626C9.5642 7.02307 9.55404 6.95765 9.52337 6.90111C9.4927 6.84456 9.4434 6.80038 9.38385 6.77605C9.32429 6.75173 9.25816 6.74877 9.19667 6.76767C9.13518 6.78657 9.08213 6.82617 9.04652 6.87975C9.01092 6.93332 8.99495 6.99757 9.00134 7.06158C9.00773 7.12559 9.03607 7.18542 9.08156 7.23091C9.13552 7.2822 9.20681 7.31132 9.28125 7.31247Z" fill="white"/>
</g>
<defs>
<clipPath id="clip0_0_109">
<rect width="18" height="18" fill="white"/>
</clipPath>
</defs>
</svg>
