<svg width="18" height="18" viewBox="0 0 18 18" fill="none" xmlns="http://www.w3.org/2000/svg">
<g clip-path="url(#clip0_0_131)">
<path d="M8.03571 16.9617V17.357C8.03677 17.7116 8.32397 17.9988 8.67857 17.9999H9.32143C9.67603 17.9988 9.96323 17.7116 9.96428 17.357V16.9649C9.64916 17.0104 9.33125 17.0341 9.01286 17.0356C8.68578 17.0346 8.35921 17.0099 8.03571 16.9617Z" fill="white"/>
<path d="M9 11.8928C8.4681 11.8944 8.0373 12.3252 8.03571 12.8571V13.0757C8.35282 13.1426 8.67591 13.177 9 13.1785C9.32381 13.178 9.64678 13.1457 9.96428 13.0821V12.8571C9.96532 12.6011 9.86405 12.3552 9.68299 12.1741C9.50193 11.9931 9.25606 11.8918 9 11.8928Z" fill="white"/>
<path d="M14.5221 8.72025C13.9436 5.58632 12.15 1.92847 9 1.92847C5.85964 1.92847 4.06928 5.58632 3.49071 8.72025C3.28821 9.83883 3.09214 11.131 3.3525 12.3588C3.91178 14.9785 6.67928 16.3928 9 16.3928C11.3336 16.3928 14.1011 14.9785 14.6604 12.3588C14.9207 11.131 14.7246 9.83883 14.5221 8.72025ZM7.76796 15.2922C7.72784 15.4292 7.60216 15.5233 7.45939 15.5233C7.4288 15.5233 7.39837 15.5189 7.36907 15.5101C6.05761 15.1721 4.94423 14.3069 4.29267 13.1196C4.21526 12.9609 4.28039 12.7695 4.43853 12.6909C4.59667 12.6123 4.7886 12.676 4.86835 12.8336C5.44026 13.8602 6.41036 14.6054 7.54971 14.8933C7.63156 14.9172 7.70055 14.9727 7.74148 15.0475C7.78241 15.1223 7.79194 15.2103 7.76796 15.2922ZM8.67857 15.7499C8.50105 15.7499 8.35714 15.606 8.35714 15.4285C8.35714 15.2509 8.50105 15.107 8.67857 15.107C8.85609 15.107 9 15.2509 9 15.4285C9 15.606 8.85609 15.7499 8.67857 15.7499ZM13.4004 11.131C12.9793 12.8763 10.8193 13.8213 9 13.8213C7.16142 13.8213 5.0175 12.8153 4.6125 11.131C4.41642 10.3242 4.52892 9.42418 4.75714 8.32168C5.1525 6.42525 6.49285 3.21418 9 3.21418C11.5168 3.21418 12.8604 6.42204 13.2557 8.31847C13.4012 8.94396 13.483 9.58257 13.5 10.2245C13.5018 10.5295 13.4684 10.8337 13.4004 11.131Z" fill="white"/>
<path d="M9 3.85718C6.90429 3.85718 5.74393 6.74682 5.38714 8.45361C5.17821 9.46932 5.07214 10.289 5.23607 10.98C5.45464 11.88 6.35786 12.5518 7.39286 12.9022V12.8572C7.39286 11.9696 8.1124 11.25 9 11.25C9.8876 11.25 10.6071 11.9696 10.6071 12.8572V12.915C11.655 12.5679 12.555 11.8993 12.7768 10.98C12.9407 10.289 12.8346 9.46932 12.6257 8.45039C12.2946 6.86253 11.1086 3.85718 9 3.85718Z" fill="white"/>
<path d="M9.64285 1.33071V0.642857C9.64023 0.28891 9.35394 0.00262518 9 0C8.6454 0.00105904 8.3582 0.288257 8.35714 0.642857V1.33071C8.78361 1.27072 9.21638 1.27072 9.64285 1.33071Z" fill="white"/>
</g>
<defs>
<clipPath id="clip0_0_131">
<rect width="18" height="18" fill="white"/>
</clipPath>
</defs>
</svg>
