<svg width="18" height="18" viewBox="0 0 18 18" fill="none" xmlns="http://www.w3.org/2000/svg">
<g clip-path="url(#clip0_0_98)">
<path d="M9.49214 15.7773V14.5305H9.54354C9.83476 14.5305 10.0709 14.2944 10.0709 14.0032C10.0709 13.7119 9.83476 13.4758 9.54354 13.4758H8.38612C8.0949 13.4758 7.8588 13.7119 7.8588 14.0032C7.8588 14.2944 8.0949 14.5305 8.38612 14.5305H8.43751V15.7773H6.11426V5.16344C6.11426 3.57474 7.38284 2.25649 8.97151 2.24106C10.5757 2.22548 11.8857 3.52595 11.8857 5.12663V6.26912C11.8857 6.56034 12.1218 6.79643 12.4131 6.79643H13.5991C13.8903 6.79643 14.1264 6.56034 14.1264 6.26912V5.12663C14.1264 2.2954 11.8312 0.000244141 9.00002 0.000244141C6.16879 0.000244141 3.87363 2.2954 3.87363 5.12663V15.7773H1.98534V14.5305H2.03674C2.32796 14.5305 2.56406 14.2944 2.56406 14.0032C2.56406 13.7119 2.32796 13.4758 2.03674 13.4758H0.879317C0.588098 13.4758 0.352001 13.7119 0.352001 14.0032C0.352001 14.2944 0.588098 14.5305 0.879317 14.5305H0.930713V15.7773H0V17.9998H18V15.7773H9.49214Z" fill="white"/>
<path d="M10.4623 10.6571C10.2734 10.5431 10.0278 10.5628 9.85708 10.7015C9.68595 10.8406 9.62183 11.0799 9.69537 11.2868C9.76902 11.494 9.9714 11.6366 10.1914 11.6366C10.4399 11.6366 10.6595 11.4556 10.7085 11.2123C10.752 10.9959 10.6507 10.7708 10.4623 10.6571Z" fill="white"/>
<path d="M11.1483 9.14946C11.1919 8.93411 11.0909 8.70641 10.9021 8.59402C10.7124 8.48107 10.468 8.49932 10.2968 8.63867C10.1265 8.77728 10.0602 9.01753 10.1349 9.22388C10.2099 9.43084 10.4102 9.57377 10.6311 9.57377C10.8799 9.57377 11.099 9.39266 11.1483 9.14946Z" fill="white"/>
<path d="M15.3591 12.7643C15.1888 12.9033 15.1223 13.143 15.1972 13.3495C15.2722 13.5566 15.4723 13.6994 15.6934 13.6994C15.942 13.6994 16.1616 13.5185 16.2105 13.2751C16.254 13.0588 16.1528 12.8335 15.9643 12.7199C15.7756 12.606 15.5294 12.6253 15.3591 12.7643Z" fill="white"/>
<path d="M14.9193 10.7015C14.7491 10.8403 14.6826 11.0802 14.7574 11.2867C14.8324 11.4937 15.0327 11.6366 15.2536 11.6366C15.502 11.6366 15.7218 11.4555 15.7707 11.2123C15.8142 10.9964 15.7132 10.77 15.5245 10.657C15.3353 10.5436 15.0901 10.5622 14.9193 10.7015Z" fill="white"/>
<path d="M14.8138 9.5738C15.0623 9.5738 15.2818 9.39262 15.3309 9.14949C15.3744 8.9342 15.2735 8.7064 15.0848 8.59405C14.8953 8.48128 14.6503 8.49903 14.4795 8.6387C14.3094 8.7778 14.2427 9.01713 14.3177 9.22391C14.3926 9.43087 14.5929 9.5738 14.8138 9.5738Z" fill="white"/>
<path d="M12.9973 12.8014C12.8074 12.6893 12.5634 12.7054 12.3921 12.8457C12.222 12.9849 12.1551 13.2242 12.23 13.4311C12.305 13.6382 12.5056 13.7808 12.7264 13.7808C12.9749 13.7808 13.1946 13.5998 13.2435 13.3565C13.2866 13.1416 13.1864 12.9131 12.9973 12.8014Z" fill="white"/>
<path d="M12.9973 10.6922C12.8076 10.5801 12.5633 10.5964 12.3921 10.7365C12.222 10.8757 12.1551 11.1151 12.23 11.3219C12.305 11.529 12.5056 11.6716 12.7264 11.6716C12.9748 11.6716 13.1946 11.4906 13.2435 11.2473C13.2866 11.0324 13.1864 10.8039 12.9973 10.6922Z" fill="white"/>
<path d="M12.7263 9.56229C12.9748 9.56229 13.1946 9.38135 13.2435 9.13798C13.2866 8.92319 13.1864 8.69444 12.9972 8.58275C12.8072 8.47057 12.5635 8.48724 12.392 8.62719C12.2218 8.76608 12.1552 9.00601 12.23 9.21265C12.305 9.41971 12.5056 9.56229 12.7263 9.56229Z" fill="white"/>
</g>
<defs>
<clipPath id="clip0_0_98">
<rect width="18" height="18" fill="white"/>
</clipPath>
</defs>
</svg>
