<svg width="26" height="26" viewBox="0 0 26 26" fill="none" xmlns="http://www.w3.org/2000/svg">
<g clip-path="url(#clip0_0_73)" filter="url(#filter0_d_0_73)">
<path d="M13.9588 8.62837C14.1662 8.52232 14.3972 8.46626 14.6369 8.46626C15.0341 8.46626 15.4075 8.62045 15.689 8.90046L16.2949 8.29457C17.7945 8.82021 19.5288 8.4837 20.7276 7.28498C21.7363 6.27632 22.134 4.88854 21.9217 3.5804C21.8983 3.43634 21.7963 3.31752 21.6575 3.27269C21.5186 3.2278 21.3662 3.26428 21.2631 3.3675L20.3633 4.26723C19.6306 4.99993 18.4426 4.99993 17.7099 4.26723C16.9771 3.53452 16.9771 2.3465 17.7099 1.61379L18.6096 0.714067C18.7129 0.610843 18.7496 0.458432 18.7047 0.319531C18.6598 0.180568 18.5408 0.0788179 18.3967 0.0554221C17.0886 -0.156921 15.7007 0.24087 14.6921 1.24953C13.4756 2.46612 13.1481 4.23413 13.7077 5.74872L12.3935 7.06294L13.9588 8.62837Z" fill="white"/>
<path d="M11.564 11.0097L10.0052 9.45093L4.55444 14.9016C3.84568 15.6104 3.84568 16.7595 4.55444 17.4682C5.26319 18.177 6.41229 18.177 7.12104 17.4682L11.8199 12.7694C11.346 12.2929 11.2606 11.5736 11.564 11.0097Z" fill="white"/>
<path d="M15.0406 9.5545C14.9291 9.44304 14.783 9.38729 14.6369 9.38729C14.4908 9.38729 14.3446 9.44304 14.2332 9.5545L13.9078 9.87989L8.11153 4.08362L8.38245 3.81269C8.6293 3.5659 8.59866 3.1565 8.3173 2.94932L5.95241 1.20765C5.72515 1.04031 5.40977 1.06408 5.2102 1.26365L4.20608 2.26783C4.00651 2.4674 3.98274 2.78284 4.15007 3.01005L5.89168 5.37493C6.09887 5.65623 6.50802 5.68718 6.75506 5.44008L7.02598 5.1691L12.8223 10.9654L12.474 11.3137C12.251 11.5366 12.251 11.8981 12.474 12.121L17.8212 17.4682C18.5299 18.177 19.679 18.177 20.3878 17.4682C21.0965 16.7595 21.0965 15.6104 20.3878 14.9016L15.0406 9.5545Z" fill="white"/>
</g>
<defs>
<filter id="filter0_d_0_73" x="0" y="0" width="26" height="26" filterUnits="userSpaceOnUse" color-interpolation-filters="sRGB">
<feFlood flood-opacity="0" result="BackgroundImageFix"/>
<feColorMatrix in="SourceAlpha" type="matrix" values="0 0 0 0 0 0 0 0 0 0 0 0 0 0 0 0 0 0 127 0" result="hardAlpha"/>
<feOffset dy="4"/>
<feGaussianBlur stdDeviation="2"/>
<feComposite in2="hardAlpha" operator="out"/>
<feColorMatrix type="matrix" values="0 0 0 0 0 0 0 0 0 0 0 0 0 0 0 0 0 0 0.25 0"/>
<feBlend mode="normal" in2="BackgroundImageFix" result="effect1_dropShadow_0_73"/>
<feBlend mode="normal" in="SourceGraphic" in2="effect1_dropShadow_0_73" result="shape"/>
</filter>
<clipPath id="clip0_0_73">
<rect width="18" height="18" fill="white" transform="translate(4)"/>
</clipPath>
</defs>
</svg>
