<svg width="28" height="28" viewBox="0 0 28 28" fill="none" xmlns="http://www.w3.org/2000/svg">
<path d="M7.69191 24.7799C7.68295 24.7799 7.67371 24.7794 7.66419 24.7785C7.51047 24.7634 7.39763 24.6265 7.41303 24.4725C7.49983 23.5882 8.11387 22.1381 9.15743 21.8346C10.3525 21.486 11.6942 21.6324 12.7297 21.799C13.1855 21.8718 13.6803 21.9746 14.2039 22.0835C15.913 22.4388 17.8497 22.8406 19.2332 22.3585C19.3785 22.307 19.5387 22.3845 19.5897 22.5307C19.6406 22.6766 19.5633 22.8364 19.4175 22.8871C17.8873 23.4211 15.8699 23.0011 14.0899 22.6315C13.573 22.524 13.0844 22.4226 12.6412 22.3518C11.6637 22.1944 10.4023 22.0547 9.31395 22.3719C8.56327 22.5903 8.04275 23.7848 7.97023 24.5268C7.95623 24.6718 7.83443 24.7799 7.69191 24.7799Z" fill="#00385E"/>
<path d="M6.51084 24.6646H3.97936C3.82788 24.6646 3.70384 24.5439 3.69936 24.3927C3.69516 24.2524 3.62208 20.9375 5.54428 18.9722C7.07728 17.4051 8.27792 17.2774 9.57796 17.2774L10.2004 17.2804C10.7666 17.2804 11.4341 17.2628 12.1909 17.0483C13.361 16.7168 14.1347 16.021 14.4903 14.9797C15.1043 13.1812 14.3091 10.9085 13.3101 9.55777C13.1858 9.38977 13.0637 9.22737 12.9441 9.06917C11.6964 7.41241 10.7111 6.10369 11.2241 3.44705C11.2496 3.31517 11.3649 3.21997 11.499 3.21997H13.7385C13.8152 3.21997 13.8888 3.25161 13.9418 3.30761C13.9947 3.36361 14.0221 3.43865 14.0179 3.51509L14.0112 3.63801C13.9409 4.89241 13.97 5.72261 14.9761 5.82705C15.6288 5.89565 16.084 5.52157 16.6172 5.08365C17.1553 4.64181 17.7657 4.14089 18.6623 4.10757C20.2642 4.04849 23.4041 4.49313 24.0307 8.73485C24.0489 8.82949 25.9686 19.3527 19.0271 21.7694C18.6547 21.899 18.2283 21.962 17.724 21.962C16.7908 21.962 15.7254 21.7453 14.5975 21.5157C13.3465 21.2612 12.0529 20.9977 10.8038 20.9977C10.1245 20.9977 9.52812 21.075 8.98128 21.2343C7.72464 21.6014 6.91376 23.1453 6.7886 24.412C6.77544 24.5554 6.65504 24.6646 6.51084 24.6646ZM4.26272 24.1046H6.26444C6.48592 22.6808 7.40124 21.1125 8.82532 20.6967C9.42396 20.5223 10.0713 20.4377 10.8046 20.4377C12.1103 20.4377 13.4319 20.7065 14.7101 20.9669C15.8094 21.1906 16.8476 21.402 17.7248 21.402C18.1656 21.402 18.5318 21.3494 18.844 21.2408C25.3294 18.9828 23.4987 8.92973 23.4794 8.82837C22.9704 5.38353 20.7158 4.66309 18.9137 4.66309C18.8339 4.66309 18.7569 4.66449 18.6836 4.66729C17.9757 4.69389 17.4885 5.09345 16.973 5.51681C16.4007 5.98693 15.8029 6.47469 14.9192 6.38481C13.3935 6.22633 13.3899 4.81261 13.4434 3.78025H11.7342C11.3649 6.04013 12.2212 7.17749 13.3921 8.73261C13.5122 8.89193 13.6354 9.05573 13.7609 9.22513C14.8439 10.6895 15.7002 13.172 15.0209 15.1611C14.6082 16.3693 13.6825 17.2088 12.3441 17.5873C11.5181 17.8214 10.8046 17.8407 10.201 17.8407L9.57852 17.8376C8.36584 17.8376 7.32816 17.9499 5.94524 19.3639C4.49176 20.8496 4.28876 23.292 4.26272 24.1046Z" fill="#00385E"/>
<path d="M9.66502 16.3539C7.66778 16.3539 6.04266 14.7307 6.04266 12.7357C6.04266 10.7407 7.66778 9.11755 9.66502 9.11755C11.6623 9.11755 13.2874 10.7407 13.2874 12.7357C13.2874 14.7307 11.6623 16.3539 9.66502 16.3539ZM9.66502 9.67755C7.97634 9.67755 6.60266 11.0493 6.60266 12.7357C6.60266 14.4222 7.97634 15.7939 9.66502 15.7939C11.3537 15.7939 12.7274 14.4222 12.7274 12.7357C12.7274 11.0493 11.3537 9.67755 9.66502 9.67755Z" fill="#00385E"/>
<path d="M10.1374 15.0592H9.19464C9.04008 15.0592 8.91464 14.934 8.91464 14.7792V13.4859H7.61936C7.4648 13.4859 7.33936 13.3607 7.33936 13.2059V12.2642C7.33936 12.1094 7.4648 11.9842 7.61936 11.9842H8.91464V10.6926C8.91464 10.5378 9.04008 10.4126 9.19464 10.4126H10.1374C10.292 10.4126 10.4174 10.5378 10.4174 10.6926V11.9842H11.7113C11.8658 11.9842 11.9913 12.1094 11.9913 12.2642V13.2059C11.9913 13.3607 11.8658 13.4859 11.7113 13.4859H10.4174V14.7792C10.4174 14.934 10.292 15.0592 10.1374 15.0592ZM9.47436 14.4992H9.85712V13.2059C9.85712 13.051 9.98256 12.9259 10.1371 12.9259H11.431V12.5442H10.1371C9.98256 12.5442 9.85712 12.4191 9.85712 12.2642V10.9726H9.47436V12.2642C9.47436 12.4191 9.34892 12.5442 9.19436 12.5442H7.89908V12.9259H9.19436C9.34892 12.9259 9.47436 13.051 9.47436 13.2059V14.4992Z" fill="#00385E"/>
<path d="M17.6571 20.6514C16.9109 20.6514 16.0818 20.4828 15.2704 20.3184C15.1189 20.2876 15.0209 20.1395 15.0517 19.988C15.0825 19.8366 15.23 19.74 15.3818 19.7694C16.5382 20.0046 17.7346 20.2473 18.5483 19.964C23.7308 18.1596 22.2614 10.1116 22.246 10.0307C22.097 9.02801 21.751 8.24653 21.2156 7.69633C21.1078 7.58545 21.11 7.40849 21.2209 7.30041C21.3318 7.19233 21.509 7.19513 21.6168 7.30601C22.2359 7.94189 22.6335 8.82725 22.7982 9.93717C22.8124 10.0116 24.3664 18.5309 18.7326 20.4926C18.4055 20.6066 18.0424 20.6514 17.6571 20.6514Z" fill="#00385E"/>
<path d="M15.9171 10.2846C15.3647 10.2846 14.9156 9.83549 14.9156 9.28389C14.9156 8.73117 15.3647 8.28149 15.9171 8.28149C16.4704 8.28149 16.9204 8.73117 16.9204 9.28389C16.9204 9.83577 16.4701 10.2846 15.9171 10.2846ZM15.9171 8.84149C15.6735 8.84149 15.4756 9.04001 15.4756 9.28389C15.4756 9.52693 15.6738 9.72461 15.9171 9.72461C16.1616 9.72461 16.3604 9.52693 16.3604 9.28389C16.3604 9.04001 16.1616 8.84149 15.9171 8.84149Z" fill="#00385E"/>
<path d="M19.1422 12.6367C18.4361 12.6367 17.8615 12.0627 17.8615 11.3571C17.8615 10.6515 18.4361 10.0778 19.1422 10.0778C19.8484 10.0778 20.423 10.6518 20.423 11.3571C20.423 12.0627 19.8484 12.6367 19.1422 12.6367ZM19.1422 10.6375C18.7449 10.6375 18.4215 10.96 18.4215 11.3568C18.4215 11.7536 18.7449 12.0764 19.1422 12.0764C19.5396 12.0764 19.863 11.7536 19.863 11.3568C19.863 10.96 19.5396 10.6375 19.1422 10.6375Z" fill="#00385E"/>
<path d="M16.9559 14.8761C16.4027 14.8761 15.9527 14.4267 15.9527 13.874C15.9527 13.3213 16.4027 12.8716 16.9559 12.8716C17.5084 12.8716 17.9575 13.3213 17.9575 13.874C17.9575 14.4267 17.5081 14.8761 16.9559 14.8761ZM16.9559 13.4316C16.7115 13.4316 16.5127 13.6301 16.5127 13.874C16.5127 14.1179 16.7115 14.3161 16.9559 14.3161C17.1995 14.3161 17.3975 14.1179 17.3975 13.874C17.3975 13.6301 17.1993 13.4316 16.9559 13.4316Z" fill="#00385E"/>
<path d="M17.75 18.2092C17.1049 18.2092 16.5799 17.6848 16.5799 17.0402C16.5799 16.3957 17.1049 15.8712 17.75 15.8712C18.3943 15.8712 18.9185 16.3957 18.9185 17.0402C18.9185 17.6848 18.3943 18.2092 17.75 18.2092ZM17.75 16.4315C17.4137 16.4315 17.1399 16.7048 17.1399 17.0405C17.1399 17.3762 17.4137 17.6495 17.75 17.6495C18.0855 17.6495 18.3585 17.3762 18.3585 17.0405C18.3585 16.7048 18.0855 16.4315 17.75 16.4315Z" fill="#00385E"/>
<path d="M14.4542 18.9846C13.9009 18.9846 13.4509 18.5349 13.4509 17.9822C13.4509 17.4303 13.9009 16.9814 14.4542 16.9814C15.0066 16.9814 15.4557 17.4306 15.4557 17.9822C15.4557 18.5346 15.0063 18.9846 14.4542 18.9846ZM14.4542 17.5412C14.2097 17.5412 14.0109 17.7388 14.0109 17.9819C14.0109 18.2258 14.2097 18.4243 14.4542 18.4243C14.6978 18.4243 14.8957 18.2258 14.8957 17.9819C14.8957 17.7391 14.6975 17.5412 14.4542 17.5412Z" fill="#00385E"/>
</svg>
