<svg width="24" height="24" viewBox="0 0 24 24" fill="none" xmlns="http://www.w3.org/2000/svg">
<path d="M19.3419 13.4362C19.488 13.4362 19.6066 13.3177 19.6066 13.1715V2.31974C19.6066 1.72001 19.1185 1.23196 18.5186 1.23196H14.4468C14.3934 0.801989 14.03 0.466797 13.5857 0.466797H7.66689C7.22278 0.466797 6.85932 0.801989 6.80599 1.23196H2.73553C2.13563 1.23196 1.64758 1.72001 1.64758 2.31974V22.4401C1.64758 23.04 2.13563 23.5281 2.73553 23.5281H14.7445C14.8906 23.5281 15.0092 23.4095 15.0092 23.2634C15.0092 23.1172 14.8906 22.9987 14.7445 22.9987H2.73553C2.42757 22.9987 2.17699 22.7481 2.17699 22.4401V2.31974C2.17699 2.01195 2.42757 1.76137 2.73553 1.76137H6.79522V2.88844H2.94337C2.79723 2.88844 2.67866 3.00701 2.67866 3.15315V22.2344C2.67866 22.3805 2.79723 22.4991 2.94337 22.4991H13.9504C14.0965 22.4991 14.2151 22.3805 14.2151 22.2344C14.2151 22.0882 14.0965 21.9697 13.9504 21.9697H3.20807V3.41785H6.79522C6.79539 3.89832 7.18633 4.28918 7.66689 4.28918H13.5857C14.0664 4.28918 14.4574 3.89832 14.4576 3.41785H18.0461V13.2892C18.0461 13.4354 18.1646 13.5539 18.3108 13.5539C18.4569 13.5539 18.5755 13.4354 18.5755 13.2892V3.15315C18.5755 3.00701 18.4569 2.88844 18.3108 2.88844H14.4576V1.76137H18.5186C18.8266 1.76137 19.0772 2.01195 19.0772 2.31974V13.1715C19.0772 13.3177 19.1957 13.4362 19.3419 13.4362ZM13.9281 3.41751C13.9281 3.60622 13.7746 3.75977 13.5857 3.75977H7.66689C7.47818 3.75977 7.32463 3.60622 7.32463 3.41751V1.33864C7.32463 1.14993 7.47818 0.996212 7.66689 0.996212H13.5857C13.7746 0.996212 13.9281 1.14994 13.9281 1.33864V3.41751Z" fill="#00385E"/>
<path d="M5.91304 12.5181C4.86525 12.5181 4.01288 13.3704 4.01288 14.4182C4.01288 15.466 4.86525 16.3185 5.91304 16.3185C6.96083 16.3185 7.81337 15.466 7.81337 14.4182C7.81337 13.3704 6.96083 12.5181 5.91304 12.5181ZM5.91304 15.7891C5.15718 15.7891 4.54229 15.1741 4.54229 14.4182C4.54229 13.6624 5.15718 13.0475 5.91304 13.0475C6.6689 13.0475 7.28396 13.6624 7.28396 14.4182C7.28396 15.1741 6.6689 15.7891 5.91304 15.7891Z" fill="#00385E"/>
<path d="M14.5134 13.6939C14.5134 13.5477 14.3948 13.4292 14.2487 13.4292H9.05487C8.90873 13.4292 8.79016 13.5477 8.79016 13.6939C8.79016 13.8401 8.90873 13.9586 9.05487 13.9586H14.2487C14.3948 13.9586 14.5134 13.8401 14.5134 13.6939Z" fill="#00385E"/>
<path d="M9.05487 15.4071H11.8189C11.9651 15.4071 12.0836 15.2886 12.0836 15.1424C12.0836 14.9962 11.9651 14.8777 11.8189 14.8777H9.05487C8.90873 14.8777 8.79016 14.9962 8.79016 15.1424C8.79016 15.2886 8.90872 15.4071 9.05487 15.4071Z" fill="#00385E"/>
<path d="M5.91304 16.9514C4.86525 16.9514 4.01288 17.8039 4.01288 18.8517C4.01288 19.8995 4.86525 20.7518 5.91304 20.7518C6.96083 20.7518 7.81337 19.8995 7.81337 18.8517C7.81337 17.8039 6.96083 16.9514 5.91304 16.9514ZM5.91304 20.2224C5.15718 20.2224 4.54229 19.6075 4.54229 18.8517C4.54229 18.0958 5.15718 17.4808 5.91304 17.4808C6.6689 17.4808 7.28396 18.0958 7.28396 18.8517C7.28396 19.6075 6.6689 20.2224 5.91304 20.2224Z" fill="#00385E"/>
<path d="M12.6256 18.1275C12.6256 17.9813 12.5071 17.8628 12.3609 17.8628H9.05487C8.90873 17.8628 8.79016 17.9813 8.79016 18.1275C8.79016 18.2737 8.90873 18.3922 9.05487 18.3922H12.3609C12.5071 18.3922 12.6256 18.2737 12.6256 18.1275Z" fill="#00385E"/>
<path d="M9.05487 19.3113C8.90873 19.3113 8.79016 19.4298 8.79016 19.576C8.79016 19.7222 8.90873 19.8407 9.05487 19.8407H11.1646C11.3107 19.8407 11.4293 19.7222 11.4293 19.576C11.4293 19.4298 11.3107 19.3113 11.1646 19.3113H9.05487Z" fill="#00385E"/>
<path d="M6.18723 14.0241L5.68125 14.53L5.51168 14.3604C5.40828 14.257 5.24077 14.257 5.13737 14.3604C5.03396 14.4637 5.03396 14.6314 5.13737 14.7347L5.4941 15.0914C5.59749 15.1948 5.765 15.1948 5.86841 15.0914L6.56154 14.3984C6.66494 14.2951 6.66494 14.1275 6.56154 14.0241C6.45814 13.9207 6.29063 13.9207 6.18723 14.0241Z" fill="#00385E"/>
<path d="M6.18723 18.318L5.68125 18.8239L5.51168 18.6543C5.40828 18.5509 5.24077 18.5509 5.13737 18.6543C5.03396 18.7577 5.03396 18.9253 5.13737 19.0287L5.4941 19.3854C5.59749 19.4888 5.765 19.4888 5.86841 19.3854L6.56154 18.6923C6.66494 18.589 6.66494 18.4214 6.56154 18.318C6.45814 18.2146 6.29063 18.2146 6.18723 18.318Z" fill="#00385E"/>
<path d="M20.7626 15.8327C20.6015 15.7804 20.4355 15.7562 20.2671 15.7489C20.8208 14.9712 20.7017 13.862 20.6957 13.8105C20.6814 13.6886 20.5852 13.5925 20.4634 13.5783C20.4072 13.5718 19.0684 13.4253 18.3015 14.1921C18.149 14.3446 18.0338 14.5202 17.9453 14.7036C17.7823 14.381 17.5291 14.0451 17.1361 13.7243C17.0229 13.6319 16.8563 13.6486 16.7637 13.7619C16.6714 13.8752 16.6881 14.042 16.8015 14.1344C17.4054 14.6276 17.782 15.3233 17.6621 16.0841C17.2206 16.0602 16.7823 15.9838 16.3618 15.8486C15.9355 15.7115 15.5215 15.7062 15.1322 15.8327C13.7343 16.286 13.1483 18.3602 13.8263 20.4562C14.3792 22.165 15.9331 23.9766 17.6014 23.4361C17.8286 23.3604 18.0683 23.361 18.3016 23.4382C19.6998 23.8914 21.3899 22.5537 22.0704 20.4563C22.7484 18.3605 22.1616 16.2865 20.7626 15.8327ZM20.1808 14.0932C20.1849 14.4543 20.1339 15.1717 19.7075 15.5982C19.3969 15.9087 18.9345 16.0186 18.5644 16.0542L19.5909 15.0574C19.6958 14.9555 19.6982 14.7879 19.5964 14.6831C19.4947 14.5783 19.3269 14.5759 19.2221 14.6775L18.2278 15.6431C18.3473 14.636 18.8956 14.0758 20.1808 14.0932ZM21.5669 20.2931C20.9761 22.1127 19.5852 23.2989 18.4621 22.9336C18.1254 22.8218 17.7699 22.8221 17.4317 22.9346C16.0811 23.3726 14.7735 21.6647 14.3298 20.2932C13.7418 18.4747 14.1749 16.6996 15.2956 16.3363C15.5774 16.2447 15.8814 16.2503 16.1999 16.3525C18.5099 17.0954 19.7201 16.051 20.599 16.3363C21.7208 16.7001 22.155 18.4751 21.5669 20.2931Z" fill="#00385E"/>
<path d="M15.1535 11.8247C15.2569 11.9281 15.4244 11.9281 15.5278 11.8247C15.6312 11.7213 15.6312 11.5537 15.5278 11.4503L14.8453 10.7678C14.7957 10.7182 14.7283 10.6903 14.6582 10.6903H13.4919C13.7726 10.2119 13.928 9.66048 13.928 9.08798C13.928 8.42725 13.7246 7.81348 13.3776 7.30483L14.2256 6.47806H15.0832C15.2293 6.47806 15.3479 6.35958 15.3479 6.21335C15.3479 6.06712 15.2293 5.94865 15.0832 5.94865H14.1179C14.0488 5.94865 13.9826 5.97562 13.9332 6.02378L13.0412 6.89347C12.4634 6.29176 11.653 5.91504 10.755 5.91504C9.58293 5.91504 8.55978 6.55543 8.01038 7.50319L7.19455 6.72536C7.14526 6.67839 7.07994 6.6522 7.01187 6.6522H6.04663C5.90049 6.6522 5.78192 6.77068 5.78192 6.9169C5.78192 7.06313 5.90049 7.18161 6.04663 7.18161H6.90589L7.77471 8.00994C7.65235 8.34711 7.58213 8.7091 7.58213 9.08797C7.58213 10.8375 9.00544 12.2608 10.755 12.2608C11.6054 12.2608 12.4511 11.9258 13.094 11.2197H14.5486L15.1535 11.8247ZM13.3855 8.82328H11.0197V6.45764C12.2665 6.58215 13.2609 7.57652 13.3855 8.82328ZM10.755 11.7314C9.29737 11.7314 8.11153 10.5456 8.11153 9.08798C8.11153 7.81314 9.07547 6.59887 10.4903 6.45764V9.08531V9.08798C10.4903 9.13098 10.5028 9.16993 10.521 9.20577C10.5228 9.20939 10.5221 9.21379 10.524 9.21732L11.8086 11.5114C11.4769 11.6559 11.1174 11.7314 10.755 11.7314ZM12.2703 11.2524L11.789 10.3928L11.2067 9.35269H13.3853C13.3079 10.1157 12.9 10.8108 12.2703 11.2524Z" fill="#00385E"/>
</svg>
