<svg width="24" height="24" viewBox="0 0 24 24" fill="none" xmlns="http://www.w3.org/2000/svg">
<path d="M19.5 17.625C18.0975 17.625 16.8233 16.8525 16.1738 15.609C16.0785 15.4253 16.149 15.1987 16.3328 15.1027C16.518 15.006 16.743 15.078 16.839 15.2618C17.3587 16.257 18.378 16.875 19.5 16.875C21.027 16.875 22.2915 15.7275 22.4767 14.25H16.125C15.918 14.25 15.75 14.082 15.75 13.875C15.75 13.668 15.918 13.5 16.125 13.5H22.875C23.082 13.5 23.25 13.668 23.25 13.875C23.25 15.9427 21.5677 17.625 19.5 17.625Z" fill="#00385E"/>
<path d="M22.875 14.2501C22.7167 14.2501 22.569 14.1489 22.518 13.9899L21.561 11.0116C21.498 10.8144 21.606 10.6036 21.8032 10.5399C21.9997 10.4784 22.2112 10.5849 22.275 10.7821L23.232 13.7604C23.295 13.9576 23.187 14.1684 22.9897 14.2321C22.9515 14.2441 22.9132 14.2501 22.875 14.2501Z" fill="#00385E"/>
<path d="M20.268 6.13938C20.1098 6.13938 19.962 6.03813 19.911 5.87913L19.143 3.48963C19.08 3.29238 19.188 3.08163 19.3853 3.01788C19.5825 2.95638 19.7933 3.06288 19.857 3.26013L20.625 5.64963C20.688 5.84688 20.58 6.05763 20.3828 6.12138C20.3445 6.13338 20.3063 6.13938 20.268 6.13938Z" fill="#00385E"/>
<path d="M16.125 14.25C16.0867 14.25 16.0485 14.244 16.0102 14.232C15.813 14.169 15.7042 13.9575 15.768 13.7602L16.725 10.7812C16.7887 10.584 16.9995 10.476 17.1967 10.539C17.394 10.602 17.5027 10.8135 17.439 11.0107L16.482 13.9897C16.431 14.1487 16.2832 14.25 16.125 14.25Z" fill="#00385E"/>
<path d="M4.5 17.625C3.0975 17.625 1.82325 16.8525 1.17375 15.609C1.0785 15.4253 1.149 15.1987 1.33275 15.1027C1.51875 15.006 1.743 15.078 1.839 15.2618C2.35875 16.257 3.378 16.875 4.5 16.875C6.027 16.875 7.2915 15.7275 7.47675 14.25H1.125C0.918 14.25 0.75 14.082 0.75 13.875C0.75 13.668 0.918 13.5 1.125 13.5H7.875C8.082 13.5 8.25 13.668 8.25 13.875C8.25 15.9427 6.56775 17.625 4.5 17.625Z" fill="#00385E"/>
<path d="M1.125 14.2499C1.08675 14.2499 1.0485 14.2439 1.01025 14.2319C0.812995 14.1689 0.704245 13.9574 0.767995 13.7602L1.491 11.5102C1.55475 11.3122 1.76625 11.2064 1.96275 11.2679C2.16 11.3309 2.26875 11.5424 2.205 11.7397L1.48199 13.9897C1.43099 14.1487 1.28325 14.2499 1.125 14.2499Z" fill="#00385E"/>
<path d="M7.87498 14.2501C7.71673 14.2501 7.56898 14.1488 7.51798 13.9898L6.79573 11.7428C6.73273 11.5456 6.84073 11.3348 7.03798 11.2711C7.23523 11.2096 7.44598 11.3161 7.50973 11.5133L8.23198 13.7603C8.29498 13.9576 8.18698 14.1683 7.98973 14.2321C7.95148 14.2441 7.91323 14.2501 7.87498 14.2501Z" fill="#00385E"/>
<path d="M5.69474 7.46688C5.53649 7.46688 5.38875 7.36563 5.33774 7.20663L4.143 3.48963C4.07925 3.29238 4.188 3.08088 4.38525 3.01788C4.5825 2.95638 4.79324 3.06288 4.85699 3.26013L6.05175 6.97713C6.11475 7.17438 6.00674 7.38513 5.80949 7.44888C5.77124 7.46088 5.73299 7.46688 5.69474 7.46688Z" fill="#00385E"/>
<path d="M12 8.625C11.793 8.625 11.625 8.457 11.625 8.25V4.875C11.625 4.668 11.793 4.5 12 4.5C12.207 4.5 12.375 4.668 12.375 4.875V8.25C12.375 8.457 12.207 8.625 12 8.625Z" fill="#00385E"/>
<path d="M13.125 20.25C12.918 20.25 12.75 20.082 12.75 19.875V9.375C12.75 8.96175 12.4132 8.625 12 8.625C11.5868 8.625 11.25 8.96175 11.25 9.375V19.875C11.25 20.082 11.082 20.25 10.875 20.25C10.668 20.25 10.5 20.082 10.5 19.875V9.375C10.5 8.54775 11.1727 7.875 12 7.875C12.8273 7.875 13.5 8.54775 13.5 9.375V19.875C13.5 20.082 13.332 20.25 13.125 20.25Z" fill="#00385E"/>
<path d="M15.375 21.75H8.625C8.418 21.75 8.25 21.582 8.25 21.375C8.25 21.168 8.418 21 8.625 21H14.9363C14.781 20.5635 14.364 20.25 13.875 20.25H9.75C9.543 20.25 9.375 20.082 9.375 19.875C9.375 19.668 9.543 19.5 9.75 19.5H13.875C14.9085 19.5 15.75 20.3415 15.75 21.375C15.75 21.582 15.582 21.75 15.375 21.75Z" fill="#00385E"/>
<path d="M18.39 23.25C18.3855 23.25 18.3802 23.2492 18.375 23.25H5.625C5.418 23.25 5.25 23.082 5.25 22.875C5.25 21.8415 6.0915 21 7.125 21H16.875C17.8695 21 18.6863 21.7785 18.7463 22.758C18.7583 22.7947 18.765 22.8338 18.765 22.875C18.765 23.082 18.597 23.25 18.39 23.25ZM6.06375 22.5H17.9355C17.7802 22.0635 17.3633 21.75 16.8743 21.75H7.12425C6.636 21.75 6.219 22.0635 6.06375 22.5Z" fill="#00385E"/>
<path d="M20.625 3H13.5C13.293 3 13.125 2.832 13.125 2.625C13.125 2.418 13.293 2.25 13.5 2.25H20.625C20.832 2.25 21 2.418 21 2.625C21 2.832 20.832 3 20.625 3Z" fill="#00385E"/>
<path d="M10.5 3H3.375C3.168 3 3 2.832 3 2.625C3 2.418 3.168 2.25 3.375 2.25H10.5C10.707 2.25 10.875 2.418 10.875 2.625C10.875 2.832 10.707 3 10.5 3Z" fill="#00385E"/>
<path d="M12 4.5C10.9665 4.5 10.125 3.6585 10.125 2.625C10.125 2.418 10.293 2.25 10.5 2.25C10.707 2.25 10.875 2.418 10.875 2.625C10.875 3.24525 11.3798 3.75 12 3.75C12.6202 3.75 13.125 3.24525 13.125 2.625C13.125 2.418 13.293 2.25 13.5 2.25C13.707 2.25 13.875 2.418 13.875 2.625C13.875 3.6585 13.0335 4.5 12 4.5Z" fill="#00385E"/>
<path d="M4.5 11.625C3.79875 11.625 3.1395 11.352 2.64375 10.8563C2.148 10.3605 1.875 9.70127 1.875 9.00002C1.875 8.29877 2.148 7.63952 2.64375 7.14377C3.6345 6.15227 5.36475 6.15227 6.3555 7.14377C6.852 7.63952 7.125 8.29877 7.125 9.00002C7.125 9.70127 6.852 10.3605 6.35625 10.8563C5.8605 11.352 5.20125 11.625 4.5 11.625ZM4.5 7.12502C3.99975 7.12502 3.52875 7.32002 3.174 7.67402C2.81925 8.02802 2.625 8.49977 2.625 9.00002C2.625 9.50027 2.82 9.97127 3.174 10.326C3.882 11.034 5.11725 11.034 5.82525 10.326C6.18 9.97127 6.375 9.50027 6.375 9.00002C6.375 8.49977 6.18 8.02877 5.826 7.67402C5.472 7.31927 5.00025 7.12502 4.5 7.12502Z" fill="#00385E"/>
<path d="M6.09076 7.78418C5.99476 7.78418 5.89876 7.74743 5.82526 7.67468C5.67901 7.52843 5.67901 7.29068 5.82526 7.14443L7.60951 5.36018C7.75576 5.21393 7.99351 5.21393 8.13976 5.36018C8.28601 5.50643 8.28601 5.74418 8.13976 5.89043L6.35551 7.67468C6.28276 7.74743 6.18676 7.78418 6.09076 7.78418Z" fill="#00385E"/>
<path d="M7.875 7.125C7.668 7.125 7.5 6.957 7.5 6.75V6H6.75C6.543 6 6.375 5.832 6.375 5.625C6.375 5.418 6.543 5.25 6.75 5.25H7.875C8.082 5.25 8.25 5.418 8.25 5.625V6.75C8.25 6.957 8.082 7.125 7.875 7.125Z" fill="#00385E"/>
<path d="M19.5 10.5C18.0525 10.5 16.875 9.3225 16.875 7.875C16.875 6.4275 18.0525 5.25 19.5 5.25C20.9475 5.25 22.125 6.4275 22.125 7.875C22.125 9.3225 20.9475 10.5 19.5 10.5ZM19.5 6C18.4665 6 17.625 6.8415 17.625 7.875C17.625 8.9085 18.4665 9.75 19.5 9.75C20.5335 9.75 21.375 8.9085 21.375 7.875C21.375 6.8415 20.5335 6 19.5 6Z" fill="#00385E"/>
<path d="M20.25 12H18.75C18.543 12 18.375 11.832 18.375 11.625C18.375 11.418 18.543 11.25 18.75 11.25H20.25C20.457 11.25 20.625 11.418 20.625 11.625C20.625 11.832 20.457 12 20.25 12Z" fill="#00385E"/>
<path d="M19.5 12.75C19.293 12.75 19.125 12.582 19.125 12.375V10.125C19.125 9.918 19.293 9.75 19.5 9.75C19.707 9.75 19.875 9.918 19.875 10.125V12.375C19.875 12.582 19.707 12.75 19.5 12.75Z" fill="#00385E"/>
<path d="M12 2.325C11.793 2.325 11.625 2.157 11.625 1.95V1.5C11.625 1.293 11.793 1.125 12 1.125C12.207 1.125 12.375 1.293 12.375 1.5V1.95C12.375 2.157 12.207 2.325 12 2.325Z" fill="#00385E"/>
</svg>
