<svg width="24" height="24" viewBox="0 0 24 24" fill="none" xmlns="http://www.w3.org/2000/svg">
<path d="M22.875 19.5H21.9164C22.0295 19.3103 22.0986 19.0976 22.1188 18.8777C22.139 18.6577 22.1097 18.436 22.0331 18.2289C21.9565 18.0217 21.8344 17.8343 21.6759 17.6805C21.5175 17.5266 21.3265 17.4102 21.1172 17.3397C21.2461 17.1499 21.3295 16.9329 21.3609 16.7057C21.3924 16.4784 21.371 16.247 21.2984 16.0293C21.2259 15.8116 21.1041 15.6136 20.9426 15.4507C20.7811 15.2877 20.5842 15.1642 20.3672 15.0897C20.5019 14.8912 20.5868 14.6632 20.6148 14.425C20.6428 14.1868 20.613 13.9453 20.5279 13.7211C20.4429 13.4968 20.305 13.2963 20.1261 13.1365C19.9472 12.9768 19.7324 12.8625 19.5 12.8032V10.125C19.5276 9.62906 19.426 9.13444 19.2052 8.68953C18.9843 8.24462 18.6518 7.86465 18.2401 7.58679C17.9596 7.40489 17.7255 7.16001 17.5564 6.87167C17.3873 6.58333 17.2878 6.25948 17.2659 5.92592C17.5079 5.83716 17.7118 5.66764 17.8433 5.44596C17.9748 5.22429 18.0258 4.96404 17.9877 4.70913C17.9496 4.45423 17.8247 4.22028 17.6341 4.04676C17.4435 3.87325 17.1989 3.77081 16.9415 3.75671L17.1722 2.37303C17.1901 2.26559 17.1844 2.15555 17.1554 2.05055C17.1265 1.94555 17.075 1.84811 17.0046 1.76503C16.9341 1.68194 16.8465 1.61519 16.7476 1.56942C16.6488 1.52365 16.5412 1.49996 16.4323 1.5H14.3177C14.2088 1.49996 14.1012 1.52365 14.0024 1.56942C13.9035 1.6152 13.8159 1.68195 13.7454 1.76504C13.675 1.84813 13.6236 1.94556 13.5946 2.05056C13.5657 2.15556 13.5599 2.26561 13.5778 2.37305L13.8085 3.75673C13.5511 3.77082 13.3065 3.87327 13.1159 4.04678C12.9253 4.22029 12.8005 4.45424 12.7623 4.70915C12.7242 4.96405 12.7752 5.2243 12.9067 5.44598C13.0382 5.66765 13.2421 5.83717 13.4841 5.92593C13.4622 6.2595 13.3628 6.58334 13.1936 6.87169C13.0245 7.16003 12.7904 7.4049 12.51 7.58681C12.0982 7.86467 11.7657 8.24463 11.5448 8.68954C11.324 9.13445 11.2224 9.62906 11.25 10.125V15.2865C11.1072 15.3419 10.9677 15.4052 10.832 15.4761C10.6877 14.4777 10.1663 13.5725 9.375 12.9467V10.875C9.37467 10.5767 9.25604 10.2908 9.04514 10.0799C8.83423 9.86896 8.54827 9.75033 8.25 9.75H6V8.9621C6.42317 8.87512 6.80342 8.64491 7.07666 8.31027C7.34989 7.97563 7.49941 7.55702 7.5 7.125C7.5 5.88061 6.05493 4.39966 5.89012 4.23488C5.85531 4.20004 5.81398 4.17241 5.76849 4.15356C5.72299 4.13471 5.67423 4.12501 5.62499 4.12501C5.57574 4.12501 5.52698 4.13471 5.48149 4.15356C5.436 4.17241 5.39466 4.20004 5.35985 4.23488C5.19507 4.39966 3.75 5.88061 3.75 7.125C3.75059 7.55702 3.90011 7.97563 4.17334 8.31027C4.44658 8.64491 4.82683 8.87512 5.25 8.9621V9.75H3C2.70173 9.75033 2.41577 9.86896 2.20486 10.0799C1.99396 10.2908 1.87533 10.5767 1.875 10.875V19.5H1.125C1.07575 19.5 1.02698 19.5097 0.981479 19.5285C0.935976 19.5474 0.894631 19.575 0.859806 19.6098C0.824982 19.6446 0.79736 19.686 0.778519 19.7315C0.759678 19.777 0.749987 19.8258 0.75 19.875V20.625C0.750584 21.1221 0.948315 21.5987 1.29982 21.9502C1.65132 22.3017 2.1279 22.4994 2.625 22.5H21.375C21.8721 22.4994 22.3487 22.3017 22.7002 21.9502C23.0517 21.5987 23.2494 21.1221 23.25 20.625V19.875C23.25 19.8258 23.2403 19.777 23.2215 19.7315C23.2026 19.686 23.175 19.6446 23.1402 19.6098C23.1054 19.575 23.064 19.5474 23.0185 19.5285C22.973 19.5097 22.9242 19.5 22.875 19.5ZM4.5 7.125C4.5 6.47754 5.16888 5.57263 5.625 5.05115C6.08112 5.57263 6.75 6.47754 6.75 7.125C6.74929 7.35689 6.67681 7.58288 6.54253 7.77194C6.40824 7.961 6.21872 8.10386 6 8.1809V7.5C6 7.40054 5.96049 7.30516 5.89016 7.23483C5.81984 7.16451 5.72446 7.125 5.625 7.125C5.52554 7.125 5.43016 7.16451 5.35984 7.23483C5.28951 7.30516 5.25 7.40054 5.25 7.5V8.18088C5.03128 8.10384 4.84176 7.96099 4.70748 7.77193C4.57319 7.58288 4.50071 7.35689 4.5 7.125ZM21.375 18.75C21.3748 18.9488 21.2957 19.1395 21.1551 19.2801C21.0145 19.4207 20.8238 19.4998 20.625 19.5H14.625C14.4261 19.5 14.2353 19.421 14.0947 19.2803C13.954 19.1397 13.875 18.9489 13.875 18.75C13.875 18.5511 13.954 18.3603 14.0947 18.2197C14.2353 18.079 14.4261 18 14.625 18H20.625C20.8238 18.0002 21.0145 18.0793 21.1551 18.2199C21.2957 18.3605 21.3748 18.5512 21.375 18.75ZM20.625 16.5C20.6248 16.6988 20.5457 16.8895 20.4051 17.0301C20.2645 17.1707 20.0738 17.2498 19.875 17.25H15.375C15.1761 17.25 14.9853 17.171 14.8447 17.0303C14.704 16.8897 14.625 16.6989 14.625 16.5C14.625 16.3011 14.704 16.1103 14.8447 15.9697C14.9853 15.829 15.1761 15.75 15.375 15.75H19.875C20.0738 15.7502 20.2645 15.8293 20.4051 15.9699C20.5457 16.1105 20.6248 16.3012 20.625 16.5ZM19.875 14.25C19.8748 14.4488 19.7957 14.6395 19.6551 14.7801C19.5145 14.9207 19.3238 14.9998 19.125 15H16.125C15.9261 15 15.7353 14.921 15.5947 14.7803C15.454 14.6397 15.375 14.4489 15.375 14.25C15.375 14.0511 15.454 13.8603 15.5947 13.7197C15.7353 13.579 15.9261 13.5 16.125 13.5H19.125C19.3238 13.5002 19.5145 13.5793 19.6551 13.7199C19.7957 13.8605 19.8748 14.0512 19.875 14.25ZM16.4324 2.25L16.1824 3.75H14.5676L14.3177 2.25H16.4324ZM13.875 4.5H16.875C16.9745 4.5 17.0698 4.53951 17.1402 4.60984C17.2105 4.68016 17.25 4.77554 17.25 4.875C17.25 4.97446 17.2105 5.06984 17.1402 5.14016C17.0698 5.21049 16.9745 5.25 16.875 5.25H13.875C13.7755 5.25 13.6802 5.21049 13.6098 5.14016C13.5395 5.06984 13.5 4.97446 13.5 4.875C13.5 4.77554 13.5395 4.68016 13.6098 4.60984C13.6802 4.53951 13.7755 4.5 13.875 4.5ZM12.9901 8.16321C13.3487 7.92134 13.6472 7.60069 13.8629 7.22577C14.0786 6.85085 14.2058 6.43158 14.2346 6H16.5154C16.5442 6.43158 16.6714 6.85085 16.8871 7.22577C17.1028 7.60069 17.4013 7.92134 17.7599 8.16321C18.0593 8.35752 18.3058 8.62321 18.477 8.93638C18.6483 9.24954 18.739 9.60037 18.7411 9.9573C18.3022 10.3241 17.7438 10.5168 17.1721 10.4989C16.6004 10.4809 16.0552 10.2535 15.6401 9.85987C15.3595 9.58008 15.0253 9.35972 14.6576 9.21198C14.2899 9.06424 13.8962 8.99214 13.5 9C13.0164 8.99492 12.5387 9.10532 12.1064 9.32204C12.2684 8.85063 12.5783 8.44417 12.9901 8.16321ZM12 10.3C12.4387 9.9298 12.9984 9.73434 13.5722 9.75097C14.1459 9.7676 14.6934 9.99517 15.1099 10.3901C15.3905 10.6699 15.7247 10.8903 16.0924 11.038C16.4601 11.1858 16.8538 11.2579 17.25 11.25C17.7744 11.2563 18.2914 11.1259 18.75 10.8715V12.75H16.125C15.8527 12.7498 15.5854 12.8239 15.352 12.9642C15.1186 13.1044 14.9278 13.3056 14.8001 13.5462C14.6723 13.7867 14.6126 14.0575 14.6271 14.3294C14.6417 14.6014 14.7301 14.8642 14.8828 15.0897C14.6658 15.1642 14.4689 15.2877 14.3074 15.4507C14.1459 15.6136 14.0241 15.8116 13.9516 16.0293C13.879 16.247 13.8576 16.4784 13.8891 16.7057C13.9205 16.9329 14.0039 17.1499 14.1328 17.3397C13.9235 17.4102 13.7325 17.5266 13.5741 17.6805C13.4156 17.8343 13.2935 18.0217 13.2169 18.2289C13.1403 18.436 13.111 18.6577 13.1312 18.8777C13.1514 19.0976 13.2205 19.3103 13.3336 19.5H11.3643C11.9075 19.1205 12.3512 18.6155 12.6577 18.028C12.9642 17.4405 13.1245 16.7877 13.125 16.125V15.375C13.125 15.3258 13.1153 15.277 13.0965 15.2315C13.0776 15.186 13.05 15.1446 13.0152 15.1098C12.9804 15.075 12.939 15.0474 12.8935 15.0285C12.848 15.0097 12.7992 15 12.75 15C12.4983 15.0009 12.2473 15.0249 12 15.0717V10.3ZM8.625 19.125V19.4791C7.80037 19.3859 7.03886 18.9925 6.48561 18.374C5.93235 17.7554 5.62602 16.9549 5.625 16.125V15.7709C6.44963 15.8641 7.21114 16.2575 7.76439 16.876C8.31765 17.4946 8.62398 18.2951 8.625 19.125ZM9.375 19.125C9.37602 18.2951 9.68235 17.4946 10.2356 16.876C10.7889 16.2575 11.5504 15.8641 12.375 15.7709V16.125C12.374 16.9549 12.0676 17.7554 11.5144 18.374C10.9611 18.9925 10.1996 19.3859 9.375 19.4791V19.125ZM10.1207 15.9494C9.64164 16.348 9.25856 16.8495 9 17.4166C8.74144 16.8495 8.35836 16.348 7.87926 15.9494C7.89054 15.501 7.99617 15.0601 8.18928 14.6553C8.38238 14.2504 8.65863 13.8909 9 13.6C9.34137 13.8909 9.61762 14.2504 9.81072 14.6553C10.0038 15.0601 10.1095 15.501 10.1207 15.9494ZM2.625 10.875C2.6251 10.7756 2.66464 10.6802 2.73494 10.6099C2.80525 10.5396 2.90057 10.5001 3 10.5H8.25C8.34943 10.5001 8.44475 10.5396 8.51506 10.6099C8.58536 10.6802 8.6249 10.7756 8.625 10.875V12.9467C7.83375 13.5725 7.31235 14.4777 7.16801 15.4761C6.57711 15.1633 5.91861 14.9998 5.25 15C5.20075 15 5.15198 15.0097 5.10648 15.0285C5.06098 15.0474 5.01963 15.075 4.98481 15.1098C4.94998 15.1446 4.92236 15.186 4.90352 15.2315C4.88468 15.277 4.87499 15.3258 4.875 15.375V16.125C4.87547 16.7877 5.03576 17.4405 5.34227 18.028C5.64878 18.6155 6.09248 19.1205 6.63572 19.5H2.625V10.875ZM22.5 20.625C22.4997 20.9233 22.381 21.2092 22.1701 21.4201C21.9592 21.631 21.6733 21.7497 21.375 21.75H2.625C2.32673 21.7497 2.04077 21.631 1.82986 21.4201C1.61896 21.2092 1.50033 20.9233 1.5 20.625V20.25H22.5V20.625Z" fill="#00385E"/>
</svg>
