<svg width="20" height="20" viewBox="0 0 20 20" fill="none" xmlns="http://www.w3.org/2000/svg">
<g clip-path="url(#clip0_1_133)">
<path d="M17.0667 2.4666L15.2974 4.82594L14.9024 4.43094C14.7716 4.30461 14.5637 4.30642 14.4351 4.435C14.3065 4.56358 14.3047 4.77148 14.431 4.90227C15.1577 5.62894 15.1537 5.6666 15.3334 5.6666C15.4383 5.6666 15.5371 5.61721 15.6 5.53327L17.6 2.86661C17.7105 2.71933 17.6806 2.5104 17.5334 2.39994C17.3861 2.28948 17.1772 2.31933 17.0667 2.4666Z" fill="#00385E"/>
<path d="M13.6858 0.743607C11.3931 -0.341393 9.38843 -0.0617263 6.76476 0.473607C5.26476 0.773607 4.17643 1.30061 3.4341 2.08827C2.84606 2.71778 2.39129 3.45963 2.0971 4.26927C1.97105 4.63652 1.86884 5.01152 1.7911 5.39194C1.6171 6.15861 1.12943 6.73794 1.20343 7.25461C1.28643 7.83461 1.9581 8.10227 1.95676 8.35027C1.55229 9.24187 1.04603 10.0837 0.448097 10.8589C-0.21857 11.6723 -0.0915696 12.0343 0.487097 12.4643C0.72243 12.6396 1.21043 12.8139 1.23576 12.9486C1.25759 13.1688 1.19198 13.3887 1.0531 13.5609C0.712764 14.1669 0.879431 14.2823 1.34376 14.6399C1.15862 14.8916 1.19763 15.2433 1.43343 15.4483C1.66876 15.6166 1.92276 15.6939 1.9641 15.8589C2.04276 16.1703 1.68276 16.5443 1.9891 17.4236C2.16099 18.0558 2.79781 18.4427 3.4381 18.3039C4.38833 18.0747 5.32529 17.7937 6.24476 17.4619C6.97443 17.8926 7.40643 19.1426 7.52576 19.5306C7.61319 19.8072 7.87173 19.9936 8.16176 19.9893H15.7001C15.9457 19.9859 16.1701 19.8493 16.2858 19.6327C16.4015 19.416 16.3903 19.1536 16.2564 18.9476C15.6378 18.0063 15.3854 16.7476 15.2498 15.6306C15.1326 14.6341 15.2822 13.6244 15.6831 12.7046C16.3914 11.0979 18.0334 10.2666 18.0001 7.45994C19.2743 6.72298 20.0402 5.34512 19.9933 3.87388C19.9464 2.40263 19.0945 1.07631 17.7759 0.421945C16.4574 -0.232417 14.8858 -0.108826 13.6858 0.743607ZM15.0744 12.4379C14.6258 13.4666 14.4583 14.596 14.5891 15.7106C14.8974 18.2503 15.5244 18.9486 15.7001 19.3289H8.16243C7.94543 18.5377 7.54376 17.8093 6.99043 17.2036C7.08043 17.1723 7.67276 16.9646 7.76743 16.9343C9.1911 16.4829 9.90276 15.8343 9.8831 15.0009C9.87877 14.8168 9.72603 14.6711 9.54193 14.6754C9.35784 14.6798 9.2121 14.8325 9.21643 15.0166C9.22443 15.3599 8.94476 15.8606 7.56576 16.2979C6.9901 16.4803 4.5761 17.3873 3.30143 17.6499C2.9906 17.7087 2.68884 17.5115 2.61776 17.2033C2.36076 16.4656 2.76276 16.3033 2.60976 15.6946C2.51176 15.3059 2.23776 15.1556 1.92376 14.9713C2.0221 14.7649 2.14576 14.7123 2.1201 14.5159C2.09543 14.3289 1.99276 14.3069 1.58243 13.9796C1.83228 13.6497 1.94297 13.2351 1.89076 12.8246C1.7881 12.2783 1.1411 12.1193 0.864764 11.9136C0.794486 11.8652 0.728267 11.8111 0.666764 11.7519C0.666764 11.7013 0.720764 11.5783 0.974431 11.2679C1.57094 10.501 2.0805 9.67026 2.49376 8.79094C2.57407 8.65288 2.61853 8.49692 2.6231 8.33727C2.58773 8.00391 2.41146 7.70159 2.13876 7.50661C1.8021 7.19527 1.8301 7.15594 1.91576 6.92727C2.1148 6.50535 2.28388 6.06994 2.42176 5.62427C2.49869 5.24372 2.59887 4.86823 2.72176 4.49994C2.98492 3.77446 3.39208 3.10969 3.91876 2.54561C4.55376 1.87161 5.5551 1.39427 6.89576 1.12694C9.2111 0.65494 11.0874 0.353274 13.1291 1.22094C12.8348 1.52585 12.5905 1.87539 12.4054 2.25661C8.12243 0.396274 3.66676 3.36094 3.66676 6.49994C3.66676 9.30894 6.87843 9.66661 9.66343 9.66661C10.2164 9.66624 10.6653 10.1136 10.6668 10.6666C10.676 11.495 11.355 12.1591 12.1834 12.1499C13.0119 12.1407 13.676 11.4617 13.6668 10.6333V10.1433C13.6702 9.6285 13.9681 9.16118 14.4334 8.94094C14.9033 8.73247 15.3077 8.40031 15.6034 7.97994C16.1871 8.03882 16.7766 7.96651 17.3288 7.76827C17.2448 10.0636 15.8001 10.7869 15.0744 12.4379ZM14.8668 7.83327C14.6589 8.04365 14.4146 8.21463 14.1458 8.33794C13.4488 8.66965 13.0034 9.37137 13.0001 10.1433V10.6333C13.0094 11.036 12.7344 11.3899 12.3418 11.4803C12.0957 11.534 11.8386 11.4733 11.6426 11.3151C11.4466 11.157 11.3329 10.9185 11.3334 10.6666C11.3314 9.74567 10.5844 9.00012 9.66343 8.99994C7.32043 8.99994 4.33343 8.80527 4.33343 6.49994C4.33343 3.80427 8.31276 1.18827 12.1631 2.87861C11.5448 4.99304 12.754 7.20912 14.8668 7.83327ZM16.0001 7.33327C14.1591 7.33327 12.6668 5.84089 12.6668 3.99994C12.6668 2.15899 14.1591 0.666607 16.0001 0.666607C17.841 0.666607 19.3334 2.15899 19.3334 3.99994C19.3314 5.84005 17.8402 7.33125 16.0001 7.33327Z" fill="#00385E"/>
<path d="M10.6667 4.66671H10V4.00004C10 3.63185 9.70154 3.33337 9.33335 3.33337H8.66669C8.2985 3.33337 8.00002 3.63185 8.00002 4.00004V4.66671H7.33335C6.96516 4.66671 6.66669 4.96518 6.66669 5.33337V6.00004C6.66669 6.36823 6.96516 6.66671 7.33335 6.66671H8.00002V7.33337C8.00002 7.70156 8.2985 8.00004 8.66669 8.00004H9.33335C9.70154 8.00004 10 7.70156 10 7.33337V6.66671H10.6667C11.0349 6.66671 11.3334 6.36823 11.3334 6.00004V5.33337C11.3334 4.96518 11.0349 4.66671 10.6667 4.66671ZM10.6667 6.00004H9.83335C9.55721 6.00004 9.33335 6.2239 9.33335 6.50004V7.33337H8.66669V6.50004C8.66669 6.2239 8.44283 6.00004 8.16669 6.00004H7.33335V5.33337H8.16669C8.44283 5.33337 8.66669 5.10952 8.66669 4.83337V4.00004H9.33335V4.83337C9.33335 5.10952 9.55721 5.33337 9.83335 5.33337H10.6667V6.00004Z" fill="#00385E"/>
</g>
<defs>
<clipPath id="clip0_1_133">
<rect width="20" height="20" fill="white"/>
</clipPath>
</defs>
</svg>
