<svg width="22" height="22" viewBox="0 0 22 22" fill="none" xmlns="http://www.w3.org/2000/svg">
<path d="M15.168 14.7862C14.9985 14.6201 14.7265 14.6229 14.5604 14.7924L14.5482 14.8049C14.3821 14.9744 14.3849 15.2464 14.5544 15.4125C14.638 15.4945 14.7466 15.5353 14.8551 15.5353C14.9665 15.5353 15.0779 15.4922 15.1621 15.4063L15.1743 15.3939C15.3403 15.2244 15.3375 14.9523 15.168 14.7862Z" fill="#00385E"/>
<path d="M19.7903 10.2814H18.6484V9.13953C18.6484 8.90221 18.4561 8.70984 18.2188 8.70984C17.9814 8.70984 17.7891 8.90221 17.7891 9.13953V10.2814H16.6472C16.4099 10.2814 16.2175 10.4738 16.2175 10.7111C16.2175 10.9484 16.4099 11.1408 16.6472 11.1408H17.7891V12.2826C17.7891 12.5199 17.9814 12.7123 18.2188 12.7123C18.4561 12.7123 18.6484 12.5199 18.6484 12.2826V11.1408H19.7903C20.0276 11.1408 20.22 10.9484 20.22 10.7111C20.22 10.4738 20.0276 10.2814 19.7903 10.2814Z" fill="#00385E"/>
<path d="M19.6236 7.20053C19.2223 4.23439 16.7426 2.01514 13.7994 2.01514C12.3137 2.01514 10.9238 2.56896 9.83986 3.5841C8.75585 2.56896 7.36602 2.01514 5.88033 2.01514C2.6379 2.01514 0 4.71586 0 8.0355C0 8.69138 0.19134 9.42653 0.572001 10.238H0.429688C0.192371 10.238 0 10.4304 0 10.6677C0 10.905 0.192371 11.0974 0.429688 11.0974H1.02962C1.83215 12.4561 3.10128 14.0011 4.8318 15.7219C7.17704 18.0538 9.55511 19.8782 9.57887 19.8964C9.65587 19.9553 9.74787 19.9847 9.83986 19.9847C9.93186 19.9847 10.0238 19.9553 10.1009 19.8964C10.119 19.8825 11.9378 18.4878 13.9534 16.5875C14.126 16.4247 14.134 16.1527 13.9712 15.9801C13.8085 15.8074 13.5365 15.7994 13.3638 15.9622C11.8267 17.4115 10.4075 18.5606 9.83991 19.0096C9.16538 18.4759 7.28756 16.9525 5.4316 15.1064C3.94574 13.6283 2.80827 12.2813 2.03926 11.0974H5.88609C6.07777 11.0974 6.24625 10.9704 6.2991 10.7862L7.04985 8.16935L9.12886 14.8303C9.18489 15.0097 9.35105 15.132 9.53904 15.132C9.72703 15.132 9.89319 15.0097 9.94918 14.8303L11.1005 11.1404H13.0188C13.2561 11.1404 13.4485 10.9481 13.4485 10.7107C13.4485 10.4734 13.2561 10.2811 13.0188 10.2811H10.7845C10.5965 10.2811 10.4303 10.4033 10.3743 10.5827L9.53891 13.2599L7.44263 6.54362C7.38609 6.36242 7.21773 6.23936 7.02747 6.24198C6.83767 6.24417 6.67177 6.37067 6.61939 6.55316L5.56223 10.2381H1.53072C1.08655 9.3995 0.859377 8.6604 0.859377 8.0355C0.859377 5.18972 3.11176 2.87451 5.88033 2.87451C7.27183 2.87451 8.56588 3.44651 9.52404 4.48507C9.60542 4.57324 9.71989 4.62339 9.83986 4.62339C9.95983 4.62339 10.0743 4.57324 10.1557 4.48507C11.1138 3.44651 12.4079 2.87451 13.7994 2.87451C16.1931 2.87451 18.2281 4.60074 18.7118 6.96192C18.5504 6.94083 18.3858 6.92978 18.2187 6.92978C16.1338 6.92978 14.4375 8.62606 14.4375 10.711C14.4375 12.796 16.1338 14.4923 18.2187 14.4923C20.3037 14.4923 22 12.796 22 10.711C22 9.12222 21.015 7.75934 19.6236 7.20053ZM18.2188 13.6329C16.6077 13.6329 15.2969 12.3222 15.2969 10.711C15.2969 9.09992 16.6077 7.78916 18.2188 7.78916C19.8299 7.78916 21.1407 9.09992 21.1407 10.711C21.1407 12.3222 19.8299 13.6329 18.2188 13.6329Z" fill="#00385E"/>
</svg>
