<svg width="20" height="20" viewBox="0 0 20 20" fill="none" xmlns="http://www.w3.org/2000/svg">
<g clip-path="url(#clip0_22_13)">
<path d="M5.3125 11.7188C5.85184 11.7188 6.28906 11.2815 6.28906 10.7422C6.28906 10.2028 5.85184 9.76562 5.3125 9.76562C4.77316 9.76562 4.33594 10.2028 4.33594 10.7422C4.33594 11.2815 4.77316 11.7188 5.3125 11.7188Z" fill="white"/>
<path d="M13.3203 8.27002V13.7053L19.9609 16.1956V9.93018L13.3203 8.27002Z" fill="white"/>
<path d="M10.5859 8.33674V12.2737C10.5859 12.518 10.7375 12.7366 10.9661 12.8224L12.1484 13.2657V7.97689L11.314 7.76826C10.9442 7.67584 10.5859 7.95553 10.5859 8.33674Z" fill="white"/>
<path d="M10.5546 13.9197C9.86859 13.6624 9.41406 13.0066 9.41406 12.2738V8.33687C9.41406 7.19328 10.4888 6.35418 11.5982 6.63156L19.9471 8.71875C19.8257 6.44461 18.8826 4.32363 17.26 2.70098C15.5182 0.959218 13.2024 0 10.7392 0C7.08539 0 3.48586 0.973125 0.329765 2.81418C0.172812 2.90574 0.0672258 3.06492 0.0439055 3.24512C0.0205852 3.42531 0.0821868 3.60613 0.210702 3.73461L1.46273 4.98664C0.530038 6.7659 0.0390618 8.75445 0.0390618 10.7665V12.7356C0.0390618 14.4008 1.16043 15.8721 2.76601 16.3137L15.7362 19.8805C16.0246 19.9598 16.3226 20 16.6217 20C18.2037 20 19.5313 18.8938 19.8741 17.4145L10.5546 13.9197ZM5.3125 12.8906C4.12785 12.8906 3.16406 11.9268 3.16406 10.7422C3.16406 9.55754 4.12785 8.59375 5.3125 8.59375C6.49715 8.59375 7.46094 9.55754 7.46094 10.7422C7.46094 11.9268 6.49715 12.8906 5.3125 12.8906Z" fill="white"/>
</g>
<defs>
<clipPath id="clip0_22_13">
<rect width="20" height="20" fill="white"/>
</clipPath>
</defs>
</svg>
