<svg width="22" height="22" viewBox="0 0 22 22" fill="none" xmlns="http://www.w3.org/2000/svg">
<g id="add 1">
<g id="Group">
<path id="Vector" fill-rule="evenodd" clip-rule="evenodd" d="M5.65662 10.7462C5.65662 10.499 5.85709 10.2985 6.10438 10.2985H15.9551C16.2024 10.2985 16.4029 10.499 16.4029 10.7462C16.4029 10.9935 16.2024 11.194 15.9551 11.194H6.10438C5.85709 11.194 5.65662 10.9935 5.65662 10.7462Z" fill="white"/>
<path id="Vector_2" fill-rule="evenodd" clip-rule="evenodd" d="M11.0298 18.8062C15.4811 18.8062 19.0895 15.1978 19.0895 10.7465C19.0895 6.29524 15.4811 2.68678 11.0298 2.68678C6.57856 2.68678 2.97011 6.29524 2.97011 10.7465C2.97011 15.1978 6.57856 18.8062 11.0298 18.8062ZM11.0298 19.7017C15.9756 19.7017 19.985 15.6923 19.985 10.7465C19.985 5.80065 15.9756 1.79126 11.0298 1.79126C6.08397 1.79126 2.07458 5.80065 2.07458 10.7465C2.07458 15.6923 6.08397 19.7017 11.0298 19.7017Z" fill="white"/>
</g>
</g>
</svg>
