<svg width="22" height="23" viewBox="0 0 22 23" fill="none" xmlns="http://www.w3.org/2000/svg">
<g id="add 2">
<g id="Group">
<path id="Vector" fill-rule="evenodd" clip-rule="evenodd" d="M5.65662 11.3883C5.65662 11.1411 5.85709 10.9406 6.10438 10.9406H15.9551C16.2024 10.9406 16.4029 11.1411 16.4029 11.3883C16.4029 11.6356 16.2024 11.8361 15.9551 11.8361H6.10438C5.85709 11.8361 5.65662 11.6356 5.65662 11.3883Z" fill="#2A2A2A"/>
<path id="Vector_2" fill-rule="evenodd" clip-rule="evenodd" d="M11.4776 6.4629V16.3136C11.4776 16.5609 11.277 16.7614 11.0298 16.7614C10.7824 16.7614 10.582 16.5609 10.582 16.3136V6.4629C10.582 6.21561 10.7824 6.01514 11.0298 6.01514C11.277 6.01514 11.4776 6.21561 11.4776 6.4629Z" fill="#2A2A2A"/>
<path id="Vector_3" fill-rule="evenodd" clip-rule="evenodd" d="M11.0298 19.448C15.4811 19.448 19.0895 15.8396 19.0895 11.3883C19.0895 6.93708 15.4811 3.32863 11.0298 3.32863C6.57856 3.32863 2.97011 6.93708 2.97011 11.3883C2.97011 15.8396 6.57856 19.448 11.0298 19.448ZM11.0298 20.3436C15.9756 20.3436 19.985 16.3341 19.985 11.3883C19.985 6.44249 15.9756 2.43311 11.0298 2.43311C6.08397 2.43311 2.07458 6.44249 2.07458 11.3883C2.07458 16.3341 6.08397 20.3436 11.0298 20.3436Z" fill="#2A2A2A"/>
</g>
</g>
</svg>
