<svg width="22" height="22" viewBox="0 0 22 22" fill="none" xmlns="http://www.w3.org/2000/svg">
<g id="add 3">
<g id="Group">
<path id="Vector" fill-rule="evenodd" clip-rule="evenodd" d="M5.65662 10.9851C5.65662 10.7379 5.85709 10.5374 6.10438 10.5374H15.9551C16.2024 10.5374 16.4029 10.7379 16.4029 10.9851C16.4029 11.2324 16.2024 11.4329 15.9551 11.4329H6.10438C5.85709 11.4329 5.65662 11.2324 5.65662 10.9851Z" fill="#2A2A2A"/>
<path id="Vector_2" fill-rule="evenodd" clip-rule="evenodd" d="M11.4776 6.05958V15.9103C11.4776 16.1576 11.277 16.3581 11.0298 16.3581C10.7824 16.3581 10.582 16.1576 10.582 15.9103V6.05958C10.582 5.81229 10.7824 5.61182 11.0298 5.61182C11.277 5.61182 11.4776 5.81229 11.4776 6.05958Z" fill="#2A2A2A"/>
<path id="Vector_3" fill-rule="evenodd" clip-rule="evenodd" d="M11.0298 19.045C15.4811 19.045 19.0895 15.4365 19.0895 10.9853C19.0895 6.53401 15.4811 2.92555 11.0298 2.92555C6.57856 2.92555 2.97011 6.53401 2.97011 10.9853C2.97011 15.4365 6.57856 19.045 11.0298 19.045ZM11.0298 19.9405C15.9756 19.9405 19.985 15.931 19.985 10.9853C19.985 6.03942 15.9756 2.03003 11.0298 2.03003C6.08397 2.03003 2.07458 6.03942 2.07458 10.9853C2.07458 15.931 6.08397 19.9405 11.0298 19.9405Z" fill="#2A2A2A"/>
</g>
</g>
</svg>
