<svg width="22" height="23" viewBox="0 0 22 23" fill="none" xmlns="http://www.w3.org/2000/svg">
<g id="add 4">
<g id="Group">
<path id="Vector" fill-rule="evenodd" clip-rule="evenodd" d="M5.65662 11.5825C5.65662 11.3353 5.85709 11.1348 6.10438 11.1348H15.9551C16.2024 11.1348 16.4029 11.3353 16.4029 11.5825C16.4029 11.8298 16.2024 12.0303 15.9551 12.0303H6.10438C5.85709 12.0303 5.65662 11.8298 5.65662 11.5825Z" fill="#2A2A2A"/>
<path id="Vector_2" fill-rule="evenodd" clip-rule="evenodd" d="M11.4776 6.65723V16.508C11.4776 16.7552 11.277 16.9557 11.0298 16.9557C10.7824 16.9557 10.582 16.7552 10.582 16.508V6.65723C10.582 6.40994 10.7824 6.20947 11.0298 6.20947C11.277 6.20947 11.4776 6.40994 11.4776 6.65723Z" fill="#2A2A2A"/>
<path id="Vector_3" fill-rule="evenodd" clip-rule="evenodd" d="M11.0298 19.6421C15.4811 19.6421 19.0895 16.0337 19.0895 11.5824C19.0895 7.13117 15.4811 3.52272 11.0298 3.52272C6.57856 3.52272 2.97011 7.13117 2.97011 11.5824C2.97011 16.0337 6.57856 19.6421 11.0298 19.6421ZM11.0298 20.5376C15.9756 20.5376 19.985 16.5282 19.985 11.5824C19.985 6.63659 15.9756 2.6272 11.0298 2.6272C6.08397 2.6272 2.07458 6.63659 2.07458 11.5824C2.07458 16.5282 6.08397 20.5376 11.0298 20.5376Z" fill="#2A2A2A"/>
</g>
</g>
</svg>
