<svg width="50" height="49" viewBox="0 0 50 49" fill="none" xmlns="http://www.w3.org/2000/svg">
<g id="architect 1">
<path id="Vector" d="M12.609 36.8208C12.609 36.4405 12.2286 36.0602 11.8483 36.0602C11.468 36.0602 11.0877 36.4405 11.0877 36.8208V38.3421C11.0877 38.7224 11.468 39.1027 11.8483 39.1027C12.2286 39.1027 12.609 38.7224 12.609 38.3421V36.8208Z" fill="#777777"/>
<path id="Vector_2" d="M39.9918 36.8208C39.9918 36.4405 39.6115 36.0602 39.2312 36.0602C38.8508 36.0602 38.4705 36.4405 38.4705 36.8208V38.3421C38.4705 38.7224 38.8508 39.1027 39.2312 39.1027C39.6115 39.1027 39.9918 38.7224 39.9918 38.3421V36.8208Z" fill="#777777"/>
<path id="Vector_3" d="M38.4705 34.6912V31.2683L30.8642 28.7582V43.8948L38.4705 46.4049V40.472C37.5577 40.1677 36.9492 39.331 36.9492 38.3422V36.8209C36.9492 35.8321 37.5577 34.9954 38.4705 34.6912Z" fill="#777777"/>
<path id="Vector_4" d="M12.6089 34.6912C13.5217 34.9954 14.1302 35.8321 14.1302 36.8209V38.3422C14.1302 39.331 13.5217 40.1677 12.6089 40.472V43.8948L20.2153 46.4049V31.2683L12.6089 28.7582V34.6912Z" fill="#777777"/>
<path id="Vector_5" d="M21.7366 46.4049L29.3429 43.8948V28.7582L21.7366 31.2683V46.4049Z" fill="#777777"/>
<path id="Vector_6" d="M32.7658 26.0959L28.7344 25.4113C27.7456 25.8677 26.6807 26.0959 25.6158 26.0959C24.5509 26.0959 23.486 25.8677 22.4972 25.4113L18.4658 26.0959C17.1728 26.324 16.1079 27.0086 15.3472 27.9974L21.1281 29.899L30.2557 26.8565L36.645 28.9102C35.8083 27.5411 34.4392 26.4001 32.7658 26.0959Z" fill="#777777"/>
<path id="Vector_7" d="M23.2578 21.9884V24.1943C24.703 24.8028 26.3764 24.8028 27.8216 24.1943V21.9884C25.7679 22.7491 23.9424 22.2166 23.2578 21.9884Z" fill="#777777"/>
<path id="Vector_8" d="M30.8642 14.7624H20.2153C19.9871 18.4895 22.5733 20.8475 25.5397 20.8475C28.5062 20.8475 31.2445 18.4135 30.8642 14.7624Z" fill="#777777"/>
<path id="Vector_9" d="M17.9334 13.2411H33.1461C33.5264 13.2411 33.9067 12.8608 33.9067 12.4805C33.9067 12.1002 33.5264 11.7199 33.1461 11.7199H17.9334C17.5531 11.7199 17.1728 12.1002 17.1728 12.4805C17.1728 12.8608 17.5531 13.2411 17.9334 13.2411Z" fill="#777777"/>
<path id="Vector_10" d="M27.8216 4.49384V7.91669C27.8216 8.29701 27.4413 8.67733 27.061 8.67733C26.6807 8.67733 26.3004 8.29701 26.3004 7.91669V2.59225H24.7791V7.91669C24.7791 8.29701 24.3988 8.67733 24.0185 8.67733C23.6382 8.67733 23.2578 8.29701 23.2578 7.91669V4.49384C20.7477 5.33054 18.9983 7.53638 18.7701 10.1986H32.3855C32.0812 7.61244 30.3317 5.4066 27.8216 4.49384Z" fill="#777777"/>
</g>
</svg>
