<svg width="12" height="8" viewBox="0 0 12 8" fill="none" xmlns="http://www.w3.org/2000/svg">
<g clip-path="url(#clip0_129_18)">
<path d="M5.32475 3.3942L2.17688 0.247376C2.03876 0.109599 1.81497 0.109599 1.67649 0.247376C1.53837 0.385154 1.53837 0.60894 1.67649 0.746718L4.57468 3.64385L1.67684 6.54099C1.53872 6.67877 1.53872 6.90255 1.67684 7.04068C1.81497 7.17846 2.0391 7.17846 2.17723 7.04068L5.3251 3.89386C5.46113 3.75751 5.46113 3.5302 5.32475 3.3942Z" fill="white"/>
</g>
<g clip-path="url(#clip1_129_18)">
<path d="M10.3247 3.3942L7.17688 0.247376C7.03876 0.109599 6.81497 0.109599 6.67649 0.247376C6.53837 0.385154 6.53837 0.60894 6.67649 0.746718L9.57468 3.64385L6.67684 6.54099C6.53872 6.67877 6.53872 6.90255 6.67684 7.04068C6.81497 7.17846 7.0391 7.17846 7.17723 7.04068L10.3251 3.89386C10.4611 3.75751 10.4611 3.5302 10.3247 3.3942Z" fill="white"/>
</g>
<defs>
<clipPath id="clip0_129_18">
<rect width="7" height="7" fill="white" transform="translate(0 0.144043)"/>
</clipPath>
<clipPath id="clip1_129_18">
<rect width="7" height="7" fill="white" transform="translate(5 0.144043)"/>
</clipPath>
</defs>
</svg>
