<svg width="46" height="46" viewBox="0 0 46 46" fill="none" xmlns="http://www.w3.org/2000/svg">
<g id="exchange 1" clip-path="url(#clip0_0_178)">
<g id="Group">
<g id="Group_2">
<path id="Vector" d="M27.9337 42.1636C23.2363 43.392 18.2585 42.8423 13.9177 40.6152C9.54645 38.3725 6.18279 34.6037 4.44633 30.0032C2.83822 25.7424 2.73414 21.2073 4.14528 16.8878C5.19159 13.685 7.04904 10.7977 9.48976 8.52383L9.03959 12.2598L11.6626 12.576L12.6551 4.34096L4.52343 3.37955L4.21318 6.00329L7.85818 6.43436C5.00882 9.03524 2.84322 12.3661 1.63403 16.0675C0.858193 18.4423 0.485913 20.9077 0.527618 23.3954C0.570813 25.9695 1.05761 28.5066 1.97468 30.9364C3.94297 36.1514 7.75619 40.4237 12.7118 42.9661C15.9148 44.6092 19.4239 45.4466 22.9531 45.4466C24.8451 45.4466 26.7431 45.2059 28.6023 44.7196L27.9337 42.1636Z" fill="#777777"/>
</g>
</g>
<g id="Group_3">
<g id="Group_4">
<path id="Vector_2" d="M44.0187 30.6796C45.8558 25.6504 45.8246 20.1178 43.9311 15.1008C41.8806 9.66791 37.8673 5.29649 32.6303 2.79173C27.4101 0.295029 21.5119 -0.0950366 16.0223 1.69355L16.8408 4.20559C21.6823 2.62815 26.8848 2.97257 31.4903 5.17523C36.11 7.38473 39.6503 11.241 41.4592 16.0338C43.1293 20.4589 43.1569 25.3384 41.537 29.7732C40.256 33.2801 38.0142 36.3397 35.1053 38.6063L35.595 34.5431L32.9719 34.2269L31.9794 42.4619L40.111 43.4234L40.4212 40.7997L37.0867 40.4053C40.2103 37.8668 42.6201 34.5083 44.0187 30.6796Z" fill="#777777"/>
</g>
</g>
<g id="Group_5">
<g id="Group_6">
<path id="Vector_3" d="M30.291 18.2445C31.0526 17.2878 31.5094 16.0781 31.5094 14.7631C31.5094 11.6751 28.9971 9.16287 25.909 9.16287C23.8213 9.16287 21.9979 10.312 21.035 12.0103C25.3037 12.3157 28.6835 15.8859 28.6835 20.231C28.6835 21.0813 28.5499 21.9237 28.2939 22.7267C29.1611 23.3926 29.9244 24.1936 30.5571 25.1084C30.9615 25.6931 31.3013 26.3116 31.577 26.9546L35.3722 26.9498V25.6305C35.3722 22.2654 33.2595 19.3849 30.291 18.2445Z" fill="#777777"/>
</g>
</g>
<g id="Group_7">
<g id="Group_8">
<path id="Vector_4" d="M24.7932 23.7482C25.5721 22.786 26.0399 21.5623 26.0399 20.2309C26.0399 17.1429 23.5276 14.6306 20.4396 14.6306C17.3516 14.6306 14.8393 17.1429 14.8393 20.2309C14.8393 21.5651 15.3091 22.7913 16.0908 23.7544C13.1791 24.9225 11.1174 27.7739 11.1174 31.0983V32.4192H29.7819V31.0983C29.782 27.7682 27.713 24.9124 24.7932 23.7482Z" fill="#777777"/>
</g>
</g>
</g>
<defs>
<clipPath id="clip0_0_178">
<rect width="44.8594" height="44.8594" fill="white" transform="translate(0.515137 0.587158)"/>
</clipPath>
</defs>
</svg>
