<svg width="24" height="24" viewBox="0 0 24 24" fill="none" xmlns="http://www.w3.org/2000/svg">
<g id="house (1) 1">
<path id="Vector" d="M14.1525 11.58C14.18 11.58 14.2072 11.5862 14.232 11.598L19.6875 14.142V8.8125H11.8125V12.6503L14.0737 11.6003C14.0981 11.5876 14.1251 11.5807 14.1525 11.58Z" fill="white"/>
<path id="Vector_2" d="M11.8125 6.09229H18.0892V8.43754H11.8125V6.09229Z" fill="white"/>
<path id="Vector_3" d="M14.0805 12.4224C14.1053 12.4109 14.1323 12.4049 14.1596 12.4049C14.187 12.4049 14.214 12.4109 14.2388 12.4224L19.9538 15.0849C19.9583 15.0849 19.9598 15.0916 19.9635 15.0939L20.5635 15.3736L20.7203 15.0384L19.8 14.6086L14.1525 11.9746L3.99902 16.7109L4.15652 17.0529L14.0805 12.4224Z" fill="white"/>
<path id="Vector_4" d="M11.4375 18.9375V14.8972L5.4375 17.697V18.9375H11.4375Z" fill="white"/>
<path id="Vector_5" d="M19.875 19.3125H11.625H5.25H4.5H2.8125V19.6875H21.1875V19.3125H19.875Z" fill="white"/>
<path id="Vector_6" d="M19.6875 18.9374V15.3749L14.16 12.7957L4.6875 17.2192V18.9374H5.0625V17.5777C5.06281 17.5414 5.0736 17.5061 5.09356 17.4759C5.11352 17.4457 5.14181 17.4219 5.175 17.4074L11.55 14.4329C11.5786 14.4197 11.61 14.4139 11.6414 14.416C11.6729 14.4181 11.7032 14.4281 11.7298 14.4451C11.7563 14.4621 11.7781 14.4854 11.7932 14.5131C11.8083 14.5407 11.8163 14.5717 11.8162 14.6032V18.9374H19.6875ZM14.1547 15.6374H15.4095V16.8922H14.1547V15.6374ZM14.1547 17.0879H15.4095V18.3427H14.1547V17.0879ZM12.7252 15.6374H13.98V16.8922H12.7252V15.6374ZM12.7252 17.0879H13.98V18.3427H12.7252V17.0879Z" fill="white"/>
<path id="Vector_7" d="M11.4375 8.625V4.3125H4.6875V15.975L11.4375 12.825V8.625ZM7.071 12.939H5.4375V11.3055H7.071V12.939ZM7.071 10.8427H5.4375V9.20925H7.071V10.8427ZM7.071 8.7465H5.4375V7.113H7.071V8.7465ZM7.071 6.65025H5.4375V5.01675H7.071V6.65025Z" fill="white"/>
</g>
</svg>
