<svg width="43" height="42" viewBox="0 0 43 42" fill="none" xmlns="http://www.w3.org/2000/svg">
<g id="house (1) 2">
<path id="Vector" d="M25.4885 20.1164C25.5363 20.1165 25.5835 20.1272 25.6266 20.1477L35.1037 24.567V15.3088H21.4236V21.9756L25.3517 20.1516C25.3941 20.1296 25.4409 20.1176 25.4885 20.1164Z" fill="#00ADF3"/>
<path id="Vector_2" d="M21.4236 10.5833H32.3273V14.6573H21.4236V10.5833Z" fill="#00ADF3"/>
<path id="Vector_3" d="M25.3635 21.5796C25.4065 21.5596 25.4534 21.5493 25.5009 21.5493C25.5484 21.5493 25.5953 21.5596 25.6384 21.5796L35.5662 26.2048C35.574 26.2048 35.5766 26.2165 35.5832 26.2204L36.6255 26.7064L36.8978 26.124L35.2991 25.3774L25.4885 20.8018L7.85031 29.0294L8.12391 29.6235L25.3635 21.5796Z" fill="#00ADF3"/>
<path id="Vector_4" d="M20.7722 32.8977V25.8792L10.3492 30.7428V32.8977H20.7722Z" fill="#00ADF3"/>
<path id="Vector_5" d="M35.4294 33.5491H21.0979H10.0235H8.72064H5.78918V34.2005H37.7095V33.5491H35.4294Z" fill="#00ADF3"/>
<path id="Vector_6" d="M35.1037 32.8977V26.7091L25.5016 22.2285L9.04636 29.9128V32.8977H9.69779V30.5356C9.69833 30.4727 9.71707 30.4113 9.75175 30.3588C9.78643 30.3063 9.83556 30.265 9.89322 30.2398L20.9676 25.0727C21.0172 25.0497 21.0719 25.0396 21.1264 25.0433C21.181 25.047 21.2338 25.0644 21.2799 25.0939C21.326 25.1233 21.3639 25.1639 21.3901 25.2119C21.4164 25.2599 21.4301 25.3137 21.4301 25.3684V32.8977H35.1037ZM25.4925 27.1651H27.6722V29.3448H25.4925V27.1651ZM25.4925 29.6848H27.6722V31.8645H25.4925V29.6848ZM23.0092 27.1651H25.1889V29.3448H23.0092V27.1651ZM23.0092 29.6848H25.1889V31.8645H23.0092V29.6848Z" fill="#00ADF3"/>
<path id="Vector_7" d="M20.7722 14.9832V7.4917H9.04636V27.7513L20.7722 22.2793V14.9832ZM13.1869 22.4773H10.3492V19.6396H13.1869V22.4773ZM13.1869 18.8358H10.3492V15.9981H13.1869V18.8358ZM13.1869 15.1943H10.3492V12.3566H13.1869V15.1943ZM13.1869 11.5527H10.3492V8.71509H13.1869V11.5527Z" fill="#00ADF3"/>
</g>
</svg>
