<svg width="12" height="12" viewBox="0 0 12 12" fill="none" xmlns="http://www.w3.org/2000/svg">
<g id="icons8_phone_1 5" clip-path="url(#clip0_0_384)">
<path id="Vector" d="M10.3323 8.32024C9.61839 7.70906 8.89183 7.33767 8.1869 7.94885L7.76502 8.31664C7.45673 8.58527 6.88341 9.83647 4.66767 7.28539C2.45192 4.73971 3.76983 4.34308 4.07993 4.07805L4.50361 3.70846C5.20493 3.09728 4.9399 2.32745 4.43329 1.53418L4.12861 1.05462C3.62019 0.264952 3.0649 -0.254279 2.36178 0.355096L1.98137 0.68863C1.66947 0.913991 0.800481 1.65137 0.589543 3.05041C0.335337 4.72889 1.13762 6.65257 2.97115 8.76195C4.80289 10.8731 6.59856 11.9332 8.29688 11.9152C9.70853 11.899 10.5631 11.1418 10.8299 10.8659L11.2103 10.5324C11.9135 9.92301 11.4772 9.30101 10.7614 8.68983L10.3323 8.32024Z" fill="white"/>
</g>
<defs>
<clipPath id="clip0_0_384">
<rect width="12" height="12" fill="white"/>
</clipPath>
</defs>
</svg>
