<svg width="16" height="17" viewBox="0 0 16 17" fill="none" xmlns="http://www.w3.org/2000/svg">
<g id="icons8_right_arrow 12">
<path id="Vector" d="M12.1706 4.76861C12.0406 4.76611 11.9218 4.84361 11.8693 4.96236C11.8181 5.08236 11.8443 5.22111 11.9356 5.31361L14.4881 7.97236L3.10183 8.07236C2.98683 8.07111 2.87933 8.13111 2.82183 8.23111C2.76308 8.33111 2.76308 8.45361 2.82183 8.55361C2.87933 8.65361 2.98683 8.71361 3.10183 8.71236L14.4881 8.61236L11.9356 11.2711C11.8131 11.3986 11.8181 11.6011 11.9456 11.7236C12.0731 11.8461 12.2756 11.8424 12.3981 11.7136L15.6831 8.29236L12.3981 4.87111C12.3393 4.80736 12.2568 4.77111 12.1706 4.76861Z" fill="#222222"/>
</g>
</svg>
