<svg width="14" height="14" viewBox="0 0 14 14" fill="none" xmlns="http://www.w3.org/2000/svg">
<g id="icons8_Instagram 1">
<path id="Vector" d="M4.66667 1.75C3.05608 1.75 1.75 3.05608 1.75 4.66667V9.33333C1.75 10.9439 3.05608 12.25 4.66667 12.25H9.33333C10.9439 12.25 12.25 10.9439 12.25 9.33333V4.66667C12.25 3.05608 10.9439 1.75 9.33333 1.75H4.66667ZM10.5 2.91667C10.822 2.91667 11.0833 3.178 11.0833 3.5C11.0833 3.822 10.822 4.08333 10.5 4.08333C10.178 4.08333 9.91667 3.822 9.91667 3.5C9.91667 3.178 10.178 2.91667 10.5 2.91667ZM7 4.08333C8.61058 4.08333 9.91667 5.38942 9.91667 7C9.91667 8.61058 8.61058 9.91667 7 9.91667C5.38942 9.91667 4.08333 8.61058 4.08333 7C4.08333 5.38942 5.38942 4.08333 7 4.08333ZM7 5.25C6.53587 5.25 6.09075 5.43437 5.76256 5.76256C5.43437 6.09075 5.25 6.53587 5.25 7C5.25 7.46413 5.43437 7.90925 5.76256 8.23744C6.09075 8.56563 6.53587 8.75 7 8.75C7.46413 8.75 7.90925 8.56563 8.23744 8.23744C8.56563 7.90925 8.75 7.46413 8.75 7C8.75 6.53587 8.56563 6.09075 8.23744 5.76256C7.90925 5.43437 7.46413 5.25 7 5.25Z" fill="white"/>
</g>
</svg>
