<svg width="24" height="24" viewBox="0 0 24 24" fill="none" xmlns="http://www.w3.org/2000/svg">
<g id="icons8_phone_1 3">
<path id="Vector" d="M19.3473 15.0267C18.7407 15.0123 17.9771 14.9766 17.4947 14.8919C16.9728 14.7995 16.345 14.6204 15.903 14.4827C15.5564 14.3748 15.1789 14.4702 14.9218 14.7263C13.6517 15.989 11.6652 16.328 10.2758 15.1978C9.86742 14.8656 9.48722 14.5193 9.13009 14.1601C8.77106 13.8031 8.42489 13.4231 8.09282 13.0149C6.96226 11.6252 7.30114 9.63819 8.56392 8.36739C8.82004 8.1103 8.91537 7.73285 8.80753 7.38621C8.6708 6.94521 8.49074 6.31741 8.39926 5.79553C8.31357 5.31312 8.2789 4.54955 8.2635 3.94294C8.25098 3.41816 7.82346 3.0022 7.29869 3.0022H3.91896C3.49722 3.0022 2.95607 3.31802 2.95607 3.96508C2.95607 8.33562 4.72778 12.5097 7.73776 15.5524C10.7805 18.5624 14.9546 20.3341 19.3251 20.3341C19.9722 20.3341 20.288 19.793 20.288 19.3712V15.9915C20.288 15.4667 19.872 15.0392 19.3473 15.0267Z" fill="#00ADF3"/>
</g>
</svg>
