<svg width="24" height="24" viewBox="0 0 24 24" fill="none" xmlns="http://www.w3.org/2000/svg">
<g id="icons8_search 7">
<path id="Vector" d="M10.08 1.43994C5.56879 1.43994 1.92004 5.08869 1.92004 9.59994C1.92004 14.1112 5.56879 17.7599 10.08 17.7599C11.6907 17.7599 13.1813 17.2874 14.445 16.4849L20.34 22.3799L22.38 20.3399L16.56 14.5349C17.6063 13.1624 18.24 11.4618 18.24 9.59994C18.24 5.08869 14.5913 1.43994 10.08 1.43994ZM10.08 3.35994C13.5357 3.35994 16.32 6.14432 16.32 9.59994C16.32 13.0556 13.5357 15.8399 10.08 15.8399C6.62442 15.8399 3.84004 13.0556 3.84004 9.59994C3.84004 6.14432 6.62442 3.35994 10.08 3.35994Z" fill="#2C2C2C"/>
</g>
</svg>
