<svg width="16" height="17" viewBox="0 0 16 17" fill="none" xmlns="http://www.w3.org/2000/svg">
<g id="icons8_right_arrow 14" clip-path="url(#clip0_0_344)">
<path id="Vector" d="M12.1665 4.76861C12.0365 4.76611 11.9177 4.84361 11.8652 4.96236C11.814 5.08236 11.8402 5.22111 11.9315 5.31361L14.484 7.97236L3.09774 8.07236C2.98274 8.07111 2.87524 8.13111 2.81774 8.23111C2.75899 8.33111 2.75899 8.45361 2.81774 8.55361C2.87524 8.65361 2.98274 8.71361 3.09774 8.71236L14.484 8.61236L11.9315 11.2711C11.809 11.3986 11.814 11.6011 11.9415 11.7236C12.069 11.8461 12.2715 11.8424 12.394 11.7136L15.679 8.29236L12.394 4.87111C12.3352 4.80736 12.2527 4.77111 12.1665 4.76861Z" fill="#222222"/>
</g>
<defs>
<clipPath id="clip0_0_344">
<rect width="16" height="16" fill="white" transform="translate(-0.00488281 0.29248)"/>
</clipPath>
</defs>
</svg>
