<svg width="16" height="16" viewBox="0 0 16 16" fill="none" xmlns="http://www.w3.org/2000/svg">
<g id="icons8_twitter 3">
<path id="Vector" d="M14 4.143C13.559 4.33833 13.0847 4.46867 12.5844 4.53033C13.093 4.22833 13.4844 3.74667 13.668 3.17767C13.192 3.45667 12.6647 3.66167 12.1037 3.76967C11.6557 3.29467 11.0167 3 10.3087 3C8.94869 3 7.84636 4.09267 7.84636 5.44C7.84636 5.63067 7.86869 5.81633 7.91069 5.99667C5.86469 5.894 4.05002 4.92133 2.83602 3.44533C2.62269 3.806 2.50269 4.22833 2.50269 4.674C2.50269 5.521 2.93636 6.26667 3.59769 6.706C3.19402 6.69367 2.81402 6.58133 2.48136 6.40133C2.48136 6.40867 2.48136 6.41967 2.48136 6.43C2.48136 7.61367 3.33036 8.59933 4.45569 8.82367C4.25002 8.88 4.03269 8.91133 3.80869 8.91133C3.64969 8.91133 3.49469 8.89333 3.34469 8.86633C3.65802 9.83367 4.56702 10.5407 5.64402 10.5617C4.80136 11.215 3.74002 11.6063 2.58602 11.6063C2.38669 11.6063 2.19169 11.595 1.99902 11.5717C3.08936 12.262 4.38402 12.6667 5.77369 12.6667C10.302 12.6667 12.7794 8.948 12.7794 5.722C12.7794 5.61633 12.776 5.511 12.771 5.407C13.2544 5.06567 13.671 4.635 14 4.143Z" fill="white"/>
</g>
</svg>
