<svg width="16" height="17" viewBox="0 0 16 17" fill="none" xmlns="http://www.w3.org/2000/svg">
<g id="icons8_right_arrow 13">
<path id="Vector" d="M12.172 4.76861C12.042 4.76611 11.9233 4.84361 11.8708 4.96236C11.8195 5.08236 11.8458 5.22111 11.937 5.31361L14.4895 7.97236L3.1033 8.07236C2.9883 8.07111 2.8808 8.13111 2.8233 8.23111C2.76455 8.33111 2.76455 8.45361 2.8233 8.55361C2.8808 8.65361 2.9883 8.71361 3.1033 8.71236L14.4895 8.61236L11.937 11.2711C11.8145 11.3986 11.8195 11.6011 11.947 11.7236C12.0745 11.8461 12.277 11.8424 12.3995 11.7136L15.6845 8.29236L12.3995 4.87111C12.3408 4.80736 12.2583 4.77111 12.172 4.76861Z" fill="#222222"/>
</g>
</svg>
