<svg width="26" height="26" viewBox="0 0 26 26" fill="none" xmlns="http://www.w3.org/2000/svg">
<g id="icons8_mail_2 5">
<path id="Vector" d="M4.21849 4.4917C3.51891 4.4917 2.90206 4.83527 2.52181 5.36363C2.26551 5.71867 2.37874 6.22194 2.74954 6.45303L11.9735 12.2016C12.3706 12.4495 12.8731 12.4495 13.2702 12.2016L22.4552 6.40379C22.8407 6.16009 22.9368 5.63045 22.6521 5.27541C22.2687 4.79852 21.6838 4.4917 21.0252 4.4917H4.21849ZM22.6173 8.78365C22.5294 8.78462 22.4402 8.80883 22.3567 8.86161L13.2702 14.5917C12.8731 14.8386 12.3706 14.8376 11.9735 14.5897L2.88494 8.92726C2.55091 8.71928 2.11765 8.96009 2.11765 9.354V19.1976C2.11765 20.3583 3.05777 21.2984 4.21849 21.2984H21.0252C22.1859 21.2984 23.126 20.3583 23.126 19.1976V9.28629C23.126 8.99007 22.8808 8.78075 22.6173 8.78365Z" fill="#00ADF3"/>
</g>
</svg>
