<svg width="73" height="73" viewBox="0 0 73 73" fill="none" xmlns="http://www.w3.org/2000/svg">
<g id="icons8_plus_math 23">
<path id="Vector" d="M60.2199 33.4288H39.3592V12.5681C39.3592 10.9231 38.0241 9.58801 36.3791 9.58801C34.7341 9.58801 33.399 10.9231 33.399 12.5681V33.4288H12.5383C10.8933 33.4288 9.55823 34.7639 9.55823 36.4089C9.55823 38.0539 10.8933 39.389 12.5383 39.389H33.399V60.2497C33.399 61.8947 34.7341 63.2298 36.3791 63.2298C38.0241 63.2298 39.3592 61.8947 39.3592 60.2497V39.389H60.2199C61.8649 39.389 63.2 38.0539 63.2 36.4089C63.2 34.7639 61.8649 33.4288 60.2199 33.4288Z" fill="#00ADF3"/>
</g>
</svg>
