<svg width="30" height="30" viewBox="0 0 30 30" fill="none" xmlns="http://www.w3.org/2000/svg">
<g id="property 1">
<path id="Vector" d="M10.0787 26.9144H13.1153V20.91H11.751C11.2328 20.91 10.7859 20.563 10.6573 20.061C10.5411 19.607 10.7152 19.1393 11.0858 18.8699V16.6215L12.3492 16.4267V18.166L13.6288 17.4649V16.2266L15.0524 16.0067V16.6849L16.0595 16.1332V0.719727L10.0787 3.27635V26.9144ZM15.0524 14.4652L13.6288 14.7331V12.1411L15.0524 11.7898V14.4652ZM15.0524 10.2484L13.6288 10.6477V8.05367L15.0524 7.57092V10.2484ZM15.0524 3.5218V6.03154L13.6288 6.56223L13.6284 4.13275L15.0524 3.5218ZM11.0858 5.22231L12.35 4.68043L12.3496 7.03965L11.0858 7.50834L11.0858 5.22231ZM11.0858 8.91606L12.3496 8.48803V11.0091L11.0858 11.3631V8.91611V8.91606ZM11.0858 12.7669L12.3496 12.4554V14.9765L11.0858 15.2139V12.767V12.7669ZM23.0949 3.42664V15.8031L20.7514 14.5191C20.1976 14.2157 19.5591 14.2157 19.0053 14.5191L16.7626 15.7479V0.719727L23.0949 3.42664ZM3.48872 10.4451V26.9144H9.37558V7.92858L3.48872 10.4451ZM6.00351 22.901H4.97583V20.9292L6.00374 20.8289L6.00351 22.901ZM6.00409 19.6498L4.97583 19.7906V17.8113L6.00409 17.6001V19.6498ZM6.00409 16.4236L4.97583 16.6765V14.6971L6.00409 14.3739V16.4236ZM6.00444 13.1962L4.97589 13.5598V11.7112L6.0048 11.2779L6.00444 13.1962ZM8.24015 22.901H7.05591V20.7256L8.24015 20.6098V22.901ZM8.24015 19.3412L7.05591 19.5044V17.3846L8.24015 17.1402V19.3412ZM8.24015 15.8715L7.05591 16.1633V14.0422L8.24015 13.668V15.8715ZM8.24015 12.4006L7.05556 12.8223V10.8359L8.24015 10.334V12.4006ZM28.2104 19.4076L20.4136 15.1357C20.0703 14.9476 19.6867 14.9476 19.3433 15.1357L11.5465 19.4076C11.3736 19.5023 11.2897 19.6957 11.3386 19.8867C11.3875 20.0776 11.554 20.2069 11.7511 20.2069H13.8185V26.9144H15.3992V22.7304H14.9601C14.7659 22.7304 14.6085 22.573 14.6085 22.3788C14.6085 22.1846 14.7659 22.0272 14.9601 22.0272H18.8621C19.0563 22.0272 19.2137 22.1846 19.2137 22.3788C19.2137 22.573 19.0563 22.7304 18.8621 22.7304H18.423V26.9144H25.9385V20.2069H28.0058C28.203 20.2069 28.3695 20.0776 28.4184 19.8867C28.4672 19.6957 28.3833 19.5023 28.2104 19.4076ZM18.7778 17.9301C18.7778 17.3223 19.2706 16.8295 19.8784 16.8295C20.4863 16.8295 20.9791 17.3223 20.9791 17.9301C20.9791 18.538 20.4863 19.0307 19.8784 19.0307C19.2706 19.0307 18.7778 18.538 18.7778 17.9301ZM22.1046 21.9072H20.5546V20.207H22.1046V21.9072ZM24.3577 21.9072H22.8077V20.207H24.3577V21.9072ZM1.5679 28.8406V28.0573C1.5679 27.8155 1.76583 27.6175 2.00771 27.6175H27.464C27.7059 27.6175 27.9038 27.8155 27.9038 28.0573V28.8406C27.9038 29.0825 27.7059 29.2804 27.464 29.2804H2.00771C1.76583 29.2804 1.5679 29.0825 1.5679 28.8406Z" fill="white"/>
</g>
</svg>
