<svg width="28" height="28" viewBox="0 0 28 28" fill="none" xmlns="http://www.w3.org/2000/svg">
<g id="reputation 1">
<path id="Vector" fill-rule="evenodd" clip-rule="evenodd" d="M11.3051 0.492188C14.094 0.492188 16.3548 2.75302 16.3548 5.54187C16.3548 8.33071 14.094 10.5915 11.3051 10.5915C8.51626 10.5915 6.25543 8.33077 6.25543 5.54187C6.25543 2.75302 8.51626 0.492188 11.3051 0.492188ZM18.8427 14.3568L19.578 16.1059L21.4687 16.2647C21.5261 16.2695 21.5493 16.341 21.5057 16.3786L20.0695 17.6184L20.5027 19.4656C20.5159 19.5217 20.455 19.5659 20.4058 19.536L18.7829 18.5532L17.16 19.536C17.1107 19.5659 17.0499 19.5217 17.063 19.4656L17.4962 17.6184L16.06 16.3786C16.0163 16.341 16.0396 16.2695 16.097 16.2647L17.9876 16.1059L18.7229 14.3568C18.7451 14.304 18.8206 14.304 18.8427 14.3568ZM25.0834 16.5892C25.689 15.7212 25.2308 14.311 24.2307 13.9647C23.81 13.819 23.538 13.4449 23.5296 12.9997C23.5093 11.9415 22.3098 11.0699 21.2971 11.3776C20.871 11.5071 20.4312 11.3642 20.1626 11.0091C19.5243 10.1649 18.0415 10.1648 17.4031 11.009C17.1345 11.3642 16.6947 11.5072 16.2687 11.3777C15.256 11.0699 14.0564 11.9415 14.0361 12.9997C14.0276 13.4449 13.7558 13.819 13.335 13.9647C12.3348 14.3109 11.8766 15.7211 12.4822 16.5891C12.737 16.9543 12.737 17.4168 12.4822 17.782C11.8766 18.65 12.3348 20.0602 13.3349 20.4065C13.7557 20.5522 14.0276 20.9263 14.036 21.3715C14.0563 22.4297 15.2558 23.3013 16.2685 22.9935C16.6945 22.864 17.1344 23.0069 17.4029 23.3621C18.0413 24.2063 19.5241 24.2063 20.1625 23.3621C20.431 23.0069 20.8709 22.864 21.2969 22.9935C22.3095 23.3013 23.5092 22.4296 23.5294 21.3715C23.5379 20.9263 23.8097 20.5522 24.2306 20.4065C25.2307 20.0603 25.6889 18.6501 25.0833 17.7821C24.8286 17.4168 24.8286 16.9543 25.0834 16.5892ZM18.7829 21.3375C16.4899 21.3375 14.631 19.4787 14.631 17.1856C14.631 14.8926 16.4899 13.0337 18.7829 13.0337C21.0759 13.0337 22.9347 14.8926 22.9347 17.1856C22.9347 19.4786 21.0758 21.3375 18.7829 21.3375ZM24.2672 22.1327L26.0061 25.1445C26.0803 25.273 25.9706 25.4291 25.8246 25.403L23.2618 24.9434L22.3785 27.3926C22.3281 27.5322 22.138 27.549 22.0639 27.4206L20.3225 24.4044C20.5246 24.2645 20.707 24.093 20.8605 23.8899C20.9077 23.8275 20.9678 23.8079 21.0426 23.8307C22.3624 24.2318 23.8205 23.3873 24.2672 22.1327ZM17.2432 24.4044L15.5018 27.4206C15.4276 27.5491 15.2375 27.5322 15.1872 27.3926L14.3038 24.9435L11.7411 25.4031C11.5951 25.4292 11.4854 25.2731 11.5596 25.1446L13.2985 22.1328C13.7452 23.3874 15.2032 24.2318 16.523 23.8307C16.5978 23.808 16.658 23.8275 16.7051 23.8899C16.8587 24.0929 17.0411 24.2644 17.2432 24.4044ZM11.9787 20.4815H2.35309C2.13401 20.4815 1.96115 20.3013 1.97044 20.0824C2.18137 15.1269 6.30005 11.1384 11.3051 11.1384C12.147 11.1384 12.9635 11.2517 13.7408 11.463C13.3924 11.8873 13.1722 12.4135 13.1613 12.9829C13.1598 13.0612 13.1229 13.1121 13.0488 13.1378C11.5005 13.6738 10.8271 15.746 11.7646 17.0897C11.8094 17.154 11.8095 17.2169 11.7646 17.2812C11.087 18.2525 11.2511 19.6043 11.9787 20.4815Z" fill="white"/>
</g>
</svg>
