<svg width="13" height="9" viewBox="0 0 13 9" fill="none" xmlns="http://www.w3.org/2000/svg">
<path d="M12.6272 1.42969C12.9084 2.41406 12.9084 4.52344 12.9084 4.52344C12.9084 4.52344 12.9084 6.60938 12.6272 7.61719C12.4866 8.17969 12.0413 8.60156 11.5022 8.74219C10.4944 9 6.51001 9 6.51001 9C6.51001 9 2.5022 9 1.49438 8.74219C0.955322 8.60156 0.51001 8.17969 0.369385 7.61719C0.0881348 6.60938 0.0881348 4.52344 0.0881348 4.52344C0.0881348 4.52344 0.0881348 2.41406 0.369385 1.42969C0.51001 0.867188 0.955322 0.421875 1.49438 0.28125C2.5022 0 6.51001 0 6.51001 0C6.51001 0 10.4944 0 11.5022 0.28125C12.0413 0.421875 12.4866 0.867188 12.6272 1.42969ZM5.19751 6.42188L8.52563 4.52344L5.19751 2.625V6.42188Z" fill="white"/>
</svg>
