<svg width="12" height="13" viewBox="0 0 12 13" fill="none" xmlns="http://www.w3.org/2000/svg">
<path d="M11.44 5.42188H11.4166C10.3384 5.42188 9.35406 5.09375 8.55719 4.50781V8.70312C8.55719 10.8125 6.84625 12.5 4.73688 12.5C2.6275 12.5 0.940002 10.8125 0.940002 8.70312C0.940002 6.59375 2.6275 4.88281 4.73688 4.88281C4.92438 4.88281 5.08844 4.90625 5.27594 4.92969V7.03906C5.08844 6.96875 4.92438 6.94531 4.73688 6.94531C3.77594 6.94531 2.97906 7.74219 2.97906 8.70312C2.97906 9.66406 3.77594 10.4609 4.73688 10.4609C5.69781 10.4609 6.49469 9.66406 6.49469 8.70312V0.5H8.55719C8.55719 0.523438 8.55719 0.523438 8.55719 0.546875C8.55719 0.710938 8.55719 0.875 8.60406 1.03906C8.74469 1.8125 9.21344 2.49219 9.86969 2.91406C10.315 3.21875 10.8541 3.38281 11.4166 3.38281C11.4166 3.38281 11.4166 3.38281 11.44 3.38281V5.42188Z" fill="white"/>
</svg>
