<svg width="22" height="22" viewBox="0 0 22 22" fill="none" xmlns="http://www.w3.org/2000/svg">
<g id="user (2) 1">
<g clip-path="url(#clip0_0_265)">
<path id="Vector" d="M10.4721 11.1074C11.8624 11.1074 13.0663 10.6087 14.0499 9.62492C15.0336 8.64128 15.5322 7.43773 15.5322 6.04729C15.5322 4.65734 15.0336 3.45363 14.0498 2.46967C13.066 1.48618 11.8623 0.987549 10.4721 0.987549C9.08171 0.987549 7.87815 1.48618 6.89451 2.46983C5.91086 3.45347 5.41206 4.65718 5.41206 6.04729C5.41206 7.43773 5.91086 8.64144 6.89467 9.62508C7.87847 10.6086 9.08219 11.1074 10.4721 11.1074Z" fill="#00ADF3"/>
<path id="Vector_2" d="M19.3259 17.1418C19.2976 16.7324 19.2402 16.2859 19.1557 15.8143C19.0704 15.3393 18.9606 14.8902 18.8292 14.4797C18.6935 14.0554 18.5088 13.6364 18.2806 13.2349C18.0437 12.8182 17.7654 12.4553 17.4532 12.1567C17.1267 11.8443 16.727 11.5932 16.2647 11.41C15.8041 11.2277 15.2936 11.1354 14.7475 11.1354C14.533 11.1354 14.3256 11.2234 13.9251 11.4842C13.6786 11.6449 13.3902 11.8309 13.0684 12.0365C12.7932 12.2119 12.4204 12.3761 11.9599 12.5249C11.5106 12.6703 11.0544 12.744 10.6042 12.744C10.154 12.744 9.69799 12.6703 9.24824 12.5249C8.78823 12.3763 8.41541 12.212 8.14053 12.0367C7.82173 11.833 7.53323 11.647 7.28303 11.484C6.88296 11.2232 6.6754 11.1353 6.46094 11.1353C5.9147 11.1353 5.40437 11.2277 4.94388 11.4101C4.48195 11.593 4.08205 11.8442 3.75523 12.1569C3.44316 12.4556 3.16476 12.8184 2.92818 13.2349C2.7001 13.6364 2.51546 14.0552 2.37954 14.4798C2.24827 14.8903 2.13847 15.3393 2.0532 15.8143C1.96874 16.2852 1.91136 16.7319 1.88299 17.1423C1.8551 17.5442 1.84099 17.9615 1.84099 18.3828C1.84099 19.4795 2.1896 20.3673 2.87705 21.022C3.556 21.6681 4.45438 21.9959 5.54686 21.9959H15.6625C16.755 21.9959 17.6531 21.6683 18.3322 21.022C19.0198 20.3677 19.3684 19.4798 19.3684 18.3827C19.3682 17.9594 19.354 17.5418 19.3259 17.1418Z" fill="#00ADF3"/>
</g>
</g>
<defs>
<clipPath id="clip0_0_265">
<rect x="0.117676" y="0.987793" width="21.0084" height="21.0084" fill="white"/>
</clipPath>
</defs>
</svg>
