<svg width="16" height="16" viewBox="0 0 16 16" fill="none" xmlns="http://www.w3.org/2000/svg">
<g id="web (3) 1" clip-path="url(#clip0_15_33)">
<path id="Vector" d="M10.693 5C10.1655 2.55 9.0405 1 8 1C6.9595 1 5.8345 2.55 5.307 5H10.693Z" fill="white"/>
<path id="Vector_2" d="M5 8C4.99988 8.6689 5.04448 9.33705 5.1335 10H10.8665C10.9555 9.33705 11.0001 8.6689 11 8C11.0001 7.3311 10.9555 6.66295 10.8665 6H5.1335C5.04448 6.66295 4.99988 7.3311 5 8Z" fill="white"/>
<path id="Vector_3" d="M5.307 11C5.8345 13.45 6.9595 15 8 15C9.0405 15 10.1655 13.45 10.693 11H5.307Z" fill="white"/>
<path id="Vector_4" d="M11.717 5.00001H14.867C14.3937 3.92289 13.6746 2.97168 12.7673 2.22268C11.86 1.47368 10.7898 0.947724 9.6425 0.687012C10.591 1.52151 11.335 3.06451 11.717 5.00001Z" fill="white"/>
<path id="Vector_5" d="M15.2265 6H11.8765C11.959 6.66347 12.0002 7.33142 12 8C12.0001 8.66859 11.9587 9.33654 11.876 10H15.226C15.5906 8.6916 15.5911 7.3084 15.2265 6Z" fill="white"/>
<path id="Vector_6" d="M9.6425 15.313C10.7899 15.0524 11.8604 14.5265 12.7678 13.7775C13.6753 13.0285 14.3946 12.0772 14.868 11H11.718C11.335 12.9355 10.591 14.4785 9.6425 15.313Z" fill="white"/>
<path id="Vector_7" d="M4.283 11H1.133C1.6064 12.0772 2.32569 13.0285 3.23317 13.7775C4.14065 14.5265 5.21105 15.0524 6.3585 15.313C5.409 14.4785 4.665 12.9355 4.283 11Z" fill="white"/>
<path id="Vector_8" d="M6.3575 0.687012C5.21005 0.947583 4.13965 1.47347 3.23217 2.22248C2.32469 2.97149 1.6054 3.92278 1.132 5.00001H4.282C4.665 3.06451 5.409 1.52151 6.3575 0.687012Z" fill="white"/>
<path id="Vector_9" d="M4 8C3.99993 7.33141 4.04135 6.66346 4.124 6H0.773998C0.409364 7.3084 0.409364 8.6916 0.773998 10H4.124C4.04135 9.33654 3.99993 8.66859 4 8Z" fill="white"/>
</g>
<defs>
<clipPath id="clip0_15_33">
<rect width="16" height="16" fill="white"/>
</clipPath>
</defs>
</svg>
