<svg width="26" height="26" viewBox="0 0 26 26" fill="none" xmlns="http://www.w3.org/2000/svg">
<g clip-path="url(#clip0_1_704)">
<path d="M7.34873 18.8998C6.24829 18.8441 6.26901 17.3078 7.34868 17.2544C10.4071 17.265 18.4738 17.2573 21.6294 17.2595C22.4925 17.2595 23.2309 16.6765 23.425 15.8419L25.2169 8.14047C25.3195 7.69951 25.216 7.24312 24.9328 6.88839C24.6497 6.53366 24.2259 6.32735 23.7699 6.32735C22.5005 6.32735 11.7247 6.27893 6.20532 6.25709L5.33041 3.03502C5.12038 2.26503 4.41243 1.72729 3.60874 1.72729H0.805979C0.398228 1.72729 0.0676575 2.0554 0.0676575 2.46011C0.0676575 2.86481 0.398228 3.19292 0.805979 3.19292H3.60874C3.74711 3.19292 3.86893 3.2855 3.90491 3.41726L7.26501 15.7908C6.6742 15.8121 6.12391 16.0506 5.70661 16.4709C5.26815 16.9125 5.03267 17.4971 5.04355 18.117C5.0653 19.3568 6.0994 20.3654 7.34873 20.3654H8.4253C8.26529 20.6988 8.17546 21.0715 8.17546 21.4647C8.17546 22.879 9.33472 24.0296 10.7597 24.0296C12.1846 24.0296 13.3439 22.879 13.3439 21.4647C13.3439 21.0715 13.254 20.6988 13.094 20.3654H17.7561C17.5962 20.6987 17.5064 21.0712 17.5064 21.4643C17.5064 22.8786 18.6657 24.0292 20.0906 24.0292C21.5155 24.0292 22.6749 22.8786 22.6749 21.4643C22.6749 21.0559 22.5777 20.6698 22.4059 20.3267C22.6981 20.2291 22.9088 19.9555 22.9088 19.6327C22.9088 19.2279 22.5782 18.8998 22.1704 18.8998H7.34873ZM11.8672 21.4647C11.8672 22.0709 11.3704 22.564 10.7596 22.564C10.1489 22.564 9.65205 22.0709 9.65205 21.4647C9.65205 20.8589 10.1484 20.366 10.7587 20.3655H10.7606C11.3709 20.366 11.8672 20.8589 11.8672 21.4647ZM20.0906 22.5637C19.4799 22.5637 18.983 22.0705 18.983 21.4643C18.983 20.8642 19.4702 20.3751 20.0727 20.3655H20.1086C20.7111 20.3751 21.1983 20.8642 21.1983 21.4643C21.1983 22.0705 20.7014 22.5637 20.0906 22.5637ZM23.7753 7.79834C23.7797 7.80381 23.7791 7.8064 23.7782 7.8106L23.0231 11.0557H20.4665L20.9018 7.78139L23.764 7.79282C23.7684 7.79292 23.771 7.79292 23.7753 7.79834ZM16.1635 15.7938V12.5214H18.7822L18.3471 15.7938H16.1635ZM12.5023 15.7938L12.0637 12.5214H14.6869V15.7938H12.5023ZM9.10343 15.7938H9.10111C8.92116 15.7938 8.76262 15.6733 8.71581 15.5017L7.90651 12.5214H10.574L11.0126 15.7938H9.10343ZM11.8672 11.0558L11.4231 7.74353L14.6868 7.75657V11.0558H11.8672ZM16.1635 11.0558V7.76248L19.4132 7.77548L18.977 11.0558H16.1635ZM9.93266 7.73752L10.3775 11.0557H7.50851L6.60382 7.72418L9.93266 7.73752ZM21.6294 15.7938H19.8365L20.2716 12.5214H22.6821L21.9862 15.5121C21.9477 15.678 21.8009 15.7938 21.6294 15.7938Z" fill="white"/>
</g>
<defs>
<clipPath id="clip0_1_704">
<rect width="25.188" height="25" fill="white" transform="translate(0.0676575 0.378418)"/>
</clipPath>
</defs>
</svg>
