<svg width="49" height="49" viewBox="0 0 49 49" fill="none" xmlns="http://www.w3.org/2000/svg">
<path d="M2.56561 19.2019C3.25725 19.3123 3.90557 18.8368 4.01344 18.1454C5.36927 9.46476 12.7415 3.16409 21.5428 3.16409H27.4571C36.0596 3.16409 43.4038 9.2989 44.9203 17.7512C44.9439 17.8822 44.9661 18.0138 44.9868 18.1458C45.0845 18.771 45.6237 19.2174 46.2372 19.2174C46.3024 19.2174 46.3684 19.2122 46.4348 19.2019C47.1262 19.0936 47.5992 18.4453 47.4909 17.7539C47.4674 17.6033 47.4422 17.4531 47.4154 17.3036C45.6817 7.64191 37.2882 0.629395 27.4572 0.629395H21.5429C11.4843 0.629395 3.05902 7.83146 1.50908 17.7543C1.401 18.4457 1.87417 19.094 2.56561 19.2019Z" fill="#DC0101"/>
<path d="M0.842804 23.4418V31.8908C0.842804 32.8225 1.60087 33.5806 2.5326 33.5806H5.9122V21.752H2.5326C1.60087 21.752 0.842804 22.51 0.842804 23.4418Z" fill="#DC0101"/>
<path d="M46.4674 21.752H43.0878V33.5806H46.4674C47.3991 33.5806 48.1572 32.8225 48.1572 31.8908V23.4418C48.1572 22.51 47.3992 21.752 46.4674 21.752Z" fill="#DC0101"/>
<path d="M23.3103 39.5672C23.4367 37.7902 25.2112 36.96 26.716 36.96H28.302C29.5694 36.96 31.2592 37.3825 31.2592 39.0723H38.0184C39.8849 39.0723 41.398 37.5592 41.398 35.6927V17.5273C41.398 15.6608 39.8849 14.1477 38.0184 14.1477H12.249C10.2198 14.1477 7.60201 15.7865 7.60201 17.5273V37.8049C7.60201 39.6714 9.1151 41.1845 10.9816 41.1845H14.7824H14.7837H18.9627C19.3836 41.1845 19.7738 41.472 19.8415 41.8875C19.9277 42.4168 19.5214 42.8743 19.0082 42.8743H16.0529C15.8193 42.8743 15.6301 43.0638 15.6304 43.2974L15.6376 48.0588C15.6379 48.215 15.7354 48.2942 15.7934 48.3276C15.8514 48.361 15.9689 48.4053 16.1038 48.327L22.2583 44.5884C22.9127 44.1978 23.3126 43.491 23.3104 42.7289L23.3103 39.5672ZM28.3021 20.9069C29.2338 20.9069 29.9919 21.665 29.9919 22.5967C29.9919 23.5284 29.2338 24.2865 28.3021 24.2865C27.3703 24.2865 26.6123 23.5284 26.6123 22.5967C26.6123 21.665 27.3703 20.9069 28.3021 20.9069ZM20.698 20.9069C21.6297 20.9069 22.3878 21.665 22.3878 22.5967C22.3878 23.5284 21.6297 24.2865 20.698 24.2865C19.7662 24.2865 19.0082 23.5284 19.0082 22.5967C19.0082 21.665 19.7662 20.9069 20.698 20.9069ZM15.6226 26.4707C15.5828 26.0058 15.9277 25.5967 16.3926 25.5569C16.8575 25.5186 17.2666 25.862 17.3064 26.3268C17.6133 29.9205 20.7732 32.7355 24.5 32.7355C28.2251 32.7355 31.3848 29.9219 31.6936 26.3299C31.7336 25.8651 32.1425 25.52 32.6076 25.5605C33.0725 25.6005 33.417 26.0097 33.3772 26.4747C32.994 30.9329 29.0945 34.4253 24.5 34.4253C19.9032 34.4253 16.0038 30.9312 15.6226 26.4707Z" fill="#DC0101"/>
<path d="M43.0878 35.252V36.5193C43.0878 38.3828 40.6493 40.7796 38.6562 40.7477H29.9043C30.0248 39.9028 29.6272 38.7281 28.4718 38.6499H26.5586C25.782 38.7408 25.2758 39.0508 25.0503 39.8338C24.8108 41.3857 25.2861 42.4809 26.5002 42.5301H28.9646H29.4574H38.681C41.9717 42.5301 44.8095 39.3595 44.8095 36.5643V35.2969L43.0878 35.252Z" fill="#DC0101"/>
</svg>
