<svg width="10" height="10" viewBox="0 0 10 10" fill="none" xmlns="http://www.w3.org/2000/svg">
<g clip-path="url(#clip0_1_591)">
<path d="M9.08366 0H0.916341C0.416667 0 0 0.416667 0 0.916341V9.08366C0 9.58333 0.416667 10 0.916341 10H5V5.83333H3.75V4.58333H5V3.33333C5 2.29167 5.41667 1.66667 6.66667 1.66667H7.91667V2.91667H7.37467C7.00033 2.91667 6.66667 3.25033 6.66667 3.62467V4.58333H8.33333L8.125 5.83333H6.66667V10H9.08366C9.58333 10 10 9.58333 10 9.08366V0.916341C10 0.416667 9.58333 0 9.08366 0Z" fill="#8D8D8D"/>
</g>
<defs>
<clipPath id="clip0_1_591">
<rect width="10" height="10" fill="white"/>
</clipPath>
</defs>
</svg>
