<svg width="10" height="10" viewBox="0 0 10 10" fill="none" xmlns="http://www.w3.org/2000/svg">
<g clip-path="url(#clip0_1_599)">
<path d="M2.90264 0C1.30409 0 0 1.30409 0 2.90264V7.09736C0 8.69591 1.30409 10 2.90264 10H7.09736C8.69591 10 10 8.69591 10 7.09736V2.90264C10 1.30409 8.69591 0 7.09736 0H2.90264ZM2.90264 0.769231H7.09736C8.27975 0.769231 9.23077 1.71875 9.23077 2.90264V7.09736C9.23077 8.27975 8.28125 9.23077 7.09736 9.23077H2.90264C1.72025 9.23077 0.769231 8.28125 0.769231 7.09736V2.90264C0.769231 1.72025 1.71875 0.769231 2.90264 0.769231ZM7.88462 1.53846C7.56611 1.53846 7.30769 1.79688 7.30769 2.11538C7.30769 2.43389 7.56611 2.69231 7.88462 2.69231C8.20312 2.69231 8.46154 2.43389 8.46154 2.11538C8.46154 1.79688 8.20312 1.53846 7.88462 1.53846ZM5 2.30769C3.51713 2.30769 2.30769 3.51713 2.30769 5C2.30769 6.48287 3.51713 7.69231 5 7.69231C6.48287 7.69231 7.69231 6.48287 7.69231 5C7.69231 3.51713 6.48287 2.30769 5 2.30769ZM5 3.07692C6.06671 3.07692 6.92308 3.93329 6.92308 5C6.92308 6.06671 6.06671 6.92308 5 6.92308C3.93329 6.92308 3.07692 6.06671 3.07692 5C3.07692 3.93329 3.93329 3.07692 5 3.07692Z" fill="#8D8D8D"/>
</g>
<defs>
<clipPath id="clip0_1_599">
<rect width="10" height="10" fill="white"/>
</clipPath>
</defs>
</svg>
