<svg width="13" height="14" viewBox="0 0 13 14" fill="none" xmlns="http://www.w3.org/2000/svg">
<path d="M11.7184 2.35145C11.277 2.57603 10.5257 2.9972 10.1481 3.0777C10.1335 3.08178 10.1216 3.08703 10.1075 3.09111C9.66713 2.62328 9.06371 2.33336 8.39584 2.33336C7.04979 2.33336 5.95834 3.50878 5.95834 4.95836C5.95834 5.03478 5.95238 5.17536 5.95834 5.25003C4.21525 5.25003 2.94234 4.27061 1.98954 3.01178C1.86225 2.84261 1.72684 2.9307 1.69867 3.05086C1.63529 3.3227 1.61363 3.77711 1.61363 4.10145C1.61363 4.9187 2.20675 5.72136 3.13029 6.21895C2.96021 6.2662 2.77279 6.30003 2.57779 6.30003C2.34813 6.30003 2.08379 6.23528 1.8525 6.10461C1.76692 6.0562 1.58221 6.06961 1.63692 6.30528C1.85629 7.2497 2.85729 7.91295 3.75159 8.10603C3.54846 8.23495 3.11513 8.2087 2.91579 8.2087C2.84213 8.2087 2.58592 8.19003 2.42017 8.16786C2.26904 8.14803 2.03667 8.19003 2.23113 8.50736C2.64875 9.18811 3.59342 9.6157 4.40646 9.63203C3.65788 10.2644 2.43371 10.4954 1.261 10.4954C1.02375 10.4895 1.03567 10.7806 1.22688 10.8885C2.09192 11.3774 3.50892 11.6667 4.52129 11.6667C8.54588 11.6667 10.8333 8.36328 10.8333 5.24944C10.8333 5.19928 10.8323 5.09428 10.8306 4.9887C10.8306 4.9782 10.8333 4.96828 10.8333 4.95778C10.8333 4.94203 10.829 4.92686 10.829 4.91111C10.8274 4.83178 10.8258 4.7577 10.8241 4.7192C11.1432 4.47128 11.6318 4.04078 11.8788 3.7112C11.9627 3.5992 11.895 3.46328 11.7807 3.50586C11.4866 3.61611 10.978 3.82961 10.6595 3.87045C11.297 3.41603 11.6123 3.02053 11.8831 2.58128C11.9757 2.43136 11.8598 2.27911 11.7184 2.35145Z" fill="#8D8D8D"/>
</svg>
