<svg width="21" height="21" viewBox="0 0 21 21" fill="none" xmlns="http://www.w3.org/2000/svg">
<path d="M19.6539 3.76921H1.34617C0.602519 3.76921 0 3.16669 0 2.42308C0 1.67946 0.602519 1.0769 1.34617 1.0769H19.6539C20.3975 1.0769 21 1.67942 21 2.42308C21 3.16673 20.3975 3.76921 19.6539 3.76921Z" fill="white"/>
<path d="M12.1154 11.8462H1.34617C0.602519 11.8462 0 11.2436 0 10.5C0 9.75637 0.602519 9.15381 1.34617 9.15381H12.1154C12.859 9.15381 13.4616 9.75633 13.4616 10.5C13.4616 11.2436 12.859 11.8462 12.1154 11.8462Z" fill="white"/>
<path d="M19.6538 11.8462H17.5C16.7564 11.8462 16.1538 11.2436 16.1538 10.5C16.1538 9.75633 16.7563 9.15381 17.5 9.15381H19.6538C20.3974 9.15381 21 9.75633 21 10.5C21 11.2436 20.3974 11.8462 19.6538 11.8462Z" fill="#61C4D7"/>
<path d="M19.6539 19.9231H1.34617C0.602519 19.9231 0 19.3205 0 18.5769C0 17.8333 0.602519 17.2307 1.34617 17.2307H19.6539C20.3975 17.2307 21 17.8332 21 18.5769C21 19.3205 20.3975 19.9231 19.6539 19.9231Z" fill="white"/>
</svg>
